<svg xmlns="http://www.w3.org/2000/svg" width="319.946" height="196.9" viewBox="0 0 319.946 196.9">
  <g id="Grupo_87323" data-name="Grupo 87323" transform="translate(-832.573 -1713.185)">
    <g id="Grupo_87322" data-name="Grupo 87322">
      <path id="Trazado_192750" data-name="Trazado 192750" d="M695.978,4501.2l50.445,47.442v-70.263Z" transform="translate(136.595 -2725.256)" fill="#6e5f1b"/>
      <path id="Rectángulo_24584" data-name="Rectángulo 24584" d="M0,0H213.472a0,0,0,0,1,0,0V135.526a12,12,0,0,1-12,12H12a12,12,0,0,1-12-12V0A0,0,0,0,1,0,0Z" transform="translate(846.943 1762.559)" fill="#e8d785"/>
      <path id="Rectángulo_24585" data-name="Rectángulo 24585" d="M0,0H211.823a25.844,25.844,0,0,1,25.844,25.844V62.756a0,0,0,0,1,0,0H0a0,0,0,0,1,0,0V0A0,0,0,0,1,0,0Z" transform="translate(832.573 1713.185)" fill="#dabd36"/>
      <text id="Diseño_de_la_propuesta_del_negocio._Intercambio_de_propuestas." data-name="Diseño de la propuesta del negocio.
Intercambio de propuestas." transform="translate(875.454 1786.429)" fill="#073360" font-size="17.507" font-family="Roboto-Regular, Roboto"><tspan x="0" y="18">Diseño de la </tspan><tspan x="0" y="39.008">propuesta del </tspan><tspan x="0" y="60.016">negocio.</tspan><tspan x="0" y="81.025">Intercambio de </tspan><tspan x="0" y="102.033">propuestas.</tspan></text>
      <text id="_3._Propuestas_" data-name="3. Propuestas
" transform="translate(841.673 1730.017)" fill="#fff" font-size="19.695" font-family="Roboto-Black, Roboto" font-weight="800"><tspan x="43.583" y="21">3. Propuestas</tspan></text>
      <path id="comprobado" d="M721.2,4524.613l5.37,5.379,10.311-10.3-1.481-1.459-8.83,8.817-3.911-3.9Z" transform="translate(136.595 -2725.256)" fill="#db6e5f"/>
      <path id="comprobado-2" data-name="comprobado" d="M721.2,4590.866l5.37,5.38,10.311-10.3-1.481-1.46-8.83,8.817-3.911-3.9Z" transform="translate(136.595 -2725.256)" fill="#db6e5f"/>
      <rect id="Rectángulo_24586" data-name="Rectángulo 24586" width="50.671" height="32.892" transform="translate(1076.068 1811.301)" fill="#dabd36"/>
    </g>
    <path id="Trazado_192751" data-name="Trazado 192751" d="M987.478,4581.894V4524.11l28.447,28Z" transform="translate(136.595 -2725.256)" fill="#dabd36"/>
  </g>
</svg>
