<svg xmlns="http://www.w3.org/2000/svg" width="319.946" height="196.9" viewBox="0 0 319.946 196.9">
  <g id="Grupo_85455" data-name="Grupo 85455" transform="translate(-180 -1713.185)">
    <path id="Trazado_192746" data-name="Trazado 192746" d="M43.405,4501.2l50.445,47.442v-70.263Z" transform="translate(136.595 -2725.256)" fill="#6e3730"/>
    <path id="Rectángulo_24578" data-name="Rectángulo 24578" d="M0,0H213.472a0,0,0,0,1,0,0V135.526a12,12,0,0,1-12,12H12a12,12,0,0,1-12-12V0A0,0,0,0,1,0,0Z" transform="translate(194.37 1762.559)" fill="#f9dad7"/>
    <path id="Rectángulo_24579" data-name="Rectángulo 24579" d="M0,0H211.823a25.844,25.844,0,0,1,25.844,25.844V62.756a0,0,0,0,1,0,0H0a0,0,0,0,1,0,0V0A0,0,0,0,1,0,0Z" transform="translate(180 1713.185)" fill="#da6e5f"/>
    <text id="Se_define_el_alcance._Objetivos_propios._" data-name="Se define el alcance.

Objetivos propios.
" transform="translate(222.881 1786.429)" fill="#073360" font-size="17.507" font-family="Roboto-Regular, Roboto"><tspan x="0" y="18">Se define el alcance.</tspan><tspan x="0" y="39.008"></tspan><tspan x="0" y="60.016">Objetivos propios.</tspan><tspan font-family="Roboto-Regular"><tspan x="0" y="81.025"></tspan></tspan></text>
    <text id="_1._Preparación_" data-name="1. Preparación
" transform="translate(189.1 1730.017)" fill="#fff" font-size="19.695" font-family="Roboto-Black, Roboto" font-weight="800"><tspan x="40.242" y="21">1. Preparación</tspan></text>
    <path id="comprobado" d="M68.628,4524.613l5.37,5.379,10.311-10.3-1.481-1.459L74,4527.046l-3.911-3.9Z" transform="translate(136.595 -2725.256)" fill="#db6e5f"/>
    <path id="comprobado-2" data-name="comprobado" d="M68.628,4567.063l5.37,5.379,10.311-10.3-1.481-1.46L74,4569.5l-3.911-3.9Z" transform="translate(136.595 -2725.256)" fill="#db6e5f"/>
    <g id="Grupo_85091" data-name="Grupo 85091" transform="translate(136.595 -2725.256)">
      <rect id="Rectángulo_24580" data-name="Rectángulo 24580" width="50.671" height="32.892" transform="translate(286.901 4536.556)" fill="#da6e5f"/>
      <path id="Trazado_192747" data-name="Trazado 192747" d="M334.9,4581.894V4524.11l28.447,28Z" fill="#da6e5f"/>
    </g>
  </g>
</svg>
