<svg xmlns="http://www.w3.org/2000/svg" xmlns:xlink="http://www.w3.org/1999/xlink" width="1030" height="380.227" viewBox="0 0 1030 380.227">
  <defs>
    <linearGradient id="linear-gradient" y1="0.5" x2="1" y2="0.5" gradientUnits="objectBoundingBox">
      <stop offset="0.004" stop-color="#ccedfb"/>
      <stop offset="0.891" stop-color="#ccedfb" stop-opacity="0.969"/>
      <stop offset="0.901" stop-color="#ccedfb" stop-opacity="0.933"/>
      <stop offset="0.916" stop-color="#ccedfb" stop-opacity="0.847"/>
      <stop offset="0.934" stop-color="#ccedfb" stop-opacity="0.698"/>
      <stop offset="0.956" stop-color="#ccedfb" stop-opacity="0.498"/>
      <stop offset="0.98" stop-color="#ccedfb" stop-opacity="0.243"/>
      <stop offset="1" stop-color="#ccedfb" stop-opacity="0"/>
    </linearGradient>
  </defs>
  <g id="Grupo_87265" data-name="Grupo 87265" transform="translate(-183.405 -2217.965)">
    <rect id="Rectángulo_24501" data-name="Rectángulo 24501" width="1030" height="114.997" transform="translate(183.405 2217.965)" fill="url(#linear-gradient)"/>
    <g id="Grupo_84996" data-name="Grupo 84996" transform="translate(211.253 2257.129)">
      <path id="Trazado_191832" data-name="Trazado 191832" d="M216.121,2263.637h-4.49l-.869,2.759h-2.592l4.4-12.792H215.2l4.385,12.792H216.99Zm-3.857-2.012h3.224l-1.581-5.025h-.053Z" transform="translate(-208.169 -2252.691)" fill="#073360"/>
      <path id="Trazado_191833" data-name="Trazado 191833" d="M221.574,2256.545l.106,1.256a3.194,3.194,0,0,1,1.146-1.058,3.3,3.3,0,0,1,1.595-.373,2.911,2.911,0,0,1,1.564.4,2.512,2.512,0,0,1,.984,1.221,3.3,3.3,0,0,1,1.141-1.194,3.106,3.106,0,0,1,1.652-.43,2.743,2.743,0,0,1,2.219.97,4.54,4.54,0,0,1,.812,2.957v5.754h-2.565v-5.776a2.418,2.418,0,0,0-.351-1.506,1.286,1.286,0,0,0-1.046-.423,1.782,1.782,0,0,0-.945.243,1.747,1.747,0,0,0-.637.672c0,.113,0,.208.009.287s.008.16.008.242v6.26H224.71v-5.776a2.429,2.429,0,0,0-.352-1.494,1.278,1.278,0,0,0-1.054-.435,1.965,1.965,0,0,0-.91.2,1.737,1.737,0,0,0-.645.559v6.946h-2.556v-9.506Z" transform="translate(-206.796 -2252.346)" fill="#073360"/>
      <path id="Trazado_191834" data-name="Trazado 191834" d="M241.611,2261.562a5.461,5.461,0,0,1-.975,3.392,3.225,3.225,0,0,1-2.724,1.282,3.039,3.039,0,0,1-1.326-.277,2.711,2.711,0,0,1-.993-.812v4.559h-2.557v-13.161h2.311l.15,1.125a3.066,3.066,0,0,1,1.014-.962,2.754,2.754,0,0,1,1.384-.338,3.162,3.162,0,0,1,2.741,1.38,6.157,6.157,0,0,1,.975,3.628Zm-2.565-.2a4.622,4.622,0,0,0-.448-2.181,1.462,1.462,0,0,0-1.371-.836,1.919,1.919,0,0,0-.988.239,1.684,1.684,0,0,0-.646.676v4.171a1.569,1.569,0,0,0,.646.616,2.174,2.174,0,0,0,1.006.211,1.472,1.472,0,0,0,1.365-.731,3.851,3.851,0,0,0,.435-1.979Z" transform="translate(-205.072 -2252.346)" fill="#073360"/>
      <path id="Trazado_191835" data-name="Trazado 191835" d="M244.75,2266.5h-2.565v-13.7h2.565Z" transform="translate(-203.933 -2252.792)" fill="#073360"/>
      <path id="Trazado_191836" data-name="Trazado 191836" d="M249.024,2254.716h-2.566v-1.924h2.566Zm0,11.781h-2.566v-9.506h2.566Z" transform="translate(-203.4 -2252.792)" fill="#073360"/>
      <path id="Trazado_191837" data-name="Trazado 191837" d="M253.763,2254.456v2.327h1.6v1.8h-1.6v4.84a1.117,1.117,0,0,0,.229.792.814.814,0,0,0,.614.237,2.2,2.2,0,0,0,.348-.022,3.107,3.107,0,0,0,.338-.074l.219,1.853a5.133,5.133,0,0,1-.756.2,4.549,4.549,0,0,1-.8.065,2.73,2.73,0,0,1-2.042-.729,3.2,3.2,0,0,1-.716-2.311v-4.849H249.81v-1.8H251.2v-2.327Z" transform="translate(-202.983 -2252.585)" fill="#073360"/>
      <path id="Trazado_191838" data-name="Trazado 191838" d="M262.015,2264.662a3.189,3.189,0,0,1-1.117,1.15,3.291,3.291,0,0,1-3.9-.558,4.436,4.436,0,0,1-.848-2.991v-5.738H258.7v5.768a2.459,2.459,0,0,0,.352,1.492,1.227,1.227,0,0,0,1.037.454,2.561,2.561,0,0,0,1.054-.2,1.778,1.778,0,0,0,.721-.586v-6.931h2.565v9.506h-2.187Z" transform="translate(-202.194 -2252.327)" fill="#073360"/>
      <path id="Trazado_191839" data-name="Trazado 191839" d="M264.88,2261.823a6.18,6.18,0,0,1,.97-3.628,3.154,3.154,0,0,1,2.737-1.38,2.68,2.68,0,0,1,1.283.307,3.1,3.1,0,0,1,1,.879v-5.21h2.574v13.7H271.24l-.21-1.159a3.15,3.15,0,0,1-1.059,1,2.815,2.815,0,0,1-1.4.342,3.213,3.213,0,0,1-2.719-1.282,5.481,5.481,0,0,1-.97-3.392Zm2.557.187a3.913,3.913,0,0,0,.422,1.975,1.464,1.464,0,0,0,1.37.721,1.983,1.983,0,0,0,.967-.226,1.788,1.788,0,0,0,.676-.659v-4.074a1.991,1.991,0,0,0-.671-.7,1.784,1.784,0,0,0-.954-.252,1.447,1.447,0,0,0-1.375.84,4.766,4.766,0,0,0-.434,2.192Z" transform="translate(-201.106 -2252.792)" fill="#073360"/>
      <path id="Trazado_191840" data-name="Trazado 191840" d="M277.078,2258.385h-2.565v-2.249h2.565Zm0,7.7h-2.565v-2.249h2.565Z" transform="translate(-199.906 -2252.375)" fill="#073360"/>
      <path id="Trazado_191841" data-name="Trazado 191841" d="M218.583,2279.314l.017.053a3.851,3.851,0,0,1-1.265,3.017,4.821,4.821,0,0,1-3.434,1.217,4.509,4.509,0,0,1-3.537-1.537,5.651,5.651,0,0,1-1.366-3.9v-2.275a5.673,5.673,0,0,1,1.366-3.905,4.506,4.506,0,0,1,3.537-1.542,4.966,4.966,0,0,1,3.452,1.156,3.819,3.819,0,0,1,1.247,3.061l-.017.053h-1.661a2.851,2.851,0,0,0-.791-2.125,3.041,3.041,0,0,0-2.231-.783,2.728,2.728,0,0,0-2.311,1.167,4.745,4.745,0,0,0-.861,2.9v2.292a4.77,4.77,0,0,0,.861,2.914,2.723,2.723,0,0,0,2.311,1.167,3.047,3.047,0,0,0,2.231-.777,2.874,2.874,0,0,0,.791-2.148Z" transform="translate(-208.066 -2250.594)" fill="#073360"/>
      <path id="Trazado_191842" data-name="Trazado 191842" d="M225.2,2283.051c-.058-.287-.1-.54-.136-.759a5.46,5.46,0,0,1-.057-.663,4.035,4.035,0,0,1-1.261,1.146,3.216,3.216,0,0,1-1.673.461,3.1,3.1,0,0,1-2.263-.759,2.8,2.8,0,0,1-.778-2.1,2.456,2.456,0,0,1,1.1-2.13,5.152,5.152,0,0,1,2.991-.769h1.88v-.94a1.744,1.744,0,0,0-.509-1.322,2,2,0,0,0-1.441-.488,2.085,2.085,0,0,0-1.358.426,1.281,1.281,0,0,0-.522,1.023h-1.652l-.018-.053a2.3,2.3,0,0,1,.979-1.9,4.027,4.027,0,0,1,2.666-.861,3.934,3.934,0,0,1,2.6.821,2.914,2.914,0,0,1,.984,2.368v4.577a8.953,8.953,0,0,0,.053.984,4.965,4.965,0,0,0,.193.931Zm-2.873-1.273a3.084,3.084,0,0,0,1.7-.482,2.287,2.287,0,0,0,.984-1.1v-1.542h-1.942a2.525,2.525,0,0,0-1.673.526,1.57,1.57,0,0,0-.629,1.236,1.3,1.3,0,0,0,.4,1A1.653,1.653,0,0,0,222.331,2281.778Z" transform="translate(-206.816 -2250.229)" fill="#073360"/>
      <path id="Trazado_191843" data-name="Trazado 191843" d="M229.668,2273.545l.124,1.415a3.459,3.459,0,0,1,1.19-1.173,3.184,3.184,0,0,1,1.631-.417,3.107,3.107,0,0,1,2.381.9,3.953,3.953,0,0,1,.843,2.78v6h-1.731v-5.965a2.573,2.573,0,0,0-.5-1.783,1.983,1.983,0,0,0-1.515-.527,2.444,2.444,0,0,0-1.322.36,2.644,2.644,0,0,0-.919.984v6.932h-1.731v-9.506Z" transform="translate(-205.684 -2250.229)" fill="#073360"/>
      <path id="Trazado_191844" data-name="Trazado 191844" d="M239.606,2271.487v2.293h1.8v1.283h-1.8v5.772a1.294,1.294,0,0,0,.277.94,1,1,0,0,0,.734.272,1.717,1.717,0,0,0,.329-.035,1.981,1.981,0,0,0,.32-.089l.228,1.186a1.534,1.534,0,0,1-.567.26,2.908,2.908,0,0,1-.751.1,2.238,2.238,0,0,1-1.678-.636,2.764,2.764,0,0,1-.624-2v-5.772h-1.51v-1.283h1.51v-2.293Z" transform="translate(-204.657 -2250.464)" fill="#073360"/>
      <path id="Trazado_191845" data-name="Trazado 191845" d="M244.6,2271.558h-1.731v-1.766H244.6Zm0,11.939h-1.731v-9.506H244.6Z" transform="translate(-203.847 -2250.675)" fill="#073360"/>
      <path id="Trazado_191846" data-name="Trazado 191846" d="M246.427,2278.92a6.341,6.341,0,0,1,.979-3.7,3.158,3.158,0,0,1,2.746-1.406,3.425,3.425,0,0,1,1.48.307,3.053,3.053,0,0,1,1.1.9v-5.227h1.731V2283.5h-1.414l-.2-1.168a3.07,3.07,0,0,1-1.143,1.011,3.433,3.433,0,0,1-1.572.342,3.261,3.261,0,0,1-2.724-1.26,5.241,5.241,0,0,1-.984-3.316Zm1.731.185a4.026,4.026,0,0,0,.589,2.307,2.051,2.051,0,0,0,1.827.865,2.289,2.289,0,0,0,1.3-.351,2.624,2.624,0,0,0,.86-.984V2276.5a2.668,2.668,0,0,0-.865-.936,2.3,2.3,0,0,0-1.279-.347,1.98,1.98,0,0,0-1.841,1.027,5.313,5.313,0,0,0-.593,2.671Z" transform="translate(-203.404 -2250.675)" fill="#073360"/>
      <path id="Trazado_191847" data-name="Trazado 191847" d="M261.751,2283.051q-.089-.43-.136-.759a5.46,5.46,0,0,1-.057-.663,4.034,4.034,0,0,1-1.261,1.146,3.217,3.217,0,0,1-1.674.461,3.1,3.1,0,0,1-2.261-.759,2.8,2.8,0,0,1-.778-2.1,2.456,2.456,0,0,1,1.1-2.13,5.152,5.152,0,0,1,2.991-.769h1.88v-.94a1.748,1.748,0,0,0-.509-1.322,2,2,0,0,0-1.442-.488,2.084,2.084,0,0,0-1.357.426,1.281,1.281,0,0,0-.522,1.023h-1.652l-.018-.053a2.3,2.3,0,0,1,.979-1.9,4.027,4.027,0,0,1,2.666-.861,3.934,3.934,0,0,1,2.6.821,2.914,2.914,0,0,1,.984,2.368v4.577a8.69,8.69,0,0,0,.053.984,4.968,4.968,0,0,0,.193.931Zm-2.873-1.273a3.084,3.084,0,0,0,1.7-.482,2.287,2.287,0,0,0,.984-1.1v-1.542h-1.942a2.525,2.525,0,0,0-1.673.526,1.57,1.57,0,0,0-.629,1.236,1.3,1.3,0,0,0,.4,1A1.651,1.651,0,0,0,258.878,2281.778Z" transform="translate(-202.264 -2250.229)" fill="#073360"/>
      <path id="Trazado_191848" data-name="Trazado 191848" d="M264.318,2278.92a6.342,6.342,0,0,1,.979-3.7,3.155,3.155,0,0,1,2.745-1.406,3.427,3.427,0,0,1,1.481.307,3.062,3.062,0,0,1,1.1.9v-5.227h1.731V2283.5h-1.415l-.2-1.168a3.078,3.078,0,0,1-1.143,1.011,3.434,3.434,0,0,1-1.572.342,3.26,3.26,0,0,1-2.724-1.26,5.234,5.234,0,0,1-.984-3.316Zm1.731.185a4.035,4.035,0,0,0,.588,2.307,2.054,2.054,0,0,0,1.827.865,2.287,2.287,0,0,0,1.3-.351,2.617,2.617,0,0,0,.861-.984V2276.5a2.672,2.672,0,0,0-.866-.936,2.293,2.293,0,0,0-1.277-.347,1.979,1.979,0,0,0-1.841,1.027,5.3,5.3,0,0,0-.593,2.671Z" transform="translate(-201.176 -2250.675)" fill="#073360"/>
      <path id="Trazado_191849" data-name="Trazado 191849" d="M277.388,2278.92a6.342,6.342,0,0,1,.979-3.7,3.157,3.157,0,0,1,2.745-1.406,3.427,3.427,0,0,1,1.481.307,3.053,3.053,0,0,1,1.1.9v-5.227h1.731V2283.5h-1.414l-.2-1.168a3.07,3.07,0,0,1-1.143,1.011,3.433,3.433,0,0,1-1.572.342,3.261,3.261,0,0,1-2.724-1.26,5.234,5.234,0,0,1-.984-3.316Zm1.731.185a4.035,4.035,0,0,0,.588,2.307,2.054,2.054,0,0,0,1.827.865,2.293,2.293,0,0,0,1.3-.351,2.624,2.624,0,0,0,.86-.984V2276.5a2.669,2.669,0,0,0-.865-.936,2.3,2.3,0,0,0-1.279-.347,1.979,1.979,0,0,0-1.841,1.027,5.312,5.312,0,0,0-.593,2.671Z" transform="translate(-199.548 -2250.675)" fill="#073360"/>
      <path id="Trazado_191850" data-name="Trazado 191850" d="M290.821,2283.236a4.011,4.011,0,0,1-3.159-1.321,4.979,4.979,0,0,1-1.172-3.431v-.387a4.871,4.871,0,0,1,1.208-3.378,3.721,3.721,0,0,1,2.86-1.348,3.605,3.605,0,0,1,2.908,1.159,4.626,4.626,0,0,1,.984,3.093v1.081h-6.168l-.026.044a3.729,3.729,0,0,0,.694,2.247,2.209,2.209,0,0,0,1.871.881,4.362,4.362,0,0,0,1.542-.25,3.576,3.576,0,0,0,1.147-.689l.676,1.125a4.039,4.039,0,0,1-1.344.84A5.419,5.419,0,0,1,290.821,2283.236Zm-.263-8.5a1.88,1.88,0,0,0-1.486.731,3.465,3.465,0,0,0-.755,1.834l.017.044h4.385v-.227a2.643,2.643,0,0,0-.545-1.7A1.946,1.946,0,0,0,290.557,2274.732Z" transform="translate(-198.415 -2250.229)" fill="#073360"/>
      <path id="Trazado_191851" data-name="Trazado 191851" d="M301.127,2283.5H299.4v-13.705h1.731Z" transform="translate(-196.807 -2250.675)" fill="#073360"/>
      <path id="Trazado_191852" data-name="Trazado 191852" d="M305.111,2283.418H303.38v-9.506h1.731Zm-.026-12.993h2.021l.017.053-2.372,2.284h-1.292Z" transform="translate(-196.311 -2250.596)" fill="#073360"/>
      <path id="Trazado_191853" data-name="Trazado 191853" d="M308.871,2273.545l.124,1.415a3.468,3.468,0,0,1,1.19-1.173,3.183,3.183,0,0,1,1.631-.417,3.107,3.107,0,0,1,2.381.9,3.953,3.953,0,0,1,.843,2.78v6h-1.731v-5.965a2.573,2.573,0,0,0-.5-1.783,1.983,1.983,0,0,0-1.515-.527,2.444,2.444,0,0,0-1.322.36,2.642,2.642,0,0,0-.918.984v6.932h-1.732v-9.506Z" transform="translate(-195.82 -2250.229)" fill="#073360"/>
      <path id="Trazado_191854" data-name="Trazado 191854" d="M320.407,2283.236a4.011,4.011,0,0,1-3.159-1.321,4.98,4.98,0,0,1-1.173-3.431v-.387a4.872,4.872,0,0,1,1.209-3.378,3.719,3.719,0,0,1,2.86-1.348,3.605,3.605,0,0,1,2.908,1.159,4.626,4.626,0,0,1,.984,3.093v1.081h-6.168l-.026.044a3.728,3.728,0,0,0,.694,2.247,2.208,2.208,0,0,0,1.871.881,4.362,4.362,0,0,0,1.542-.25,3.576,3.576,0,0,0,1.147-.689l.676,1.125a4.038,4.038,0,0,1-1.344.84A5.419,5.419,0,0,1,320.407,2283.236Zm-.263-8.5a1.88,1.88,0,0,0-1.486.731,3.466,3.466,0,0,0-.756,1.834l.018.044H322.3v-.227a2.643,2.643,0,0,0-.545-1.7A1.945,1.945,0,0,0,320.144,2274.732Z" transform="translate(-194.73 -2250.229)" fill="#073360"/>
      <path id="Trazado_191855" data-name="Trazado 191855" d="M330.758,2283.051q-.088-.43-.136-.759a5.459,5.459,0,0,1-.056-.663,4.038,4.038,0,0,1-1.262,1.146,3.213,3.213,0,0,1-1.673.461,3.106,3.106,0,0,1-2.263-.759,2.8,2.8,0,0,1-.777-2.1,2.456,2.456,0,0,1,1.1-2.13,5.153,5.153,0,0,1,2.991-.769h1.88v-.94a1.745,1.745,0,0,0-.51-1.322,2,2,0,0,0-1.441-.488,2.084,2.084,0,0,0-1.357.426,1.282,1.282,0,0,0-.523,1.023h-1.651l-.018-.053a2.3,2.3,0,0,1,.979-1.9,4.025,4.025,0,0,1,2.666-.861,3.934,3.934,0,0,1,2.6.821,2.914,2.914,0,0,1,.984,2.368v4.577a8.675,8.675,0,0,0,.053.984,5.049,5.049,0,0,0,.192.931Zm-2.872-1.273a3.087,3.087,0,0,0,1.7-.482,2.292,2.292,0,0,0,.984-1.1v-1.542h-1.942a2.524,2.524,0,0,0-1.673.526,1.57,1.57,0,0,0-.629,1.236,1.291,1.291,0,0,0,.4,1A1.651,1.651,0,0,0,327.886,2281.778Z" transform="translate(-193.669 -2250.229)" fill="#073360"/>
      <path id="Trazado_191856" data-name="Trazado 191856" d="M339.236,2280.521a1.179,1.179,0,0,0-.435-.94,4.1,4.1,0,0,0-1.646-.641,6.937,6.937,0,0,1-2.606-1.021,2.072,2.072,0,0,1-.874-1.76,2.477,2.477,0,0,1,.984-1.973,4.478,4.478,0,0,1,5.206.036,2.524,2.524,0,0,1,.936,2.073l-.018.052h-1.652a1.514,1.514,0,0,0-.523-1.12,1.927,1.927,0,0,0-1.383-.5,2,2,0,0,0-1.371.4,1.273,1.273,0,0,0-.448.975,1.089,1.089,0,0,0,.395.888,4.082,4.082,0,0,0,1.608.579,6.955,6.955,0,0,1,2.68,1.05,2.119,2.119,0,0,1,.878,1.779,2.457,2.457,0,0,1-1.023,2.047,4.285,4.285,0,0,1-2.675.781,4.177,4.177,0,0,1-2.864-.922,2.632,2.632,0,0,1-.993-2.152l.018-.053h1.652a1.592,1.592,0,0,0,.685,1.343,2.662,2.662,0,0,0,1.5.423,2.443,2.443,0,0,0,1.445-.373A1.148,1.148,0,0,0,339.236,2280.521Z" transform="translate(-192.571 -2250.229)" fill="#073360"/>
      <path id="Trazado_191857" data-name="Trazado 191857" d="M345.669,2278.92a6.342,6.342,0,0,1,.979-3.7,3.158,3.158,0,0,1,2.746-1.406,3.425,3.425,0,0,1,1.48.307,3.056,3.056,0,0,1,1.1.9v-5.227h1.731V2283.5h-1.415l-.2-1.168a3.075,3.075,0,0,1-1.141,1.011,3.441,3.441,0,0,1-1.573.342,3.261,3.261,0,0,1-2.724-1.26,5.241,5.241,0,0,1-.984-3.316Zm1.731.185a4.035,4.035,0,0,0,.589,2.307,2.051,2.051,0,0,0,1.827.865,2.289,2.289,0,0,0,1.3-.351,2.636,2.636,0,0,0,.861-.984V2276.5a2.682,2.682,0,0,0-.866-.936,2.294,2.294,0,0,0-1.279-.347,1.978,1.978,0,0,0-1.84,1.027,5.3,5.3,0,0,0-.594,2.671Z" transform="translate(-191.044 -2250.675)" fill="#073360"/>
      <path id="Trazado_191858" data-name="Trazado 191858" d="M359.1,2283.236a4.007,4.007,0,0,1-3.158-1.321,4.975,4.975,0,0,1-1.173-3.431v-.387a4.876,4.876,0,0,1,1.208-3.378,3.72,3.72,0,0,1,2.86-1.348,3.6,3.6,0,0,1,2.908,1.159,4.626,4.626,0,0,1,.984,3.093v1.081h-6.167l-.027.044a3.736,3.736,0,0,0,.694,2.247,2.209,2.209,0,0,0,1.871.881,4.362,4.362,0,0,0,1.542-.25,3.576,3.576,0,0,0,1.147-.689l.677,1.125a4.055,4.055,0,0,1-1.345.84A5.419,5.419,0,0,1,359.1,2283.236Zm-.263-8.5a1.877,1.877,0,0,0-1.484.731,3.457,3.457,0,0,0-.756,1.834l.017.044H361v-.227a2.643,2.643,0,0,0-.545-1.7A1.945,1.945,0,0,0,358.839,2274.732Z" transform="translate(-189.911 -2250.229)" fill="#073360"/>
      <path id="Trazado_191859" data-name="Trazado 191859" d="M375.652,2278.659a5.24,5.24,0,0,1-.984,3.316,3.251,3.251,0,0,1-2.715,1.26,3.76,3.76,0,0,1-1.542-.293,2.934,2.934,0,0,1-1.129-.883v4.647h-1.731v-13.161h1.327l.272,1.23a3.154,3.154,0,0,1,1.159-1.046,3.473,3.473,0,0,1,1.617-.36,3.16,3.16,0,0,1,2.745,1.4,6.34,6.34,0,0,1,.979,3.7Zm-1.731-.189a5.016,5.016,0,0,0-.637-2.654,2.066,2.066,0,0,0-1.876-1.04,2.313,2.313,0,0,0-1.274.338,2.512,2.512,0,0,0-.852.926v4.589a2.439,2.439,0,0,0,.852.917,2.391,2.391,0,0,0,1.291.328,2.133,2.133,0,0,0,1.863-.9,3.947,3.947,0,0,0,.632-2.321Z" transform="translate(-188.319 -2250.229)" fill="#073360"/>
      <path id="Trazado_191860" data-name="Trazado 191860" d="M381.144,2275.075l-.887-.052a1.981,1.981,0,0,0-1.156.325,2.1,2.1,0,0,0-.724.913v6.791h-1.731v-9.506h1.546l.166,1.389a3.286,3.286,0,0,1,1-1.152,2.335,2.335,0,0,1,1.366-.413,2.28,2.28,0,0,1,.369.03,2.62,2.62,0,0,1,.29.066Z" transform="translate(-187.186 -2250.229)" fill="#073360"/>
      <path id="Trazado_191861" data-name="Trazado 191861" d="M381.615,2278.211a5.235,5.235,0,0,1,1.141-3.475,4.232,4.232,0,0,1,6.224,0,5.217,5.217,0,0,1,1.147,3.479v.193a5.205,5.205,0,0,1-1.143,3.478,4.252,4.252,0,0,1-6.224,0,5.194,5.194,0,0,1-1.146-3.474Zm1.731.189a4.492,4.492,0,0,0,.637,2.491,2.3,2.3,0,0,0,3.773,0,4.474,4.474,0,0,0,.642-2.491v-.194a4.47,4.47,0,0,0-.646-2.483,2.119,2.119,0,0,0-1.894-.992,2.088,2.088,0,0,0-1.876.992,4.506,4.506,0,0,0-.637,2.483Z" transform="translate(-186.567 -2250.229)" fill="#073360"/>
      <path id="Trazado_191862" data-name="Trazado 191862" d="M390.716,2278.92a6.342,6.342,0,0,1,.979-3.7,3.158,3.158,0,0,1,2.746-1.406,3.425,3.425,0,0,1,1.48.307,3.053,3.053,0,0,1,1.1.9v-5.227h1.732V2283.5h-1.415l-.2-1.168a3.07,3.07,0,0,1-1.143,1.011,3.433,3.433,0,0,1-1.572.342,3.261,3.261,0,0,1-2.724-1.26,5.241,5.241,0,0,1-.984-3.316Zm1.731.185a4.026,4.026,0,0,0,.589,2.307,2.051,2.051,0,0,0,1.827.865,2.289,2.289,0,0,0,1.3-.351,2.623,2.623,0,0,0,.86-.984V2276.5a2.668,2.668,0,0,0-.865-.936,2.3,2.3,0,0,0-1.279-.347,1.979,1.979,0,0,0-1.841,1.027,5.313,5.313,0,0,0-.593,2.671Z" transform="translate(-185.434 -2250.675)" fill="#073360"/>
      <path id="Trazado_191863" data-name="Trazado 191863" d="M406.2,2281.626a3.215,3.215,0,0,1-1.152,1.177,3.144,3.144,0,0,1-1.625.413,3.053,3.053,0,0,1-2.425-.992,4.605,4.605,0,0,1-.87-3.093v-5.606h1.731v5.623a3.534,3.534,0,0,0,.449,2.092,1.665,1.665,0,0,0,1.4.57,2.838,2.838,0,0,0,1.524-.374,2.333,2.333,0,0,0,.91-1.058v-6.853h1.731v9.506h-1.555Z" transform="translate(-184.262 -2250.21)" fill="#073360"/>
      <path id="Trazado_191864" data-name="Trazado 191864" d="M413.166,2281.874a2.333,2.333,0,0,0,1.515-.531,1.621,1.621,0,0,0,.654-1.3h1.555l.018.053a2.679,2.679,0,0,1-1.094,2.187,3.987,3.987,0,0,1-2.648.957,3.845,3.845,0,0,1-3.172-1.353,5.215,5.215,0,0,1-1.1-3.4v-.369a5.2,5.2,0,0,1,1.1-3.387,4.328,4.328,0,0,1,5.895-.373,3.063,3.063,0,0,1,1.024,2.415l-.018.053h-1.564a2.007,2.007,0,0,0-.615-1.48,2.117,2.117,0,0,0-1.554-.611,2.086,2.086,0,0,0-1.947.978,4.6,4.6,0,0,0-.584,2.4v.369a4.664,4.664,0,0,0,.579,2.426A2.09,2.09,0,0,0,413.166,2281.874Z" transform="translate(-183.17 -2250.229)" fill="#073360"/>
      <path id="Trazado_191865" data-name="Trazado 191865" d="M420.138,2271.487v2.293h1.8v1.283h-1.8v5.772a1.294,1.294,0,0,0,.277.94,1,1,0,0,0,.733.272,1.717,1.717,0,0,0,.329-.035,1.951,1.951,0,0,0,.32-.089l.228,1.186a1.517,1.517,0,0,1-.567.26,2.9,2.9,0,0,1-.751.1,2.239,2.239,0,0,1-1.678-.636,2.764,2.764,0,0,1-.623-2v-5.772H416.9v-1.283h1.511v-2.293Z" transform="translate(-182.173 -2250.464)" fill="#073360"/>
      <path id="Trazado_191866" data-name="Trazado 191866" d="M422.919,2278.211a5.235,5.235,0,0,1,1.143-3.475,3.829,3.829,0,0,1,3.1-1.366,3.868,3.868,0,0,1,3.123,1.362,5.217,5.217,0,0,1,1.147,3.479v.193a5.205,5.205,0,0,1-1.143,3.478,4.252,4.252,0,0,1-6.224,0,5.194,5.194,0,0,1-1.147-3.474Zm1.731.189a4.492,4.492,0,0,0,.638,2.491,2.3,2.3,0,0,0,3.773,0,4.474,4.474,0,0,0,.641-2.491v-.194a4.461,4.461,0,0,0-.645-2.483,2.117,2.117,0,0,0-1.893-.992,2.087,2.087,0,0,0-1.876.992,4.506,4.506,0,0,0-.638,2.483Z" transform="translate(-181.423 -2250.229)" fill="#073360"/>
      <path id="Trazado_191867" data-name="Trazado 191867" d="M437.931,2280.521a1.182,1.182,0,0,0-.434-.94,4.108,4.108,0,0,0-1.647-.641,6.936,6.936,0,0,1-2.606-1.021,2.072,2.072,0,0,1-.874-1.76,2.48,2.48,0,0,1,.984-1.973,4.478,4.478,0,0,1,5.206.036,2.521,2.521,0,0,1,.936,2.073l-.018.052h-1.651a1.518,1.518,0,0,0-.523-1.12,1.928,1.928,0,0,0-1.384-.5,2,2,0,0,0-1.37.4,1.271,1.271,0,0,0-.449.975,1.087,1.087,0,0,0,.4.888,4.075,4.075,0,0,0,1.607.579,6.947,6.947,0,0,1,2.68,1.05,2.116,2.116,0,0,1,.878,1.779,2.454,2.454,0,0,1-1.023,2.047,4.285,4.285,0,0,1-2.675.781,4.172,4.172,0,0,1-2.863-.922,2.625,2.625,0,0,1-.993-2.152l.017-.053h1.652a1.592,1.592,0,0,0,.685,1.343,2.664,2.664,0,0,0,1.5.423,2.449,2.449,0,0,0,1.446-.373A1.149,1.149,0,0,0,437.931,2280.521Z" transform="translate(-180.279 -2250.229)" fill="#073360"/>
      <path id="Trazado_191868" data-name="Trazado 191868" d="M448.7,2283.236a4.011,4.011,0,0,1-3.159-1.321,4.98,4.98,0,0,1-1.173-3.431v-.387a4.872,4.872,0,0,1,1.209-3.378,3.719,3.719,0,0,1,2.86-1.348,3.6,3.6,0,0,1,2.907,1.159,4.626,4.626,0,0,1,.984,3.093v1.081h-6.167l-.026.044a3.728,3.728,0,0,0,.694,2.247,2.208,2.208,0,0,0,1.871.881,4.371,4.371,0,0,0,1.542-.25,3.576,3.576,0,0,0,1.147-.689l.676,1.125a4.05,4.05,0,0,1-1.344.84A5.419,5.419,0,0,1,448.7,2283.236Zm-.263-8.5a1.879,1.879,0,0,0-1.486.731,3.457,3.457,0,0,0-.756,1.834l.018.044H450.6v-.227a2.642,2.642,0,0,0-.544-1.7A1.946,1.946,0,0,0,448.441,2274.732Z" transform="translate(-178.751 -2250.229)" fill="#073360"/>
      <path id="Trazado_191869" data-name="Trazado 191869" d="M454.723,2273.545l.123,1.415a3.472,3.472,0,0,1,1.191-1.173,3.176,3.176,0,0,1,1.629-.417,3.107,3.107,0,0,1,2.381.9,3.953,3.953,0,0,1,.843,2.78v6H459.16v-5.965a2.573,2.573,0,0,0-.5-1.783,1.988,1.988,0,0,0-1.516-.527,2.444,2.444,0,0,0-1.323.36,2.641,2.641,0,0,0-.918.984v6.932h-1.731v-9.506Z" transform="translate(-177.655 -2250.229)" fill="#073360"/>
      <path id="Trazado_191870" data-name="Trazado 191870" d="M470.235,2283.236a4.007,4.007,0,0,1-3.158-1.321,4.975,4.975,0,0,1-1.173-3.431v-.387a4.871,4.871,0,0,1,1.208-3.378,3.72,3.72,0,0,1,2.86-1.348,3.605,3.605,0,0,1,2.908,1.159,4.626,4.626,0,0,1,.984,3.093v1.081H467.7l-.026.044a3.735,3.735,0,0,0,.694,2.247,2.209,2.209,0,0,0,1.871.881,4.362,4.362,0,0,0,1.542-.25,3.576,3.576,0,0,0,1.147-.689l.676,1.125a4.038,4.038,0,0,1-1.344.84A5.419,5.419,0,0,1,470.235,2283.236Zm-.263-8.5a1.881,1.881,0,0,0-1.486.731,3.465,3.465,0,0,0-.755,1.834l.017.044h4.385v-.227a2.643,2.643,0,0,0-.545-1.7A1.946,1.946,0,0,0,469.971,2274.732Z" transform="translate(-176.07 -2250.229)" fill="#073360"/>
      <path id="Trazado_191871" data-name="Trazado 191871" d="M476.564,2283.5h-1.731v-13.705h1.731Z" transform="translate(-174.958 -2250.675)" fill="#073360"/>
      <path id="Trazado_191872" data-name="Trazado 191872" d="M488.275,2280.521a1.179,1.179,0,0,0-.435-.94,4.1,4.1,0,0,0-1.646-.641,6.937,6.937,0,0,1-2.606-1.021,2.072,2.072,0,0,1-.874-1.76,2.477,2.477,0,0,1,.984-1.973,4.478,4.478,0,0,1,5.206.036,2.524,2.524,0,0,1,.936,2.073l-.018.052H488.17a1.516,1.516,0,0,0-.522-1.12,1.932,1.932,0,0,0-1.384-.5,2,2,0,0,0-1.371.4,1.273,1.273,0,0,0-.448.975,1.089,1.089,0,0,0,.395.888,4.082,4.082,0,0,0,1.608.579,6.947,6.947,0,0,1,2.68,1.05,2.119,2.119,0,0,1,.878,1.779,2.456,2.456,0,0,1-1.023,2.047,4.285,4.285,0,0,1-2.675.781,4.177,4.177,0,0,1-2.864-.922,2.632,2.632,0,0,1-.993-2.152l.018-.053h1.652a1.592,1.592,0,0,0,.685,1.343,2.662,2.662,0,0,0,1.5.423,2.442,2.442,0,0,0,1.445-.373A1.148,1.148,0,0,0,488.275,2280.521Z" transform="translate(-174.009 -2250.229)" fill="#073360"/>
      <path id="Trazado_191873" data-name="Trazado 191873" d="M497.122,2281.626a3.2,3.2,0,0,1-1.15,1.177,3.144,3.144,0,0,1-1.625.413,3.057,3.057,0,0,1-2.426-.992,4.611,4.611,0,0,1-.869-3.093v-5.606h1.731v5.623a3.534,3.534,0,0,0,.449,2.092,1.664,1.664,0,0,0,1.4.57,2.837,2.837,0,0,0,1.524-.374,2.333,2.333,0,0,0,.91-1.058v-6.853h1.731v9.506h-1.555Z" transform="translate(-172.938 -2250.21)" fill="#073360"/>
      <path id="Trazado_191874" data-name="Trazado 191874" d="M504.675,2275.075l-.887-.052a1.977,1.977,0,0,0-1.155.325,2.091,2.091,0,0,0-.725.913v6.791h-1.731v-9.506h1.546l.166,1.389a3.308,3.308,0,0,1,1-1.152,2.34,2.34,0,0,1,1.366-.413,2.27,2.27,0,0,1,.369.03,2.621,2.621,0,0,1,.29.066Z" transform="translate(-171.801 -2250.229)" fill="#073360"/>
      <path id="Trazado_191875" data-name="Trazado 191875" d="M508.184,2271.487v2.293h1.8v1.283h-1.8v5.772a1.289,1.289,0,0,0,.278.94,1,1,0,0,0,.733.272,1.718,1.718,0,0,0,.33-.035,1.953,1.953,0,0,0,.32-.089l.228,1.186a1.535,1.535,0,0,1-.567.26,2.9,2.9,0,0,1-.751.1,2.238,2.238,0,0,1-1.678-.636,2.764,2.764,0,0,1-.624-2v-5.772h-1.51v-1.283h1.51v-2.293Z" transform="translate(-171.208 -2250.464)" fill="#073360"/>
      <path id="Trazado_191876" data-name="Trazado 191876" d="M513.182,2271.558H511.45v-1.766h1.732Zm0,11.939H511.45v-9.506h1.732Z" transform="translate(-170.397 -2250.675)" fill="#073360"/>
      <path id="Trazado_191877" data-name="Trazado 191877" d="M515.005,2278.92a6.341,6.341,0,0,1,.979-3.7,3.158,3.158,0,0,1,2.746-1.406,3.425,3.425,0,0,1,1.48.307,3.056,3.056,0,0,1,1.1.9v-5.227h1.731V2283.5H521.63l-.2-1.168a3.069,3.069,0,0,1-1.142,1.011,3.433,3.433,0,0,1-1.572.342,3.261,3.261,0,0,1-2.724-1.26,5.241,5.241,0,0,1-.984-3.316Zm1.731.185a4.035,4.035,0,0,0,.589,2.307,2.051,2.051,0,0,0,1.827.865,2.289,2.289,0,0,0,1.3-.351,2.635,2.635,0,0,0,.861-.984V2276.5a2.682,2.682,0,0,0-.866-.936,2.293,2.293,0,0,0-1.279-.347,1.978,1.978,0,0,0-1.84,1.027,5.3,5.3,0,0,0-.594,2.671Z" transform="translate(-169.955 -2250.675)" fill="#073360"/>
      <path id="Trazado_191878" data-name="Trazado 191878" d="M524.091,2278.211a5.229,5.229,0,0,1,1.143-3.475,3.828,3.828,0,0,1,3.1-1.366,3.869,3.869,0,0,1,3.123,1.362,5.216,5.216,0,0,1,1.146,3.479v.193a5.2,5.2,0,0,1-1.141,3.478,4.252,4.252,0,0,1-6.224,0,5.194,5.194,0,0,1-1.147-3.474Zm1.731.189a4.492,4.492,0,0,0,.638,2.491,2.3,2.3,0,0,0,3.773,0,4.473,4.473,0,0,0,.641-2.491v-.194a4.46,4.46,0,0,0-.646-2.483,2.117,2.117,0,0,0-1.893-.992,2.087,2.087,0,0,0-1.876.992,4.506,4.506,0,0,0-.638,2.483Z" transform="translate(-168.823 -2250.229)" fill="#073360"/>
    </g>
    <rect id="Rectángulo_24502" data-name="Rectángulo 24502" width="1030" height="114.997" transform="translate(183.405 2351.135)" fill="url(#linear-gradient)"/>
    <g id="Grupo_84997" data-name="Grupo 84997" transform="translate(212.343 2390.998)">
      <path id="Trazado_191879" data-name="Trazado 191879" d="M211.7,2380.964v4.639h-2.565v-12.792h5.1a5.042,5.042,0,0,1,3.47,1.125,4.087,4.087,0,0,1,0,5.913,5.062,5.062,0,0,1-3.47,1.115Zm0-1.976h2.53a2.135,2.135,0,0,0,1.626-.585,2.077,2.077,0,0,0,.553-1.489,2.176,2.176,0,0,0-.55-1.525,2.1,2.1,0,0,0-1.629-.6H211.7Z" transform="translate(-209.138 -2371.713)" fill="#073360"/>
      <path id="Trazado_191880" data-name="Trazado 191880" d="M224.372,2377.958l-.94-.026a1.7,1.7,0,0,0-.94.238,1.5,1.5,0,0,0-.562.667v6.422h-2.557v-9.506h2.382l.114,1.406a3,3,0,0,1,.866-1.164,1.929,1.929,0,0,1,1.225-.417,2.038,2.038,0,0,1,.356.031c.108.021.218.046.329.075Z" transform="translate(-207.863 -2371.369)" fill="#073360"/>
      <path id="Trazado_191881" data-name="Trazado 191881" d="M224.622,2380.418a5.1,5.1,0,0,1,1.186-3.484,4.133,4.133,0,0,1,3.286-1.357,4.177,4.177,0,0,1,3.3,1.353,5.078,5.078,0,0,1,1.2,3.488v.184a5.078,5.078,0,0,1-1.191,3.492,4.7,4.7,0,0,1-6.589,0,5.078,5.078,0,0,1-1.191-3.492Zm2.557.18a4.117,4.117,0,0,0,.457,2.083,1.577,1.577,0,0,0,1.477.786,1.559,1.559,0,0,0,1.453-.791,4.08,4.08,0,0,0,.462-2.078v-.185a4.068,4.068,0,0,0-.466-2.061,1.578,1.578,0,0,0-1.468-.8,1.555,1.555,0,0,0-1.454.8,4.082,4.082,0,0,0-.461,2.057Z" transform="translate(-207.21 -2371.369)" fill="#073360"/>
      <path id="Trazado_191882" data-name="Trazado 191882" d="M234.756,2385.724v-7.7h-1.415v-1.8h1.415v-1.054a3.219,3.219,0,0,1,.922-2.465,3.648,3.648,0,0,1,2.592-.865,4.666,4.666,0,0,1,.663.048q.337.049.742.136l-.219,1.906c-.141-.022-.278-.044-.409-.061a3.482,3.482,0,0,0-.461-.027,1.233,1.233,0,0,0-.945.343,1.389,1.389,0,0,0-.32.984v1.054h1.889v1.8h-1.889v7.7Z" transform="translate(-206.124 -2371.835)" fill="#073360"/>
      <path id="Trazado_191883" data-name="Trazado 191883" d="M245.538,2383.869a3.189,3.189,0,0,1-1.116,1.15,3.293,3.293,0,0,1-3.906-.558,4.436,4.436,0,0,1-.848-2.991v-5.737h2.557v5.768a2.468,2.468,0,0,0,.351,1.492,1.228,1.228,0,0,0,1.037.454,2.566,2.566,0,0,0,1.055-.2,1.772,1.772,0,0,0,.72-.586v-6.93h2.565v9.506h-2.187Z" transform="translate(-205.336 -2371.35)" fill="#073360"/>
      <path id="Trazado_191884" data-name="Trazado 191884" d="M251.106,2375.752l.115,1.362a3.5,3.5,0,0,1,1.168-1.134,3.037,3.037,0,0,1,1.555-.4,2.863,2.863,0,0,1,2.249.906,4.18,4.18,0,0,1,.807,2.837v5.939h-2.574v-5.943a1.934,1.934,0,0,0-.387-1.361,1.557,1.557,0,0,0-1.168-.4,1.966,1.966,0,0,0-.913.207,1.861,1.861,0,0,0-.677.586v6.912h-2.565v-9.506Z" transform="translate(-204.209 -2371.369)" fill="#073360"/>
      <path id="Trazado_191885" data-name="Trazado 191885" d="M257.435,2381.031a6.173,6.173,0,0,1,.97-3.628,3.152,3.152,0,0,1,2.737-1.38,2.676,2.676,0,0,1,1.282.307,3.1,3.1,0,0,1,1,.879V2372H266v13.7H263.8l-.21-1.159a3.149,3.149,0,0,1-1.059,1,2.812,2.812,0,0,1-1.4.342,3.211,3.211,0,0,1-2.719-1.282,5.474,5.474,0,0,1-.97-3.392Zm2.556.187a3.912,3.912,0,0,0,.422,1.975,1.466,1.466,0,0,0,1.371.721,1.984,1.984,0,0,0,.966-.226,1.789,1.789,0,0,0,.677-.658v-4.075a2,2,0,0,0-.672-.7,1.78,1.78,0,0,0-.953-.252,1.447,1.447,0,0,0-1.375.84,4.765,4.765,0,0,0-.435,2.192Z" transform="translate(-203.123 -2371.815)" fill="#073360"/>
      <path id="Trazado_191886" data-name="Trazado 191886" d="M269.5,2373.923h-2.565V2372H269.5Zm0,11.781h-2.565V2376.2H269.5Z" transform="translate(-201.94 -2371.815)" fill="#073360"/>
      <path id="Trazado_191887" data-name="Trazado 191887" d="M270.74,2381.031a6.173,6.173,0,0,1,.97-3.628,3.152,3.152,0,0,1,2.736-1.38,2.68,2.68,0,0,1,1.283.307,3.121,3.121,0,0,1,1,.879V2372h2.574v13.7H277.1l-.211-1.159a3.136,3.136,0,0,1-1.058,1,2.812,2.812,0,0,1-1.4.342,3.211,3.211,0,0,1-2.719-1.282,5.474,5.474,0,0,1-.97-3.392Zm2.556.187a3.912,3.912,0,0,0,.422,1.975,1.464,1.464,0,0,0,1.371.721,1.984,1.984,0,0,0,.966-.226,1.8,1.8,0,0,0,.677-.658v-4.075a2.006,2.006,0,0,0-.672-.7,1.782,1.782,0,0,0-.954-.252,1.445,1.445,0,0,0-1.374.84,4.765,4.765,0,0,0-.435,2.192Z" transform="translate(-201.466 -2371.815)" fill="#073360"/>
      <path id="Trazado_191888" data-name="Trazado 191888" d="M285.756,2385.258a5.4,5.4,0,0,1-.242-.685,4.6,4.6,0,0,1-.144-.738,3.52,3.52,0,0,1-1.041,1.151,2.6,2.6,0,0,1-1.542.457,3.207,3.207,0,0,1-2.3-.768,2.748,2.748,0,0,1-.809-2.095,2.507,2.507,0,0,1,1.076-2.166,5.382,5.382,0,0,1,3.141-.769h1.432v-.756a1.479,1.479,0,0,0-.36-1.063,1.681,1.681,0,0,0-2.025-.074,1.068,1.068,0,0,0-.337.839l-2.478-.009-.008-.053a2.415,2.415,0,0,1,1.045-2.078,4.566,4.566,0,0,1,2.908-.874,4.244,4.244,0,0,1,2.768.866,3,3,0,0,1,1.064,2.464v3.927a7.4,7.4,0,0,0,.1,1.256,6.208,6.208,0,0,0,.322,1.168Zm-2.346-1.713a2.2,2.2,0,0,0,1.2-.334,1.733,1.733,0,0,0,.711-.772v-1.345h-1.432a1.711,1.711,0,0,0-1.239.409,1.325,1.325,0,0,0-.422.988.986.986,0,0,0,.317.765A1.222,1.222,0,0,0,283.41,2383.546Z" transform="translate(-200.353 -2371.369)" fill="#073360"/>
      <path id="Trazado_191889" data-name="Trazado 191889" d="M288.365,2381.031a6.173,6.173,0,0,1,.97-3.628,3.152,3.152,0,0,1,2.736-1.38,2.68,2.68,0,0,1,1.283.307,3.122,3.122,0,0,1,1,.879V2372h2.574v13.7h-2.205l-.211-1.159a3.136,3.136,0,0,1-1.058,1,2.812,2.812,0,0,1-1.4.342,3.211,3.211,0,0,1-2.719-1.282,5.474,5.474,0,0,1-.97-3.392Zm2.556.187a3.911,3.911,0,0,0,.422,1.975,1.464,1.464,0,0,0,1.371.721,1.984,1.984,0,0,0,.966-.226,1.8,1.8,0,0,0,.677-.658v-4.075a2.006,2.006,0,0,0-.672-.7,1.782,1.782,0,0,0-.954-.252,1.445,1.445,0,0,0-1.374.84,4.765,4.765,0,0,0-.435,2.192Z" transform="translate(-199.271 -2371.815)" fill="#073360"/>
      <path id="Trazado_191890" data-name="Trazado 191890" d="M300.563,2377.592H298v-2.249h2.566Zm0,7.7H298v-2.249h2.566Z" transform="translate(-198.071 -2371.398)" fill="#073360"/>
      <path id="Trazado_191891" data-name="Trazado 191891" d="M219.154,2402.6h-1.731l-6.158-9.892-.053.017v9.875h-1.731v-12.792h1.731l6.158,9.876.053-.018v-9.858h1.731Z" transform="translate(-209.095 -2369.596)" fill="#073360"/>
      <path id="Trazado_191892" data-name="Trazado 191892" d="M226.646,2401.219a3.206,3.206,0,0,1-1.152,1.177,3.144,3.144,0,0,1-1.625.413,3.052,3.052,0,0,1-2.425-.992,4.606,4.606,0,0,1-.87-3.093v-5.606h1.732v5.623a3.535,3.535,0,0,0,.448,2.092,1.665,1.665,0,0,0,1.4.57,2.844,2.844,0,0,0,1.525-.373,2.331,2.331,0,0,0,.909-1.059v-6.853h1.731v9.506H226.76Zm-1.362-11.587h2.021l.017.053-2.372,2.284H223.66Z" transform="translate(-207.714 -2369.618)" fill="#073360"/>
      <path id="Trazado_191893" data-name="Trazado 191893" d="M231.246,2392.752l.124,1.248a3.231,3.231,0,0,1,1.182-1.05,3.553,3.553,0,0,1,1.664-.374,2.943,2.943,0,0,1,1.629.44,2.651,2.651,0,0,1,1.023,1.318,3.537,3.537,0,0,1,1.186-1.283,3.118,3.118,0,0,1,1.722-.475,2.845,2.845,0,0,1,2.293,1,4.556,4.556,0,0,1,.843,3v5.683h-1.731v-5.7a3.163,3.163,0,0,0-.482-1.99,1.766,1.766,0,0,0-1.442-.585,1.835,1.835,0,0,0-1.436.615,2.674,2.674,0,0,0-.646,1.555v6.105h-1.74v-5.7a3.12,3.12,0,0,0-.5-1.955,1.726,1.726,0,0,0-1.428-.62,2.384,2.384,0,0,0-1.3.325,2.1,2.1,0,0,0-.782.914v7.036H229.7v-9.506Z" transform="translate(-206.577 -2369.252)" fill="#073360"/>
      <path id="Trazado_191894" data-name="Trazado 191894" d="M247.673,2402.443a4.008,4.008,0,0,1-3.159-1.322,4.98,4.98,0,0,1-1.173-3.431v-.387a4.877,4.877,0,0,1,1.208-3.378,3.723,3.723,0,0,1,2.86-1.348,3.6,3.6,0,0,1,2.908,1.159,4.625,4.625,0,0,1,.984,3.093v1.081h-6.167l-.027.044a3.736,3.736,0,0,0,.695,2.247,2.209,2.209,0,0,0,1.871.882,4.375,4.375,0,0,0,1.542-.25,3.559,3.559,0,0,0,1.146-.689l.677,1.125a4.047,4.047,0,0,1-1.344.84A5.428,5.428,0,0,1,247.673,2402.443Zm-.264-8.5a1.877,1.877,0,0,0-1.484.731,3.456,3.456,0,0,0-.756,1.834l.018.043h4.383v-.227a2.641,2.641,0,0,0-.544-1.7A1.946,1.946,0,0,0,247.408,2393.939Z" transform="translate(-204.878 -2369.252)" fill="#073360"/>
      <path id="Trazado_191895" data-name="Trazado 191895" d="M256.644,2394.282l-.887-.053a1.983,1.983,0,0,0-1.156.325,2.1,2.1,0,0,0-.724.913v6.791h-1.731v-9.506h1.546l.166,1.389a3.286,3.286,0,0,1,1-1.152,2.335,2.335,0,0,1,1.366-.413,2.28,2.28,0,0,1,.369.031,2.62,2.62,0,0,1,.29.066Z" transform="translate(-203.782 -2369.252)" fill="#073360"/>
      <path id="Trazado_191896" data-name="Trazado 191896" d="M257.115,2397.418a5.234,5.234,0,0,1,1.141-3.475,4.232,4.232,0,0,1,6.224,0,5.217,5.217,0,0,1,1.147,3.479v.193a5.205,5.205,0,0,1-1.143,3.478,4.251,4.251,0,0,1-6.224,0,5.194,5.194,0,0,1-1.146-3.474Zm1.731.189a4.49,4.49,0,0,0,.637,2.491,2.3,2.3,0,0,0,3.773,0,4.473,4.473,0,0,0,.642-2.491v-.194a4.469,4.469,0,0,0-.645-2.483,2.119,2.119,0,0,0-1.894-.992,2.088,2.088,0,0,0-1.876.992,4.505,4.505,0,0,0-.637,2.483Z" transform="translate(-203.163 -2369.252)" fill="#073360"/>
      <path id="Trazado_191897" data-name="Trazado 191897" d="M270.193,2398.127a6.344,6.344,0,0,1,.979-3.7,3.155,3.155,0,0,1,2.745-1.406,3.423,3.423,0,0,1,1.481.307,3.061,3.061,0,0,1,1.1.9V2389h1.731v13.7h-1.415l-.2-1.168a3.078,3.078,0,0,1-1.143,1.011,3.434,3.434,0,0,1-1.572.342,3.259,3.259,0,0,1-2.724-1.261,5.233,5.233,0,0,1-.984-3.316Zm1.731.184a4.034,4.034,0,0,0,.588,2.307,2.053,2.053,0,0,0,1.827.865,2.287,2.287,0,0,0,1.3-.351,2.618,2.618,0,0,0,.861-.984v-4.436a2.672,2.672,0,0,0-.866-.936,2.293,2.293,0,0,0-1.277-.347,1.979,1.979,0,0,0-1.841,1.028,5.3,5.3,0,0,0-.593,2.671Z" transform="translate(-201.534 -2369.697)" fill="#073360"/>
      <path id="Trazado_191898" data-name="Trazado 191898" d="M283.626,2402.443a4.01,4.01,0,0,1-3.159-1.322,4.98,4.98,0,0,1-1.173-3.431v-.387a4.877,4.877,0,0,1,1.208-3.378,3.723,3.723,0,0,1,2.86-1.348,3.6,3.6,0,0,1,2.908,1.159,4.625,4.625,0,0,1,.984,3.093v1.081h-6.167l-.026.044a3.728,3.728,0,0,0,.694,2.247,2.209,2.209,0,0,0,1.871.882,4.375,4.375,0,0,0,1.542-.25,3.559,3.559,0,0,0,1.146-.689l.677,1.125a4.046,4.046,0,0,1-1.344.84A5.424,5.424,0,0,1,283.626,2402.443Zm-.264-8.5a1.877,1.877,0,0,0-1.484.731,3.456,3.456,0,0,0-.756,1.834l.018.043h4.383v-.227a2.641,2.641,0,0,0-.544-1.7A1.946,1.946,0,0,0,283.362,2393.939Z" transform="translate(-200.401 -2369.252)" fill="#073360"/>
      <path id="Trazado_191899" data-name="Trazado 191899" d="M296.573,2394.282l-.887-.053a1.979,1.979,0,0,0-1.155.325,2.081,2.081,0,0,0-.724.913v6.791h-1.732v-9.506h1.546l.168,1.389a3.287,3.287,0,0,1,1-1.152,2.334,2.334,0,0,1,1.365-.413,2.283,2.283,0,0,1,.37.031,2.537,2.537,0,0,1,.289.066Z" transform="translate(-198.809 -2369.252)" fill="#073360"/>
      <path id="Trazado_191900" data-name="Trazado 191900" d="M301.4,2402.443a4.007,4.007,0,0,1-3.158-1.322,4.975,4.975,0,0,1-1.173-3.431v-.387a4.877,4.877,0,0,1,1.208-3.378,3.721,3.721,0,0,1,2.86-1.348,3.6,3.6,0,0,1,2.908,1.159,4.625,4.625,0,0,1,.984,3.093v1.081h-6.168l-.026.044a3.735,3.735,0,0,0,.694,2.247,2.211,2.211,0,0,0,1.871.882,4.367,4.367,0,0,0,1.542-.25,3.576,3.576,0,0,0,1.147-.689l.676,1.125a4.035,4.035,0,0,1-1.344.84A5.424,5.424,0,0,1,301.4,2402.443Zm-.263-8.5a1.876,1.876,0,0,0-1.484.731,3.456,3.456,0,0,0-.756,1.834l.017.043H303.3v-.227a2.642,2.642,0,0,0-.545-1.7A1.946,1.946,0,0,0,301.135,2393.939Z" transform="translate(-198.187 -2369.252)" fill="#073360"/>
      <path id="Trazado_191901" data-name="Trazado 191901" d="M306.677,2402.724V2394.5h-1.484v-1.283h1.484v-1.2a3.261,3.261,0,0,1,.8-2.35,2.927,2.927,0,0,1,2.219-.83,3.8,3.8,0,0,1,.6.048c.2.033.426.078.671.136l-.21,1.318c-.106-.024-.233-.044-.382-.062a3.974,3.974,0,0,0-.47-.026,1.366,1.366,0,0,0-1.125.452,2.035,2.035,0,0,0-.369,1.313v1.2h1.977v1.283h-1.977v8.223Z" transform="translate(-197.175 -2369.718)" fill="#073360"/>
      <path id="Trazado_191902" data-name="Trazado 191902" d="M315.2,2402.443a4.011,4.011,0,0,1-3.159-1.322,4.979,4.979,0,0,1-1.172-3.431v-.387a4.872,4.872,0,0,1,1.208-3.378,3.721,3.721,0,0,1,2.86-1.348,3.6,3.6,0,0,1,2.908,1.159,4.625,4.625,0,0,1,.984,3.093v1.081h-6.168l-.026.044a3.728,3.728,0,0,0,.694,2.247,2.211,2.211,0,0,0,1.871.882,4.366,4.366,0,0,0,1.542-.25,3.576,3.576,0,0,0,1.147-.689l.676,1.125a4.035,4.035,0,0,1-1.344.84A5.424,5.424,0,0,1,315.2,2402.443Zm-.263-8.5a1.879,1.879,0,0,0-1.486.731,3.464,3.464,0,0,0-.755,1.834l.017.043h4.385v-.227a2.642,2.642,0,0,0-.545-1.7A1.946,1.946,0,0,0,314.932,2393.939Z" transform="translate(-196.469 -2369.252)" fill="#073360"/>
      <path id="Trazado_191903" data-name="Trazado 191903" d="M324.167,2394.282l-.887-.053a1.979,1.979,0,0,0-1.155.325,2.091,2.091,0,0,0-.725.913v6.791h-1.731v-9.506h1.546l.168,1.389a3.3,3.3,0,0,1,1-1.152,2.34,2.34,0,0,1,1.366-.413,2.269,2.269,0,0,1,.369.031,2.617,2.617,0,0,1,.29.066Z" transform="translate(-195.372 -2369.252)" fill="#073360"/>
      <path id="Trazado_191904" data-name="Trazado 191904" d="M328.993,2402.443a4.011,4.011,0,0,1-3.159-1.322,4.98,4.98,0,0,1-1.173-3.431v-.387a4.873,4.873,0,0,1,1.209-3.378,3.72,3.72,0,0,1,2.86-1.348,3.6,3.6,0,0,1,2.908,1.159,4.625,4.625,0,0,1,.984,3.093v1.081h-6.168l-.026.044a3.728,3.728,0,0,0,.694,2.247,2.209,2.209,0,0,0,1.871.882,4.375,4.375,0,0,0,1.542-.25,3.576,3.576,0,0,0,1.147-.689l.676,1.125a4.046,4.046,0,0,1-1.344.84A5.424,5.424,0,0,1,328.993,2402.443Zm-.263-8.5a1.879,1.879,0,0,0-1.486.731,3.464,3.464,0,0,0-.756,1.834l.018.043h4.383v-.227a2.641,2.641,0,0,0-.544-1.7A1.946,1.946,0,0,0,328.73,2393.939Z" transform="translate(-194.75 -2369.252)" fill="#073360"/>
      <path id="Trazado_191905" data-name="Trazado 191905" d="M335.012,2392.752l.123,1.415a3.47,3.47,0,0,1,1.191-1.173,3.177,3.177,0,0,1,1.629-.417,3.107,3.107,0,0,1,2.381.9,3.953,3.953,0,0,1,.843,2.78v6h-1.731v-5.965a2.574,2.574,0,0,0-.5-1.784,1.987,1.987,0,0,0-1.516-.527,2.438,2.438,0,0,0-1.321.36,2.635,2.635,0,0,0-.919.984v6.932h-1.731v-9.506Z" transform="translate(-193.654 -2369.252)" fill="#073360"/>
      <path id="Trazado_191906" data-name="Trazado 191906" d="M346.47,2401.082a2.335,2.335,0,0,0,1.516-.532,1.621,1.621,0,0,0,.654-1.3H350.2l.017.053a2.677,2.677,0,0,1-1.093,2.187,3.989,3.989,0,0,1-2.649.957,3.845,3.845,0,0,1-3.171-1.353,5.216,5.216,0,0,1-1.1-3.4v-.369a5.2,5.2,0,0,1,1.1-3.387,4.327,4.327,0,0,1,5.895-.373,3.059,3.059,0,0,1,1.023,2.416l-.017.053H348.64a2.012,2.012,0,0,0-.615-1.48,2.122,2.122,0,0,0-1.555-.611,2.085,2.085,0,0,0-1.945.978,4.6,4.6,0,0,0-.585,2.4v.369a4.654,4.654,0,0,0,.58,2.426A2.09,2.09,0,0,0,346.47,2401.082Z" transform="translate(-192.566 -2369.252)" fill="#073360"/>
      <path id="Trazado_191907" data-name="Trazado 191907" d="M352.908,2390.765h-1.731V2389h1.731Zm0,11.939h-1.731V2393.2h1.731Z" transform="translate(-191.448 -2369.697)" fill="#073360"/>
      <path id="Trazado_191908" data-name="Trazado 191908" d="M360.962,2402.258c-.06-.286-.1-.54-.137-.759a5.7,5.7,0,0,1-.056-.664,4.035,4.035,0,0,1-1.261,1.146,3.217,3.217,0,0,1-1.674.461,3.1,3.1,0,0,1-2.261-.759,2.8,2.8,0,0,1-.778-2.1,2.456,2.456,0,0,1,1.1-2.13,5.152,5.152,0,0,1,2.991-.769h1.88v-.94a1.748,1.748,0,0,0-.509-1.322,2,2,0,0,0-1.442-.488,2.084,2.084,0,0,0-1.357.426,1.284,1.284,0,0,0-.523,1.023h-1.651l-.018-.052a2.3,2.3,0,0,1,.979-1.9,4.028,4.028,0,0,1,2.666-.862,3.935,3.935,0,0,1,2.6.821,2.915,2.915,0,0,1,.984,2.368v4.577a8.689,8.689,0,0,0,.053.984,4.949,4.949,0,0,0,.193.931Zm-2.873-1.273a3.091,3.091,0,0,0,1.7-.482,2.294,2.294,0,0,0,.984-1.1v-1.542h-1.942a2.525,2.525,0,0,0-1.673.526,1.57,1.57,0,0,0-.629,1.236,1.292,1.292,0,0,0,.4,1A1.651,1.651,0,0,0,358.089,2400.985Z" transform="translate(-190.998 -2369.252)" fill="#073360"/>
      <path id="Trazado_191909" data-name="Trazado 191909" d="M369.439,2399.728a1.181,1.181,0,0,0-.435-.94,4.1,4.1,0,0,0-1.646-.641,6.928,6.928,0,0,1-2.606-1.021,2.072,2.072,0,0,1-.874-1.76,2.476,2.476,0,0,1,.984-1.972,4.476,4.476,0,0,1,5.206.036A2.524,2.524,0,0,1,371,2395.5l-.018.052h-1.652a1.516,1.516,0,0,0-.522-1.12,1.93,1.93,0,0,0-1.384-.5,2,2,0,0,0-1.371.4,1.274,1.274,0,0,0-.448.976,1.084,1.084,0,0,0,.4.887,4.064,4.064,0,0,0,1.607.579,6.944,6.944,0,0,1,2.68,1.05,2.115,2.115,0,0,1,.878,1.779,2.454,2.454,0,0,1-1.023,2.047,4.286,4.286,0,0,1-2.675.782,4.179,4.179,0,0,1-2.864-.922,2.628,2.628,0,0,1-.992-2.152l.017-.053h1.652a1.592,1.592,0,0,0,.685,1.343,2.655,2.655,0,0,0,1.5.424,2.441,2.441,0,0,0,1.445-.375A1.148,1.148,0,0,0,369.439,2399.728Z" transform="translate(-189.899 -2369.252)" fill="#073360"/>
      <path id="Trazado_191910" data-name="Trazado 191910" d="M375.872,2398.127a6.344,6.344,0,0,1,.979-3.7,3.158,3.158,0,0,1,2.746-1.406,3.422,3.422,0,0,1,1.48.307,3.055,3.055,0,0,1,1.1.9V2389h1.731v13.7H382.5l-.2-1.168a3.067,3.067,0,0,1-1.141,1.011,3.441,3.441,0,0,1-1.573.342,3.261,3.261,0,0,1-2.724-1.261,5.24,5.24,0,0,1-.984-3.316Zm1.731.184a4.034,4.034,0,0,0,.589,2.307,2.051,2.051,0,0,0,1.827.865,2.286,2.286,0,0,0,1.3-.351,2.627,2.627,0,0,0,.861-.984v-4.436a2.682,2.682,0,0,0-.866-.936,2.294,2.294,0,0,0-1.279-.347,1.978,1.978,0,0,0-1.84,1.028,5.3,5.3,0,0,0-.594,2.671Z" transform="translate(-188.372 -2369.697)" fill="#073360"/>
      <path id="Trazado_191911" data-name="Trazado 191911" d="M389.3,2402.443a4.007,4.007,0,0,1-3.158-1.322,4.98,4.98,0,0,1-1.173-3.431v-.387a4.877,4.877,0,0,1,1.208-3.378,3.723,3.723,0,0,1,2.86-1.348,3.6,3.6,0,0,1,2.908,1.159,4.625,4.625,0,0,1,.984,3.093v1.081h-6.167l-.027.044a3.735,3.735,0,0,0,.694,2.247,2.212,2.212,0,0,0,1.871.882,4.377,4.377,0,0,0,1.543-.25,3.571,3.571,0,0,0,1.146-.689l.677,1.125a4.052,4.052,0,0,1-1.345.84A5.42,5.42,0,0,1,389.3,2402.443Zm-.263-8.5a1.876,1.876,0,0,0-1.484.731,3.456,3.456,0,0,0-.756,1.834l.018.043H391.2v-.227a2.647,2.647,0,0,0-.544-1.7A1.949,1.949,0,0,0,389.042,2393.939Z" transform="translate(-187.239 -2369.252)" fill="#073360"/>
      <path id="Trazado_191912" data-name="Trazado 191912" d="M399.611,2402.7H397.88V2389h1.731Z" transform="translate(-185.631 -2369.697)" fill="#073360"/>
      <path id="Trazado_191913" data-name="Trazado 191913" d="M407.665,2402.258c-.06-.286-.1-.54-.136-.759a5.475,5.475,0,0,1-.057-.664,4.035,4.035,0,0,1-1.261,1.146,3.217,3.217,0,0,1-1.674.461,3.1,3.1,0,0,1-2.261-.759,2.8,2.8,0,0,1-.778-2.1,2.456,2.456,0,0,1,1.1-2.13,5.152,5.152,0,0,1,2.991-.769h1.88v-.94a1.748,1.748,0,0,0-.509-1.322,2,2,0,0,0-1.442-.488,2.084,2.084,0,0,0-1.357.426,1.283,1.283,0,0,0-.522,1.023H401.99l-.018-.052a2.3,2.3,0,0,1,.979-1.9,4.028,4.028,0,0,1,2.666-.862,3.935,3.935,0,0,1,2.6.821,2.915,2.915,0,0,1,.984,2.368v4.577a8.952,8.952,0,0,0,.053.984,4.949,4.949,0,0,0,.193.931Zm-2.873-1.273a3.088,3.088,0,0,0,1.7-.482,2.288,2.288,0,0,0,.984-1.1v-1.542H405.53a2.525,2.525,0,0,0-1.673.526,1.57,1.57,0,0,0-.629,1.236,1.3,1.3,0,0,0,.4,1A1.653,1.653,0,0,0,404.792,2400.985Z" transform="translate(-185.181 -2369.252)" fill="#073360"/>
      <path id="Trazado_191914" data-name="Trazado 191914" d="M416.416,2402.7h-1.731V2389h1.731Z" transform="translate(-183.538 -2369.697)" fill="#073360"/>
      <path id="Trazado_191915" data-name="Trazado 191915" d="M420.4,2402.625h-1.731v-9.506H420.4Zm-.026-12.993h2.021l.017.053-2.372,2.284h-1.291Z" transform="translate(-183.042 -2369.618)" fill="#073360"/>
      <path id="Trazado_191916" data-name="Trazado 191916" d="M424.161,2392.752l.123,1.415a3.468,3.468,0,0,1,1.19-1.173,3.183,3.183,0,0,1,1.631-.417,3.107,3.107,0,0,1,2.381.9,3.953,3.953,0,0,1,.843,2.78v6H428.6v-5.965a2.574,2.574,0,0,0-.5-1.784,1.984,1.984,0,0,0-1.515-.527,2.444,2.444,0,0,0-1.322.36,2.641,2.641,0,0,0-.918.984v6.932h-1.731v-9.506Z" transform="translate(-182.551 -2369.252)" fill="#073360"/>
      <path id="Trazado_191917" data-name="Trazado 191917" d="M435.7,2402.443a4.011,4.011,0,0,1-3.159-1.322,4.979,4.979,0,0,1-1.172-3.431v-.387a4.872,4.872,0,0,1,1.208-3.378,3.721,3.721,0,0,1,2.86-1.348,3.6,3.6,0,0,1,2.908,1.159,4.625,4.625,0,0,1,.984,3.093v1.081h-6.168l-.026.044a3.728,3.728,0,0,0,.694,2.247,2.211,2.211,0,0,0,1.871.882,4.366,4.366,0,0,0,1.542-.25,3.576,3.576,0,0,0,1.147-.689l.676,1.125a4.035,4.035,0,0,1-1.344.84A5.424,5.424,0,0,1,435.7,2402.443Zm-.263-8.5a1.879,1.879,0,0,0-1.486.731,3.464,3.464,0,0,0-.755,1.834l.017.043h4.385v-.227a2.642,2.642,0,0,0-.545-1.7A1.946,1.946,0,0,0,435.432,2393.939Z" transform="translate(-181.461 -2369.252)" fill="#073360"/>
      <path id="Trazado_191918" data-name="Trazado 191918" d="M446.048,2402.258c-.06-.286-.1-.54-.137-.759a5.7,5.7,0,0,1-.056-.664,4.047,4.047,0,0,1-1.261,1.146,3.217,3.217,0,0,1-1.674.461,3.1,3.1,0,0,1-2.261-.759,2.8,2.8,0,0,1-.778-2.1,2.456,2.456,0,0,1,1.1-2.13,5.152,5.152,0,0,1,2.991-.769h1.88v-.94a1.748,1.748,0,0,0-.509-1.322,2,2,0,0,0-1.442-.488,2.084,2.084,0,0,0-1.357.426,1.284,1.284,0,0,0-.523,1.023h-1.651l-.018-.052a2.3,2.3,0,0,1,.979-1.9,4.026,4.026,0,0,1,2.666-.862,3.935,3.935,0,0,1,2.6.821,2.915,2.915,0,0,1,.984,2.368v4.577a8.7,8.7,0,0,0,.053.984,5.038,5.038,0,0,0,.192.931Zm-2.873-1.273a3.091,3.091,0,0,0,1.7-.482,2.294,2.294,0,0,0,.984-1.1v-1.542h-1.942a2.525,2.525,0,0,0-1.673.526,1.57,1.57,0,0,0-.629,1.236,1.292,1.292,0,0,0,.4,1A1.651,1.651,0,0,0,443.175,2400.985Z" transform="translate(-180.401 -2369.252)" fill="#073360"/>
    </g>
    <rect id="Rectángulo_24503" data-name="Rectángulo 24503" width="1030" height="114.997" transform="translate(183.405 2483.195)" fill="url(#linear-gradient)"/>
    <g id="Grupo_84998" data-name="Grupo 84998" transform="translate(211.447 2510.266)">
      <path id="Trazado_191919" data-name="Trazado 191919" d="M211.7,2489.521H217.4v1.977h-8.259v-12.792H211.7Z" transform="translate(-208.242 -2477.792)" fill="#073360"/>
      <path id="Trazado_191920" data-name="Trazado 191920" d="M217.255,2486.312a5.1,5.1,0,0,1,1.186-3.483,4.133,4.133,0,0,1,3.286-1.357,4.177,4.177,0,0,1,3.3,1.353,5.076,5.076,0,0,1,1.2,3.487v.184a5.079,5.079,0,0,1-1.191,3.493,4.7,4.7,0,0,1-6.589,0,5.079,5.079,0,0,1-1.191-3.493Zm2.557.18a4.122,4.122,0,0,0,.457,2.084,1.575,1.575,0,0,0,1.475.785,1.559,1.559,0,0,0,1.454-.79,4.09,4.09,0,0,0,.461-2.079v-.184a4.059,4.059,0,0,0-.466-2.061,1.578,1.578,0,0,0-1.466-.8,1.557,1.557,0,0,0-1.454.8,4.086,4.086,0,0,0-.461,2.057Z" transform="translate(-207.231 -2477.447)" fill="#073360"/>
      <path id="Trazado_191921" data-name="Trazado 191921" d="M228.989,2481.647l.114,1.362a3.49,3.49,0,0,1,1.17-1.134,3.036,3.036,0,0,1,1.554-.4,2.862,2.862,0,0,1,2.249.9,4.183,4.183,0,0,1,.809,2.839v5.939h-2.574v-5.943a1.929,1.929,0,0,0-.387-1.361,1.556,1.556,0,0,0-1.168-.4,1.966,1.966,0,0,0-.913.208,1.865,1.865,0,0,0-.677.585v6.913H226.6v-9.506Z" transform="translate(-206.067 -2477.447)" fill="#073360"/>
      <path id="Trazado_191922" data-name="Trazado 191922" d="M235.318,2486.48a6.137,6.137,0,0,1,.979-3.629,3.174,3.174,0,0,1,2.745-1.379,2.706,2.706,0,0,1,1.406.36,3.153,3.153,0,0,1,1.037,1.028l.2-1.212H243.9v9.462a3.528,3.528,0,0,1-1.217,2.869,5.137,5.137,0,0,1-3.386,1.015,6.465,6.465,0,0,1-1.529-.2,7.12,7.12,0,0,1-1.493-.54l.475-1.915a5.95,5.95,0,0,0,1.2.426,5.8,5.8,0,0,0,1.331.144,2.293,2.293,0,0,0,1.551-.439,1.741,1.741,0,0,0,.5-1.371v-.861a2.852,2.852,0,0,1-.992.818,2.925,2.925,0,0,1-1.309.281,3.231,3.231,0,0,1-2.728-1.288,5.44,5.44,0,0,1-.979-3.386Zm2.565.187a3.911,3.911,0,0,0,.422,1.974,1.466,1.466,0,0,0,1.371.72,2.1,2.1,0,0,0,1-.216,1.641,1.641,0,0,0,.654-.632v-4.154a1.764,1.764,0,0,0-.654-.672,1.914,1.914,0,0,0-.979-.239,1.445,1.445,0,0,0-1.374.84,4.769,4.769,0,0,0-.435,2.193Z" transform="translate(-204.981 -2477.447)" fill="#073360"/>
      <path id="Trazado_191923" data-name="Trazado 191923" d="M247.383,2479.817h-2.565v-1.924h2.565Zm0,11.782h-2.565v-9.506h2.565Z" transform="translate(-203.798 -2477.893)" fill="#073360"/>
      <path id="Trazado_191924" data-name="Trazado 191924" d="M252.123,2479.557v2.329h1.6v1.8h-1.6v4.841a1.114,1.114,0,0,0,.228.791.811.811,0,0,0,.615.237,2.362,2.362,0,0,0,.346-.021,3.079,3.079,0,0,0,.338-.075l.22,1.854a5.2,5.2,0,0,1-.756.2,4.578,4.578,0,0,1-.8.066,2.737,2.737,0,0,1-2.043-.729,3.2,3.2,0,0,1-.715-2.311v-4.85h-1.389v-1.8h1.389v-2.329Z" transform="translate(-203.381 -2477.686)" fill="#073360"/>
      <path id="Trazado_191925" data-name="Trazado 191925" d="M260.374,2489.763a3.194,3.194,0,0,1-1.116,1.151,3.292,3.292,0,0,1-3.906-.558,4.439,4.439,0,0,1-.848-2.992v-5.736h2.557v5.768a2.47,2.47,0,0,0,.351,1.492,1.231,1.231,0,0,0,1.037.453,2.545,2.545,0,0,0,1.054-.2,1.778,1.778,0,0,0,.721-.585v-6.931h2.565v9.506H260.6Z" transform="translate(-202.592 -2477.428)" fill="#073360"/>
      <path id="Trazado_191926" data-name="Trazado 191926" d="M263.24,2486.926a6.176,6.176,0,0,1,.971-3.629,3.153,3.153,0,0,1,2.736-1.379,2.666,2.666,0,0,1,1.283.307,3.113,3.113,0,0,1,1,.878v-5.21h2.574V2491.6H269.6l-.211-1.159a3.145,3.145,0,0,1-1.058,1,2.813,2.813,0,0,1-1.4.343,3.212,3.212,0,0,1-2.719-1.283,5.469,5.469,0,0,1-.971-3.39Zm2.556.187a3.911,3.911,0,0,0,.422,1.974,1.466,1.466,0,0,0,1.371.72,1.984,1.984,0,0,0,.966-.225,1.8,1.8,0,0,0,.677-.659v-4.074a1.985,1.985,0,0,0-.672-.7,1.782,1.782,0,0,0-.954-.253,1.445,1.445,0,0,0-1.374.84,4.77,4.77,0,0,0-.435,2.193Z" transform="translate(-201.504 -2477.893)" fill="#073360"/>
      <path id="Trazado_191927" data-name="Trazado 191927" d="M275.438,2483.486h-2.566v-2.249h2.566Zm0,7.7h-2.566v-2.249h2.566Z" transform="translate(-200.304 -2477.477)" fill="#073360"/>
      <path id="Trazado_191928" data-name="Trazado 191928" d="M218.286,2497.068h-4.111v11.43h-1.731v-11.43h-4.1v-1.362h9.945Z" transform="translate(-208.341 -2475.675)" fill="#073360"/>
      <path id="Trazado_191929" data-name="Trazado 191929" d="M217.591,2503.312a5.23,5.23,0,0,1,1.143-3.475,3.83,3.83,0,0,1,3.1-1.365,3.873,3.873,0,0,1,3.123,1.361,5.217,5.217,0,0,1,1.146,3.479v.194a5.207,5.207,0,0,1-1.141,3.479,4.251,4.251,0,0,1-6.224,0,5.2,5.2,0,0,1-1.147-3.475Zm1.731.189a4.492,4.492,0,0,0,.638,2.492,2.3,2.3,0,0,0,3.773,0,4.474,4.474,0,0,0,.641-2.492v-.194a4.463,4.463,0,0,0-.645-2.483,2.117,2.117,0,0,0-1.893-.992,2.087,2.087,0,0,0-1.876.992,4.508,4.508,0,0,0-.638,2.483Z" transform="translate(-207.189 -2475.33)" fill="#073360"/>
      <path id="Trazado_191930" data-name="Trazado 191930" d="M229.434,2496.589v2.293h1.8v1.282h-1.8v5.772a1.286,1.286,0,0,0,.278.94,1,1,0,0,0,.733.272,1.643,1.643,0,0,0,.329-.035,1.978,1.978,0,0,0,.32-.088l.228,1.187a1.535,1.535,0,0,1-.567.259,2.851,2.851,0,0,1-.751.1,2.24,2.24,0,0,1-1.678-.637,2.765,2.765,0,0,1-.624-2v-5.772h-1.51v-1.282h1.51v-2.293Z" transform="translate(-206.118 -2475.565)" fill="#073360"/>
      <path id="Trazado_191931" data-name="Trazado 191931" d="M238.454,2508.153c-.059-.287-.1-.541-.136-.76a5.426,5.426,0,0,1-.057-.664,4.04,4.04,0,0,1-1.261,1.147,3.23,3.23,0,0,1-1.673.461,3.105,3.105,0,0,1-2.263-.76,2.793,2.793,0,0,1-.778-2.095,2.456,2.456,0,0,1,1.1-2.131,5.152,5.152,0,0,1,2.991-.768h1.88v-.94a1.746,1.746,0,0,0-.509-1.323,2,2,0,0,0-1.441-.488,2.086,2.086,0,0,0-1.358.426,1.283,1.283,0,0,0-.522,1.024h-1.652l-.018-.053a2.3,2.3,0,0,1,.979-1.9,4.027,4.027,0,0,1,2.666-.861,3.935,3.935,0,0,1,2.6.821,2.911,2.911,0,0,1,.984,2.367v4.578a8.967,8.967,0,0,0,.053.984,4.986,4.986,0,0,0,.193.931Zm-2.873-1.274a3.076,3.076,0,0,0,1.7-.482,2.29,2.29,0,0,0,.984-1.1v-1.542h-1.942a2.519,2.519,0,0,0-1.673.526,1.567,1.567,0,0,0-.629,1.235,1.3,1.3,0,0,0,.4,1A1.653,1.653,0,0,0,235.581,2506.879Z" transform="translate(-205.359 -2475.33)" fill="#073360"/>
      <path id="Trazado_191932" data-name="Trazado 191932" d="M243.228,2508.6H241.5v-13.706h1.731Z" transform="translate(-204.212 -2475.776)" fill="#073360"/>
      <path id="Trazado_191933" data-name="Trazado 191933" d="M249.029,2504.022a6.342,6.342,0,0,1,.979-3.7,3.155,3.155,0,0,1,2.745-1.406,3.4,3.4,0,0,1,1.48.307,3.042,3.042,0,0,1,1.1.9v-5.228h1.731V2508.6h-1.415l-.2-1.168a3.084,3.084,0,0,1-1.143,1.01,3.435,3.435,0,0,1-1.573.343,3.258,3.258,0,0,1-2.723-1.261,5.235,5.235,0,0,1-.984-3.316Zm1.731.185a4.03,4.03,0,0,0,.588,2.305,2.054,2.054,0,0,0,1.827.866,2.283,2.283,0,0,0,1.3-.352,2.617,2.617,0,0,0,.861-.984v-4.436a2.679,2.679,0,0,0-.866-.936,2.292,2.292,0,0,0-1.277-.346,1.977,1.977,0,0,0-1.841,1.028,5.3,5.3,0,0,0-.593,2.671Z" transform="translate(-203.274 -2475.776)" fill="#073360"/>
      <path id="Trazado_191934" data-name="Trazado 191934" d="M262.462,2508.338a4.009,4.009,0,0,1-3.159-1.323,4.979,4.979,0,0,1-1.173-3.431v-.386a4.877,4.877,0,0,1,1.208-3.378,3.724,3.724,0,0,1,2.86-1.348,3.6,3.6,0,0,1,2.908,1.159,4.621,4.621,0,0,1,.984,3.093v1.081h-6.167l-.027.043a3.742,3.742,0,0,0,.695,2.247,2.212,2.212,0,0,0,1.871.88,4.347,4.347,0,0,0,1.542-.251,3.516,3.516,0,0,0,1.146-.689l.677,1.125a4.01,4.01,0,0,1-1.344.84A5.422,5.422,0,0,1,262.462,2508.338Zm-.264-8.505a1.875,1.875,0,0,0-1.484.732,3.449,3.449,0,0,0-.756,1.834l.018.044h4.383v-.227a2.638,2.638,0,0,0-.544-1.7A1.947,1.947,0,0,0,262.2,2499.833Z" transform="translate(-202.14 -2475.33)" fill="#073360"/>
      <path id="Trazado_191935" data-name="Trazado 191935" d="M275.409,2500.176l-.887-.053a1.986,1.986,0,0,0-1.155.325,2.1,2.1,0,0,0-.725.914v6.791h-1.731v-9.506h1.546l.168,1.388a3.293,3.293,0,0,1,1-1.15,2.333,2.333,0,0,1,1.365-.413,2.178,2.178,0,0,1,.37.031,2.685,2.685,0,0,1,.289.065Z" transform="translate(-200.548 -2475.33)" fill="#073360"/>
      <path id="Trazado_191936" data-name="Trazado 191936" d="M280.235,2508.338a4.008,4.008,0,0,1-3.158-1.323,4.973,4.973,0,0,1-1.173-3.431v-.386a4.872,4.872,0,0,1,1.208-3.378,3.722,3.722,0,0,1,2.86-1.348,3.6,3.6,0,0,1,2.908,1.159,4.621,4.621,0,0,1,.984,3.093v1.081H277.7l-.026.043a3.741,3.741,0,0,0,.694,2.247,2.213,2.213,0,0,0,1.871.88,4.339,4.339,0,0,0,1.542-.251,3.533,3.533,0,0,0,1.147-.689l.676,1.125a4,4,0,0,1-1.344.84A5.418,5.418,0,0,1,280.235,2508.338Zm-.263-8.505a1.877,1.877,0,0,0-1.486.732,3.457,3.457,0,0,0-.755,1.834l.017.044h4.385v-.227a2.638,2.638,0,0,0-.545-1.7A1.946,1.946,0,0,0,279.971,2499.833Z" transform="translate(-199.926 -2475.33)" fill="#073360"/>
      <path id="Trazado_191937" data-name="Trazado 191937" d="M285.513,2508.619V2500.4h-1.484v-1.282h1.484v-1.2a3.258,3.258,0,0,1,.8-2.349,2.924,2.924,0,0,1,2.219-.831,3.918,3.918,0,0,1,.6.048c.2.034.426.079.671.136l-.21,1.318c-.106-.023-.233-.044-.382-.061a3.969,3.969,0,0,0-.47-.027,1.368,1.368,0,0,0-1.125.453,2.033,2.033,0,0,0-.369,1.313v1.2h1.977v1.282h-1.977v8.224Z" transform="translate(-198.915 -2475.796)" fill="#073360"/>
      <path id="Trazado_191938" data-name="Trazado 191938" d="M294.032,2508.338a4.012,4.012,0,0,1-3.159-1.323,4.979,4.979,0,0,1-1.173-3.431v-.386a4.873,4.873,0,0,1,1.209-3.378,3.72,3.72,0,0,1,2.86-1.348,3.6,3.6,0,0,1,2.908,1.159,4.621,4.621,0,0,1,.984,3.093v1.081h-6.168l-.026.043a3.734,3.734,0,0,0,.694,2.247,2.212,2.212,0,0,0,1.871.88,4.339,4.339,0,0,0,1.542-.251,3.533,3.533,0,0,0,1.147-.689l.676,1.125a4,4,0,0,1-1.344.84A5.418,5.418,0,0,1,294.032,2508.338Zm-.263-8.505a1.877,1.877,0,0,0-1.486.732,3.458,3.458,0,0,0-.756,1.834l.018.044h4.385v-.227a2.638,2.638,0,0,0-.545-1.7A1.946,1.946,0,0,0,293.769,2499.833Z" transform="translate(-198.208 -2475.33)" fill="#073360"/>
      <path id="Trazado_191939" data-name="Trazado 191939" d="M303,2500.176l-.887-.053a1.986,1.986,0,0,0-1.155.325,2.1,2.1,0,0,0-.725.914v6.791h-1.731v-9.506h1.546l.168,1.388a3.3,3.3,0,0,1,1-1.15,2.339,2.339,0,0,1,1.366-.413,2.165,2.165,0,0,1,.369.031,2.708,2.708,0,0,1,.29.065Z" transform="translate(-197.112 -2475.33)" fill="#073360"/>
      <path id="Trazado_191940" data-name="Trazado 191940" d="M307.829,2508.338a4.012,4.012,0,0,1-3.159-1.323,4.979,4.979,0,0,1-1.173-3.431v-.386a4.873,4.873,0,0,1,1.209-3.378,3.72,3.72,0,0,1,2.86-1.348,3.6,3.6,0,0,1,2.907,1.159,4.622,4.622,0,0,1,.984,3.093v1.081H305.29l-.026.043a3.734,3.734,0,0,0,.694,2.247,2.212,2.212,0,0,0,1.871.88,4.348,4.348,0,0,0,1.542-.251,3.533,3.533,0,0,0,1.147-.689l.676,1.125a4.011,4.011,0,0,1-1.344.84A5.418,5.418,0,0,1,307.829,2508.338Zm-.263-8.505a1.875,1.875,0,0,0-1.486.732,3.449,3.449,0,0,0-.756,1.834l.018.044h4.383v-.227a2.638,2.638,0,0,0-.544-1.7A1.946,1.946,0,0,0,307.566,2499.833Z" transform="translate(-196.49 -2475.33)" fill="#073360"/>
      <path id="Trazado_191941" data-name="Trazado 191941" d="M313.848,2498.647l.123,1.415a3.459,3.459,0,0,1,1.191-1.173,3.177,3.177,0,0,1,1.629-.417,3.106,3.106,0,0,1,2.381.9,3.957,3.957,0,0,1,.843,2.781v6h-1.731v-5.966a2.575,2.575,0,0,0-.5-1.783,1.993,1.993,0,0,0-1.516-.526,2.446,2.446,0,0,0-1.322.36,2.644,2.644,0,0,0-.918.984v6.932H312.3v-9.506Z" transform="translate(-195.393 -2475.33)" fill="#073360"/>
      <path id="Trazado_191942" data-name="Trazado 191942" d="M325.306,2506.976a2.329,2.329,0,0,0,1.516-.532,1.619,1.619,0,0,0,.654-1.3h1.555l.017.053a2.675,2.675,0,0,1-1.093,2.187,3.985,3.985,0,0,1-2.649.958,3.844,3.844,0,0,1-3.171-1.353,5.221,5.221,0,0,1-1.1-3.4v-.369a5.192,5.192,0,0,1,1.1-3.386,4.327,4.327,0,0,1,5.895-.373,3.062,3.062,0,0,1,1.023,2.416l-.017.053h-1.564a2.013,2.013,0,0,0-.615-1.481,2.122,2.122,0,0,0-1.555-.611,2.086,2.086,0,0,0-1.945.979,4.6,4.6,0,0,0-.585,2.4v.37a4.655,4.655,0,0,0,.58,2.426A2.089,2.089,0,0,0,325.306,2506.976Z" transform="translate(-194.306 -2475.33)" fill="#073360"/>
      <path id="Trazado_191943" data-name="Trazado 191943" d="M331.744,2496.66h-1.731v-1.767h1.731Zm0,11.939h-1.731v-9.506h1.731Z" transform="translate(-193.188 -2475.776)" fill="#073360"/>
      <path id="Trazado_191944" data-name="Trazado 191944" d="M339.8,2508.153c-.06-.287-.1-.541-.137-.76a5.652,5.652,0,0,1-.056-.664,4.051,4.051,0,0,1-1.261,1.147,3.231,3.231,0,0,1-1.674.461,3.1,3.1,0,0,1-2.261-.76,2.793,2.793,0,0,1-.778-2.095,2.456,2.456,0,0,1,1.1-2.131,5.153,5.153,0,0,1,2.991-.768h1.88v-.94a1.751,1.751,0,0,0-.509-1.323,2.005,2.005,0,0,0-1.442-.488,2.084,2.084,0,0,0-1.357.426,1.284,1.284,0,0,0-.523,1.024h-1.651l-.018-.053a2.3,2.3,0,0,1,.979-1.9,4.025,4.025,0,0,1,2.666-.861,3.935,3.935,0,0,1,2.6.821,2.911,2.911,0,0,1,.984,2.367v4.578a8.7,8.7,0,0,0,.053.984,5.075,5.075,0,0,0,.192.931Zm-2.873-1.274a3.079,3.079,0,0,0,1.7-.482,2.3,2.3,0,0,0,.984-1.1v-1.542h-1.942a2.519,2.519,0,0,0-1.673.526,1.567,1.567,0,0,0-.629,1.235,1.3,1.3,0,0,0,.4,1A1.651,1.651,0,0,0,336.925,2506.879Z" transform="translate(-192.737 -2475.33)" fill="#073360"/>
      <path id="Trazado_191945" data-name="Trazado 191945" d="M348.275,2505.623a1.179,1.179,0,0,0-.435-.94,4.083,4.083,0,0,0-1.646-.641,6.94,6.94,0,0,1-2.606-1.022,2.069,2.069,0,0,1-.874-1.759,2.478,2.478,0,0,1,.984-1.974,4.481,4.481,0,0,1,5.206.036,2.524,2.524,0,0,1,.936,2.073l-.018.053H348.17a1.517,1.517,0,0,0-.522-1.12,1.933,1.933,0,0,0-1.384-.5,2,2,0,0,0-1.371.4,1.27,1.27,0,0,0-.448.975,1.086,1.086,0,0,0,.395.887,4.1,4.1,0,0,0,1.608.58,6.944,6.944,0,0,1,2.68,1.049,2.12,2.12,0,0,1,.878,1.779,2.459,2.459,0,0,1-1.023,2.048,4.286,4.286,0,0,1-2.675.782,4.178,4.178,0,0,1-2.864-.922,2.634,2.634,0,0,1-.993-2.153l.018-.053h1.652a1.59,1.59,0,0,0,.685,1.342,2.655,2.655,0,0,0,1.5.424,2.443,2.443,0,0,0,1.445-.373A1.151,1.151,0,0,0,348.275,2505.623Z" transform="translate(-191.639 -2475.33)" fill="#073360"/>
      <path id="Trazado_191946" data-name="Trazado 191946" d="M363.16,2503.761a5.241,5.241,0,0,1-.984,3.316,3.252,3.252,0,0,1-2.715,1.261,3.76,3.76,0,0,1-1.542-.295,2.924,2.924,0,0,1-1.129-.883v4.648H355.06v-13.161h1.327l.272,1.23a3.132,3.132,0,0,1,1.159-1.046,3.468,3.468,0,0,1,1.616-.36,3.163,3.163,0,0,1,2.746,1.4,6.346,6.346,0,0,1,.979,3.7Zm-1.731-.189a5.013,5.013,0,0,0-.638-2.655,2.063,2.063,0,0,0-1.875-1.039,2.313,2.313,0,0,0-1.274.337,2.523,2.523,0,0,0-.852.927v4.589a2.446,2.446,0,0,0,.852.917,2.4,2.4,0,0,0,1.291.328,2.131,2.131,0,0,0,1.862-.9,3.941,3.941,0,0,0,.633-2.32Z" transform="translate(-190.068 -2475.33)" fill="#073360"/>
      <path id="Trazado_191947" data-name="Trazado 191947" d="M363.794,2503.312a5.236,5.236,0,0,1,1.143-3.475,3.831,3.831,0,0,1,3.1-1.365,3.871,3.871,0,0,1,3.123,1.361,5.218,5.218,0,0,1,1.147,3.479v.194a5.208,5.208,0,0,1-1.143,3.479,4.251,4.251,0,0,1-6.224,0,5.2,5.2,0,0,1-1.147-3.475Zm1.731.189a4.492,4.492,0,0,0,.638,2.492,2.3,2.3,0,0,0,3.773,0,4.474,4.474,0,0,0,.641-2.492v-.194a4.463,4.463,0,0,0-.646-2.483,2.117,2.117,0,0,0-1.893-.992,2.087,2.087,0,0,0-1.876.992,4.508,4.508,0,0,0-.638,2.483Z" transform="translate(-188.98 -2475.33)" fill="#073360"/>
      <path id="Trazado_191948" data-name="Trazado 191948" d="M377.745,2500.176l-.887-.053a1.986,1.986,0,0,0-1.155.325,2.1,2.1,0,0,0-.725.914v6.791h-1.731v-9.506h1.546l.168,1.388a3.3,3.3,0,0,1,1-1.15,2.339,2.339,0,0,1,1.366-.413,2.155,2.155,0,0,1,.369.031,2.709,2.709,0,0,1,.29.065Z" transform="translate(-187.803 -2475.33)" fill="#073360"/>
      <path id="Trazado_191949" data-name="Trazado 191949" d="M217.293,2520.761a5.241,5.241,0,0,1-.984,3.316,3.252,3.252,0,0,1-2.715,1.261,3.756,3.756,0,0,1-1.542-.295,2.919,2.919,0,0,1-1.129-.883v4.648h-1.731v-13.161h1.326l.273,1.23a3.124,3.124,0,0,1,1.159-1.046,3.465,3.465,0,0,1,1.616-.36,3.162,3.162,0,0,1,2.746,1.4,6.346,6.346,0,0,1,.979,3.7Zm-1.731-.189a5.012,5.012,0,0,0-.638-2.655,2.065,2.065,0,0,0-1.876-1.039,2.309,2.309,0,0,0-1.273.337,2.524,2.524,0,0,0-.852.927v4.589a2.447,2.447,0,0,0,.852.916,2.4,2.4,0,0,0,1.291.328,2.131,2.131,0,0,0,1.862-.9,3.941,3.941,0,0,0,.633-2.32Z" transform="translate(-208.235 -2473.213)" fill="#073360"/>
      <path id="Trazado_191950" data-name="Trazado 191950" d="M222.784,2517.176l-.887-.053a1.986,1.986,0,0,0-1.155.325,2.094,2.094,0,0,0-.725.914v6.791h-1.731v-9.506h1.546l.168,1.388a3.293,3.293,0,0,1,1-1.15,2.332,2.332,0,0,1,1.365-.413,2.179,2.179,0,0,1,.37.03,2.742,2.742,0,0,1,.289.065Z" transform="translate(-207.102 -2473.213)" fill="#073360"/>
      <path id="Trazado_191951" data-name="Trazado 191951" d="M223.255,2520.312a5.237,5.237,0,0,1,1.143-3.475,3.831,3.831,0,0,1,3.1-1.365,3.873,3.873,0,0,1,3.123,1.361,5.217,5.217,0,0,1,1.146,3.479v.194a5.207,5.207,0,0,1-1.141,3.479,4.251,4.251,0,0,1-6.224,0,5.2,5.2,0,0,1-1.147-3.475Zm1.731.189a4.492,4.492,0,0,0,.638,2.492,2.3,2.3,0,0,0,3.773,0,4.474,4.474,0,0,0,.641-2.492v-.194a4.463,4.463,0,0,0-.645-2.483,2.117,2.117,0,0,0-1.893-.992,2.087,2.087,0,0,0-1.876.992,4.508,4.508,0,0,0-.638,2.483Z" transform="translate(-206.484 -2473.213)" fill="#073360"/>
      <path id="Trazado_191952" data-name="Trazado 191952" d="M232.357,2521.022a6.342,6.342,0,0,1,.979-3.7,3.155,3.155,0,0,1,2.745-1.406,3.409,3.409,0,0,1,1.481.307,3.049,3.049,0,0,1,1.1.9v-5.228H240.4V2525.6h-1.415l-.2-1.168a3.084,3.084,0,0,1-1.143,1.01,3.434,3.434,0,0,1-1.572.343,3.259,3.259,0,0,1-2.724-1.261,5.235,5.235,0,0,1-.984-3.316Zm1.731.185a4.031,4.031,0,0,0,.588,2.305,2.054,2.054,0,0,0,1.827.866,2.285,2.285,0,0,0,1.3-.352,2.615,2.615,0,0,0,.861-.984v-4.436a2.688,2.688,0,0,0-.865-.936,2.3,2.3,0,0,0-1.279-.346,1.977,1.977,0,0,0-1.841,1.028,5.311,5.311,0,0,0-.593,2.671Z" transform="translate(-205.35 -2473.659)" fill="#073360"/>
      <path id="Trazado_191953" data-name="Trazado 191953" d="M247.841,2523.728a3.214,3.214,0,0,1-1.15,1.177,3.148,3.148,0,0,1-1.626.413,3.054,3.054,0,0,1-2.424-.993,4.612,4.612,0,0,1-.869-3.093v-5.6H243.5v5.623a3.542,3.542,0,0,0,.448,2.091,1.666,1.666,0,0,0,1.4.571,2.844,2.844,0,0,0,1.525-.373,2.347,2.347,0,0,0,.91-1.058v-6.853h1.731v9.506h-1.555Z" transform="translate(-204.178 -2473.193)" fill="#073360"/>
      <path id="Trazado_191954" data-name="Trazado 191954" d="M254.806,2523.976a2.329,2.329,0,0,0,1.516-.532,1.619,1.619,0,0,0,.654-1.3h1.555l.017.053a2.675,2.675,0,0,1-1.093,2.187,3.984,3.984,0,0,1-2.649.958,3.844,3.844,0,0,1-3.171-1.353,5.221,5.221,0,0,1-1.1-3.4v-.369a5.192,5.192,0,0,1,1.1-3.386,4.328,4.328,0,0,1,5.895-.373,3.062,3.062,0,0,1,1.023,2.416l-.017.053h-1.564a2.013,2.013,0,0,0-.615-1.481,2.122,2.122,0,0,0-1.555-.611,2.086,2.086,0,0,0-1.945.979,4.6,4.6,0,0,0-.585,2.4v.37a4.656,4.656,0,0,0,.58,2.426A2.089,2.089,0,0,0,254.806,2523.976Z" transform="translate(-203.086 -2473.213)" fill="#073360"/>
      <path id="Trazado_191955" data-name="Trazado 191955" d="M261.778,2513.589v2.293h1.8v1.282h-1.8v5.772a1.291,1.291,0,0,0,.277.94,1,1,0,0,0,.734.272,1.625,1.625,0,0,0,.329-.035,2.037,2.037,0,0,0,.32-.087l.228,1.186a1.535,1.535,0,0,1-.567.259,2.857,2.857,0,0,1-.751.1,2.238,2.238,0,0,1-1.678-.637,2.765,2.765,0,0,1-.624-2v-5.772h-1.511v-1.282h1.511v-2.293Z" transform="translate(-202.09 -2473.447)" fill="#073360"/>
      <path id="Trazado_191956" data-name="Trazado 191956" d="M264.56,2520.312a5.236,5.236,0,0,1,1.141-3.475,3.833,3.833,0,0,1,3.1-1.365,3.873,3.873,0,0,1,3.124,1.361,5.223,5.223,0,0,1,1.146,3.479v.194a5.213,5.213,0,0,1-1.141,3.479,4.252,4.252,0,0,1-6.225,0,5.2,5.2,0,0,1-1.146-3.475Zm1.731.189a4.491,4.491,0,0,0,.637,2.492,2.3,2.3,0,0,0,3.774,0,4.473,4.473,0,0,0,.641-2.492v-.194a4.463,4.463,0,0,0-.646-2.483,2.118,2.118,0,0,0-1.894-.992,2.089,2.089,0,0,0-1.876.992,4.508,4.508,0,0,0-.637,2.483Z" transform="translate(-201.339 -2473.213)" fill="#073360"/>
      <path id="Trazado_191957" data-name="Trazado 191957" d="M279.572,2522.623a1.179,1.179,0,0,0-.435-.94,4.09,4.09,0,0,0-1.647-.641,6.946,6.946,0,0,1-2.6-1.022,2.067,2.067,0,0,1-.874-1.759,2.477,2.477,0,0,1,.984-1.973,4.482,4.482,0,0,1,5.206.036,2.524,2.524,0,0,1,.936,2.074l-.018.053h-1.652a1.514,1.514,0,0,0-.523-1.12,1.928,1.928,0,0,0-1.383-.5,2,2,0,0,0-1.371.405,1.27,1.27,0,0,0-.448.975,1.086,1.086,0,0,0,.395.887,4.094,4.094,0,0,0,1.608.581,6.944,6.944,0,0,1,2.68,1.049,2.12,2.12,0,0,1,.878,1.779,2.459,2.459,0,0,1-1.023,2.048,4.288,4.288,0,0,1-2.675.781,4.178,4.178,0,0,1-2.864-.922,2.634,2.634,0,0,1-.993-2.153l.018-.053h1.652a1.59,1.59,0,0,0,.685,1.342,2.655,2.655,0,0,0,1.5.424,2.443,2.443,0,0,0,1.445-.373A1.15,1.15,0,0,0,279.572,2522.623Z" transform="translate(-200.195 -2473.213)" fill="#073360"/>
      <path id="Trazado_191958" data-name="Trazado 191958" d="M290.267,2523.976a2.331,2.331,0,0,0,1.516-.532,1.619,1.619,0,0,0,.654-1.3h1.555l.017.053a2.675,2.675,0,0,1-1.093,2.187,3.984,3.984,0,0,1-2.649.958,3.844,3.844,0,0,1-3.171-1.353,5.221,5.221,0,0,1-1.1-3.4v-.369a5.192,5.192,0,0,1,1.1-3.386,4.328,4.328,0,0,1,5.895-.373,3.062,3.062,0,0,1,1.023,2.416l-.017.053h-1.564a2.013,2.013,0,0,0-.615-1.481,2.122,2.122,0,0,0-1.555-.611,2.086,2.086,0,0,0-1.945.979,4.6,4.6,0,0,0-.585,2.4v.37a4.655,4.655,0,0,0,.58,2.426A2.089,2.089,0,0,0,290.267,2523.976Z" transform="translate(-198.669 -2473.213)" fill="#073360"/>
      <path id="Trazado_191959" data-name="Trazado 191959" d="M294.49,2520.312a5.236,5.236,0,0,1,1.141-3.475,4.235,4.235,0,0,1,6.224,0,5.218,5.218,0,0,1,1.147,3.479v.194a5.208,5.208,0,0,1-1.143,3.479,4.251,4.251,0,0,1-6.224,0,5.2,5.2,0,0,1-1.146-3.475Zm1.731.189a4.492,4.492,0,0,0,.637,2.492,2.3,2.3,0,0,0,3.773,0,4.474,4.474,0,0,0,.642-2.492v-.194a4.472,4.472,0,0,0-.645-2.483,2.119,2.119,0,0,0-1.894-.992,2.088,2.088,0,0,0-1.876.992,4.508,4.508,0,0,0-.637,2.483Z" transform="translate(-197.612 -2473.213)" fill="#073360"/>
      <path id="Trazado_191960" data-name="Trazado 191960" d="M305.489,2515.647l.123,1.247a3.229,3.229,0,0,1,1.182-1.049,3.553,3.553,0,0,1,1.664-.373,2.94,2.94,0,0,1,1.629.439,2.662,2.662,0,0,1,1.024,1.318,3.543,3.543,0,0,1,1.185-1.283,3.119,3.119,0,0,1,1.723-.473,2.846,2.846,0,0,1,2.293,1,4.559,4.559,0,0,1,.843,3v5.685h-1.731v-5.7a3.167,3.167,0,0,0-.484-1.99,1.765,1.765,0,0,0-1.441-.584,1.835,1.835,0,0,0-1.437.614,2.688,2.688,0,0,0-.646,1.555v6.106h-1.74v-5.7a3.125,3.125,0,0,0-.5-1.956,1.725,1.725,0,0,0-1.428-.619,2.376,2.376,0,0,0-1.3.325,2.1,2.1,0,0,0-.782.913v7.037h-1.731v-9.506Z" transform="translate(-196.434 -2473.213)" fill="#073360"/>
      <path id="Trazado_191961" data-name="Trazado 191961" d="M321.915,2525.338a4.012,4.012,0,0,1-3.159-1.323,4.978,4.978,0,0,1-1.173-3.431v-.386a4.877,4.877,0,0,1,1.208-3.378,3.723,3.723,0,0,1,2.86-1.348,3.6,3.6,0,0,1,2.908,1.159,4.62,4.62,0,0,1,.984,3.092v1.081h-6.167l-.026.044a3.733,3.733,0,0,0,.694,2.247,2.212,2.212,0,0,0,1.871.88,4.348,4.348,0,0,0,1.542-.25,3.521,3.521,0,0,0,1.146-.689l.677,1.125a4.015,4.015,0,0,1-1.344.84A5.423,5.423,0,0,1,321.915,2525.338Zm-.264-8.505a1.876,1.876,0,0,0-1.484.732,3.449,3.449,0,0,0-.756,1.834l.018.044h4.383v-.227a2.638,2.638,0,0,0-.544-1.7A1.947,1.947,0,0,0,321.65,2516.833Z" transform="translate(-194.736 -2473.213)" fill="#073360"/>
      <path id="Trazado_191962" data-name="Trazado 191962" d="M330.886,2517.176l-.887-.053a1.986,1.986,0,0,0-1.155.325,2.1,2.1,0,0,0-.725.914v6.791h-1.731v-9.506h1.546l.166,1.388a3.315,3.315,0,0,1,1-1.15,2.336,2.336,0,0,1,1.366-.413,2.165,2.165,0,0,1,.369.03,2.772,2.772,0,0,1,.29.065Z" transform="translate(-193.639 -2473.213)" fill="#073360"/>
      <path id="Trazado_191963" data-name="Trazado 191963" d="M335.634,2523.976a2.329,2.329,0,0,0,1.516-.532,1.619,1.619,0,0,0,.654-1.3h1.555l.018.053a2.679,2.679,0,0,1-1.094,2.187,3.984,3.984,0,0,1-2.649.958,3.844,3.844,0,0,1-3.171-1.353,5.22,5.22,0,0,1-1.1-3.4v-.369a5.192,5.192,0,0,1,1.1-3.386,4.328,4.328,0,0,1,5.895-.373,3.058,3.058,0,0,1,1.023,2.416l-.017.053H337.8a2.013,2.013,0,0,0-.615-1.481,2.12,2.12,0,0,0-1.555-.611,2.086,2.086,0,0,0-1.945.979,4.6,4.6,0,0,0-.585,2.4v.37a4.655,4.655,0,0,0,.58,2.426A2.089,2.089,0,0,0,335.634,2523.976Z" transform="translate(-193.019 -2473.213)" fill="#073360"/>
      <path id="Trazado_191964" data-name="Trazado 191964" d="M342.072,2513.66h-1.731v-1.767h1.731Zm0,11.939h-1.731v-9.506h1.731Z" transform="translate(-191.901 -2473.659)" fill="#073360"/>
      <path id="Trazado_191965" data-name="Trazado 191965" d="M350.126,2525.153c-.06-.287-.1-.541-.136-.76a5.435,5.435,0,0,1-.057-.664,4.042,4.042,0,0,1-1.261,1.147,3.231,3.231,0,0,1-1.674.461,3.1,3.1,0,0,1-2.261-.76,2.793,2.793,0,0,1-.778-2.095,2.456,2.456,0,0,1,1.1-2.131,5.153,5.153,0,0,1,2.991-.768h1.88v-.94a1.751,1.751,0,0,0-.509-1.323,2.005,2.005,0,0,0-1.442-.488,2.084,2.084,0,0,0-1.357.426,1.283,1.283,0,0,0-.522,1.024h-1.652l-.018-.053a2.3,2.3,0,0,1,.979-1.9,4.027,4.027,0,0,1,2.666-.86,3.935,3.935,0,0,1,2.6.821,2.911,2.911,0,0,1,.984,2.367v4.578a8.7,8.7,0,0,0,.053.984,4.988,4.988,0,0,0,.193.931Zm-2.873-1.274a3.078,3.078,0,0,0,1.7-.482,2.292,2.292,0,0,0,.984-1.1v-1.542h-1.942a2.519,2.519,0,0,0-1.673.526,1.567,1.567,0,0,0-.629,1.235,1.3,1.3,0,0,0,.4,1A1.652,1.652,0,0,0,347.253,2523.879Z" transform="translate(-191.451 -2473.213)" fill="#073360"/>
      <path id="Trazado_191966" data-name="Trazado 191966" d="M354.9,2525.6h-1.731v-13.706H354.9Z" transform="translate(-190.304 -2473.659)" fill="#073360"/>
      <path id="Trazado_191967" data-name="Trazado 191967" d="M358.932,2513.66H357.2v-1.767h1.732Zm0,11.939H357.2v-9.506h1.732Z" transform="translate(-189.802 -2473.659)" fill="#073360"/>
      <path id="Trazado_191968" data-name="Trazado 191968" d="M362.789,2523.772h5.491v1.362h-7.556v-1.221l5.139-6.923h-5.077v-1.362h7.195v1.168Z" transform="translate(-189.363 -2473.193)" fill="#073360"/>
      <path id="Trazado_191969" data-name="Trazado 191969" d="M375.032,2525.153c-.058-.287-.1-.541-.136-.76a5.447,5.447,0,0,1-.057-.664,4.041,4.041,0,0,1-1.261,1.147,3.23,3.23,0,0,1-1.673.461,3.1,3.1,0,0,1-2.263-.76,2.792,2.792,0,0,1-.777-2.095,2.455,2.455,0,0,1,1.1-2.131,5.153,5.153,0,0,1,2.991-.768h1.88v-.94a1.746,1.746,0,0,0-.509-1.323,2,2,0,0,0-1.441-.488,2.082,2.082,0,0,0-1.357.426,1.284,1.284,0,0,0-.523,1.024h-1.652l-.018-.053a2.3,2.3,0,0,1,.979-1.9,4.028,4.028,0,0,1,2.667-.86,3.93,3.93,0,0,1,2.6.821,2.911,2.911,0,0,1,.984,2.367v4.578a8.947,8.947,0,0,0,.053.984,4.981,4.981,0,0,0,.193.931Zm-2.873-1.274a3.078,3.078,0,0,0,1.7-.482,2.292,2.292,0,0,0,.984-1.1v-1.542H372.9a2.519,2.519,0,0,0-1.673.526,1.569,1.569,0,0,0-.628,1.235,1.3,1.3,0,0,0,.395,1A1.656,1.656,0,0,0,372.159,2523.879Z" transform="translate(-188.349 -2473.213)" fill="#073360"/>
      <path id="Trazado_191970" data-name="Trazado 191970" d="M377.6,2521.022a6.342,6.342,0,0,1,.979-3.7,3.158,3.158,0,0,1,2.745-1.406,3.409,3.409,0,0,1,1.481.307,3.039,3.039,0,0,1,1.1.9v-5.228h1.731V2525.6h-1.414l-.2-1.168a3.084,3.084,0,0,1-1.143,1.01,3.434,3.434,0,0,1-1.572.343,3.26,3.26,0,0,1-2.724-1.261,5.235,5.235,0,0,1-.984-3.316Zm1.731.185a4.031,4.031,0,0,0,.588,2.305,2.054,2.054,0,0,0,1.827.866,2.291,2.291,0,0,0,1.3-.352,2.622,2.622,0,0,0,.86-.984v-4.436a2.678,2.678,0,0,0-.865-.936,2.3,2.3,0,0,0-1.279-.346,1.977,1.977,0,0,0-1.841,1.028,5.311,5.311,0,0,0-.593,2.671Z" transform="translate(-187.261 -2473.659)" fill="#073360"/>
      <path id="Trazado_191971" data-name="Trazado 191971" d="M386.685,2520.312a5.236,5.236,0,0,1,1.141-3.475,3.833,3.833,0,0,1,3.1-1.365,3.873,3.873,0,0,1,3.124,1.361,5.223,5.223,0,0,1,1.146,3.479v.194a5.213,5.213,0,0,1-1.141,3.479,4.252,4.252,0,0,1-6.225,0,5.2,5.2,0,0,1-1.146-3.475Zm1.731.189a4.491,4.491,0,0,0,.637,2.492,2.3,2.3,0,0,0,3.774,0,4.474,4.474,0,0,0,.641-2.492v-.194a4.463,4.463,0,0,0-.646-2.483,2.118,2.118,0,0,0-1.894-.992,2.089,2.089,0,0,0-1.876.992,4.508,4.508,0,0,0-.637,2.483Z" transform="translate(-186.129 -2473.213)" fill="#073360"/>
      <path id="Trazado_191972" data-name="Trazado 191972" d="M401.7,2522.623a1.179,1.179,0,0,0-.435-.94,4.09,4.09,0,0,0-1.647-.641,6.945,6.945,0,0,1-2.6-1.022,2.067,2.067,0,0,1-.874-1.759,2.477,2.477,0,0,1,.984-1.973,4.482,4.482,0,0,1,5.206.036,2.524,2.524,0,0,1,.936,2.074l-.018.053h-1.652a1.514,1.514,0,0,0-.523-1.12,1.928,1.928,0,0,0-1.383-.5,2,2,0,0,0-1.371.405,1.269,1.269,0,0,0-.448.975,1.086,1.086,0,0,0,.395.887,4.094,4.094,0,0,0,1.608.581,6.944,6.944,0,0,1,2.68,1.049,2.12,2.12,0,0,1,.878,1.779,2.459,2.459,0,0,1-1.023,2.048,4.288,4.288,0,0,1-2.675.781,4.179,4.179,0,0,1-2.864-.922,2.633,2.633,0,0,1-.993-2.153l.018-.053h1.652a1.59,1.59,0,0,0,.685,1.342,2.655,2.655,0,0,0,1.5.424,2.443,2.443,0,0,0,1.445-.373A1.151,1.151,0,0,0,401.7,2522.623Z" transform="translate(-184.986 -2473.213)" fill="#073360"/>
    </g>
    <rect id="Rectángulo_24504" data-name="Rectángulo 24504" width="2.249" height="44.936" transform="translate(842.061 2296.735)" fill="#3d84cb"/>
    <rect id="Rectángulo_24505" data-name="Rectángulo 24505" width="374.62" height="2.249" transform="translate(656.267 2341.466)" fill="#3d84cb"/>
    <rect id="Rectángulo_24506" data-name="Rectángulo 24506" width="2.249" height="44.936" transform="translate(657.001 2429.92)" fill="#72ac4d"/>
    <rect id="Rectángulo_24507" data-name="Rectángulo 24507" width="2.249" height="44.937" transform="translate(749.409 2474.675)" fill="#72ac4d"/>
    <rect id="Rectángulo_24508" data-name="Rectángulo 24508" width="2.249" height="44.937" transform="translate(563.664 2474.675)" fill="#72ac4d"/>
    <rect id="Rectángulo_24509" data-name="Rectángulo 24509" width="186.87" height="2.249" transform="translate(564.788 2474.65)" fill="#72ac4d"/>
    <rect id="Rectángulo_24510" data-name="Rectángulo 24510" width="2.249" height="44.936" transform="translate(1029.665 2429.92)" fill="#72ac4d"/>
    <rect id="Rectángulo_24511" data-name="Rectángulo 24511" width="2.249" height="44.937" transform="translate(1122.073 2474.675)" fill="#72ac4d"/>
    <rect id="Rectángulo_24512" data-name="Rectángulo 24512" width="2.249" height="44.937" transform="translate(936.328 2474.675)" fill="#72ac4d"/>
    <rect id="Rectángulo_24513" data-name="Rectángulo 24513" width="186.87" height="2.249" transform="translate(937.452 2474.65)" fill="#72ac4d"/>
    <rect id="Rectángulo_24514" data-name="Rectángulo 24514" width="2.249" height="26.539" transform="translate(1028.638 2341.671)" fill="#3d84cb"/>
    <rect id="Rectángulo_24515" data-name="Rectángulo 24515" width="2.249" height="26.539" transform="translate(656.267 2341.671)" fill="#3d84cb"/>
    <rect id="Rectángulo_24516" data-name="Rectángulo 24516" width="216.297" height="74.017" rx="6.609" transform="translate(736.606 2243.974)" fill="#989898"/>
    <rect id="Rectángulo_24517" data-name="Rectángulo 24517" width="144.333" height="98.678" rx="6.609" transform="translate(585.323 2358.473)" fill="#5e9cd3"/>
    <rect id="Rectángulo_24518" data-name="Rectángulo 24518" width="144.333" height="98.678" rx="6.609" transform="translate(677.242 2493.418)" fill="#72ac4d"/>
    <g id="Grupo_85002" data-name="Grupo 85002" transform="translate(621.579 2395.802)">
      <g id="Grupo_85001" data-name="Grupo 85001">
        <path id="Trazado_191981" data-name="Trazado 191981" d="M577.518,2389.4v7.354h-4.467v-19.187h7.379a8.292,8.292,0,0,1,5.283,1.542,5.082,5.082,0,0,1,1.951,4.217,4.2,4.2,0,0,1-.785,2.557,5.556,5.556,0,0,1-2.312,1.74,4.3,4.3,0,0,1,2.537,1.665,5.161,5.161,0,0,1,.77,2.906v1.212a7.717,7.717,0,0,0,.224,1.714,2.266,2.266,0,0,0,.778,1.37v.264h-4.586a2.2,2.2,0,0,1-.693-1.45,12.473,12.473,0,0,1-.164-1.924v-1.161a2.841,2.841,0,0,0-.724-2.095,2.877,2.877,0,0,0-2.121-.724Zm0-3.425h2.938a3.067,3.067,0,0,0,2.057-.613,2.2,2.2,0,0,0,.711-1.76,2.526,2.526,0,0,0-.731-1.89,2.818,2.818,0,0,0-2.062-.719h-2.913Z" transform="translate(-573.051 -2375.924)" fill="#fff"/>
        <path id="Trazado_191982" data-name="Trazado 191982" d="M595.236,2396.518a6.606,6.606,0,0,1-5.027-1.977,6.909,6.909,0,0,1-1.878-4.955v-.5a8.068,8.068,0,0,1,1.706-5.316,6.828,6.828,0,0,1,9.428-.31,6.582,6.582,0,0,1,1.648,4.719v2.331H592.97l-.027.079a2.911,2.911,0,0,0,.9,1.8,2.809,2.809,0,0,0,2,.705,8.31,8.31,0,0,0,2.022-.2,14.81,14.81,0,0,0,1.916-.685l1.055,2.714a8.112,8.112,0,0,1-2.417,1.139A10.8,10.8,0,0,1,595.236,2396.518Zm-.316-11.372a1.647,1.647,0,0,0-1.443.686,3.743,3.743,0,0,0-.586,1.832l.039.065h3.835v-.342a2.667,2.667,0,0,0-.449-1.661A1.651,1.651,0,0,0,594.92,2385.146Z" transform="translate(-571.148 -2375.407)" fill="#fff"/>
        <path id="Trazado_191983" data-name="Trazado 191983" d="M602.445,2396.94v-11.174h-2.057v-3.083h2.057v-1.477a4.8,4.8,0,0,1,1.475-3.782,6.063,6.063,0,0,1,4.178-1.318,7.549,7.549,0,0,1,1.028.073q.526.073,1.173.2l-.329,3.281q-.356-.066-.639-.1a6.393,6.393,0,0,0-.693-.032,1.757,1.757,0,0,0-1.277.435,1.645,1.645,0,0,0-.449,1.238v1.477h2.767v3.083h-2.767v11.174Z" transform="translate(-569.646 -2376.106)" fill="#fff"/>
        <path id="Trazado_191984" data-name="Trazado 191984" d="M614.989,2395.048h-4.44V2391.3h4.44Z" transform="translate(-568.381 -2374.213)" fill="#fff"/>
        <path id="Trazado_191985" data-name="Trazado 191985" d="M632.6,2396.76h-4.442V2382.04h-4.281V2378.9l8.723-1.345Z" transform="translate(-566.722 -2375.925)" fill="#fff"/>
      </g>
    </g>
    <g id="Grupo_85004" data-name="Grupo 85004" transform="translate(707.904 2527.211)">
      <g id="Grupo_85003" data-name="Grupo 85003">
        <path id="Trazado_191986" data-name="Trazado 191986" d="M654.283,2506.79v6.576h-4.467v-19.185H657.6a7.956,7.956,0,0,1,5.416,1.745,6.2,6.2,0,0,1,0,9.133,7.99,7.99,0,0,1-5.416,1.731Zm0-3.423H657.6a2.9,2.9,0,0,0,2.207-.8,2.857,2.857,0,0,0,.758-2.05,2.959,2.959,0,0,0-.758-2.095,2.863,2.863,0,0,0-2.207-.818h-3.321Z" transform="translate(-649.816 -2492.81)" fill="#fff"/>
        <path id="Trazado_191987" data-name="Trazado 191987" d="M673.406,2502.52l-1.62-.013a2.683,2.683,0,0,0-1.253.256,1.64,1.64,0,0,0-.724.732v9.354h-4.454v-14.257h4.19l.159,2.1a4.3,4.3,0,0,1,1.186-1.74,2.6,2.6,0,0,1,1.726-.619,4.728,4.728,0,0,1,.646.046,4.992,4.992,0,0,1,.58.112Z" transform="translate(-647.881 -2492.294)" fill="#fff"/>
        <path id="Trazado_191988" data-name="Trazado 191988" d="M673.463,2505.588a7.536,7.536,0,0,1,1.818-5.236,7.389,7.389,0,0,1,10.159,0,7.535,7.535,0,0,1,1.818,5.236v.277a7.531,7.531,0,0,1-1.818,5.245,7.406,7.406,0,0,1-10.159,0,7.532,7.532,0,0,1-1.818-5.245Zm4.453.277a5.892,5.892,0,0,0,.56,2.813,1.992,1.992,0,0,0,1.9,1.021,1.968,1.968,0,0,0,1.871-1.028,5.854,5.854,0,0,0,.566-2.807v-.277a5.881,5.881,0,0,0-.566-2.785,1.985,1.985,0,0,0-1.9-1.047,1.957,1.957,0,0,0-1.878,1.054,5.932,5.932,0,0,0-.56,2.779Z" transform="translate(-646.871 -2492.294)" fill="#fff"/>
        <path id="Trazado_191989" data-name="Trazado 191989" d="M686.95,2506.415a9.069,9.069,0,0,1,1.456-5.375,4.746,4.746,0,0,1,4.1-2.042,3.544,3.544,0,0,1,1.786.454,4.728,4.728,0,0,1,1.43,1.3v-7.789h4.453v20.555H696.32l-.316-1.753a4.818,4.818,0,0,1-1.535,1.509,3.809,3.809,0,0,1-1.984.521,4.789,4.789,0,0,1-4.084-1.95,8.427,8.427,0,0,1-1.451-5.153Zm4.454.277a5.918,5.918,0,0,0,.507,2.708,1.774,1.774,0,0,0,1.707.968,2.806,2.806,0,0,0,1.231-.256,2.208,2.208,0,0,0,.877-.758V2503.6a2.428,2.428,0,0,0-.87-.87,2.4,2.4,0,0,0-1.212-.3,1.776,1.776,0,0,0-1.713,1.094,6.715,6.715,0,0,0-.527,2.9Z" transform="translate(-645.191 -2492.962)" fill="#fff"/>
        <path id="Trazado_191990" data-name="Trazado 191990" d="M705.875,2511.656h-4.441v-3.742h4.441Z" transform="translate(-643.387 -2491.1)" fill="#fff"/>
        <path id="Trazado_191991" data-name="Trazado 191991" d="M727.575,2513.4H714.148v-2.9l6.166-6.482a13.034,13.034,0,0,0,1.727-2.4,4.075,4.075,0,0,0,.553-1.831,2.637,2.637,0,0,0-.56-1.767,2.085,2.085,0,0,0-1.68-.659,1.8,1.8,0,0,0-1.576.85,3.8,3.8,0,0,0-.574,2.168h-4.348l-.027-.079a6,6,0,0,1,1.74-4.514,6.375,6.375,0,0,1,4.784-1.852,7.233,7.233,0,0,1,4.934,1.555,5.37,5.37,0,0,1,1.772,4.257,5.61,5.61,0,0,1-.942,3.216,40.538,40.538,0,0,1-3.471,4.148l-2.6,2.781.039.079h7.485Z" transform="translate(-641.844 -2492.841)" fill="#fff"/>
      </g>
    </g>
    <rect id="Rectángulo_24519" data-name="Rectángulo 24519" width="144.333" height="98.678" rx="6.609" transform="translate(491.497 2493.418)" fill="#72ac4d"/>
    <g id="Grupo_85006" data-name="Grupo 85006" transform="translate(522.159 2527.211)">
      <g id="Grupo_85005" data-name="Grupo 85005">
        <path id="Trazado_191992" data-name="Trazado 191992" d="M489.11,2506.79v6.576h-4.468v-19.185h7.789a7.958,7.958,0,0,1,5.416,1.745,6.207,6.207,0,0,1,0,9.133,7.992,7.992,0,0,1-5.416,1.731Zm0-3.423h3.321a2.907,2.907,0,0,0,2.208-.8,2.861,2.861,0,0,0,.757-2.05,2.963,2.963,0,0,0-.757-2.095,2.867,2.867,0,0,0-2.208-.818H489.11Z" transform="translate(-484.642 -2492.81)" fill="#fff"/>
        <path id="Trazado_191993" data-name="Trazado 191993" d="M508.232,2502.52l-1.62-.013a2.686,2.686,0,0,0-1.253.256,1.64,1.64,0,0,0-.724.732v9.354H500.18v-14.257h4.19l.159,2.1a4.3,4.3,0,0,1,1.186-1.74,2.6,2.6,0,0,1,1.726-.619,4.727,4.727,0,0,1,.646.046,4.992,4.992,0,0,1,.58.112Z" transform="translate(-482.707 -2492.294)" fill="#fff"/>
        <path id="Trazado_191994" data-name="Trazado 191994" d="M508.289,2505.588a7.535,7.535,0,0,1,1.818-5.236,7.389,7.389,0,0,1,10.159,0,7.535,7.535,0,0,1,1.818,5.236v.277a7.531,7.531,0,0,1-1.818,5.245,7.406,7.406,0,0,1-10.159,0,7.531,7.531,0,0,1-1.818-5.245Zm4.453.277a5.892,5.892,0,0,0,.56,2.813,1.992,1.992,0,0,0,1.9,1.021,1.968,1.968,0,0,0,1.871-1.028,5.852,5.852,0,0,0,.567-2.807v-.277a5.88,5.88,0,0,0-.567-2.785,1.985,1.985,0,0,0-1.9-1.047,1.957,1.957,0,0,0-1.878,1.054,5.932,5.932,0,0,0-.56,2.779Z" transform="translate(-481.697 -2492.294)" fill="#fff"/>
        <path id="Trazado_191995" data-name="Trazado 191995" d="M521.777,2506.415a9.06,9.06,0,0,1,1.456-5.375,4.743,4.743,0,0,1,4.1-2.042,3.545,3.545,0,0,1,1.786.454,4.728,4.728,0,0,1,1.43,1.3v-7.789h4.453v20.555h-3.861l-.316-1.753a4.82,4.82,0,0,1-1.535,1.509,3.809,3.809,0,0,1-1.984.521,4.792,4.792,0,0,1-4.084-1.95,8.427,8.427,0,0,1-1.45-5.153Zm4.453.277a5.919,5.919,0,0,0,.507,2.708,1.774,1.774,0,0,0,1.707.968,2.815,2.815,0,0,0,1.233-.256,2.212,2.212,0,0,0,.876-.758V2503.6a2.427,2.427,0,0,0-.87-.87,2.393,2.393,0,0,0-1.212-.3,1.776,1.776,0,0,0-1.713,1.094,6.715,6.715,0,0,0-.527,2.9Z" transform="translate(-480.017 -2492.962)" fill="#fff"/>
        <path id="Trazado_191996" data-name="Trazado 191996" d="M540.7,2511.656H536.26v-3.742H540.7Z" transform="translate(-478.213 -2491.1)" fill="#fff"/>
        <path id="Trazado_191997" data-name="Trazado 191997" d="M558.307,2513.367h-4.442v-14.718h-4.282v-3.136l8.724-1.344Z" transform="translate(-476.554 -2492.812)" fill="#fff"/>
      </g>
    </g>
    <rect id="Rectángulo_24520" data-name="Rectángulo 24520" width="144.333" height="98.678" rx="6.609" transform="translate(1050.469 2493.418)" fill="#72ac4d"/>
    <g id="Grupo_85008" data-name="Grupo 85008" transform="translate(1081.131 2527.211)">
      <g id="Grupo_85007" data-name="Grupo 85007">
        <path id="Trazado_191998" data-name="Trazado 191998" d="M986.175,2506.79v6.576h-4.467v-19.185H989.5a7.958,7.958,0,0,1,5.416,1.745,6.207,6.207,0,0,1,0,9.133,7.992,7.992,0,0,1-5.416,1.731Zm0-3.423H989.5a2.907,2.907,0,0,0,2.208-.8,2.856,2.856,0,0,0,.757-2.05,2.958,2.958,0,0,0-.757-2.095,2.867,2.867,0,0,0-2.208-.818h-3.321Z" transform="translate(-981.708 -2492.81)" fill="#fff"/>
        <path id="Trazado_191999" data-name="Trazado 191999" d="M1005.3,2502.52l-1.622-.013a2.681,2.681,0,0,0-1.252.256,1.648,1.648,0,0,0-.725.732v9.354h-4.453v-14.257h4.19l.159,2.1a4.3,4.3,0,0,1,1.185-1.74,2.6,2.6,0,0,1,1.726-.619,4.74,4.74,0,0,1,.646.046,4.926,4.926,0,0,1,.579.112Z" transform="translate(-979.773 -2492.294)" fill="#fff"/>
        <path id="Trazado_192000" data-name="Trazado 192000" d="M1005.354,2505.588a7.536,7.536,0,0,1,1.818-5.236,7.391,7.391,0,0,1,10.16,0,7.535,7.535,0,0,1,1.818,5.236v.277a7.531,7.531,0,0,1-1.818,5.245,7.408,7.408,0,0,1-10.16,0,7.532,7.532,0,0,1-1.818-5.245Zm4.454.277a5.891,5.891,0,0,0,.56,2.813,1.991,1.991,0,0,0,1.9,1.021,1.967,1.967,0,0,0,1.871-1.028,5.84,5.84,0,0,0,.567-2.807v-.277a5.867,5.867,0,0,0-.567-2.785,1.984,1.984,0,0,0-1.9-1.047,1.956,1.956,0,0,0-1.878,1.054,5.931,5.931,0,0,0-.56,2.779Z" transform="translate(-978.763 -2492.294)" fill="#fff"/>
        <path id="Trazado_192001" data-name="Trazado 192001" d="M1018.842,2506.415a9.069,9.069,0,0,1,1.456-5.375,4.746,4.746,0,0,1,4.1-2.042,3.547,3.547,0,0,1,1.786.454,4.738,4.738,0,0,1,1.429,1.3v-7.789h4.454v20.555h-3.861l-.317-1.753a4.8,4.8,0,0,1-1.535,1.509,3.8,3.8,0,0,1-1.984.521,4.792,4.792,0,0,1-4.084-1.95,8.433,8.433,0,0,1-1.45-5.153Zm4.453.277a5.917,5.917,0,0,0,.508,2.708,1.771,1.771,0,0,0,1.706.968,2.81,2.81,0,0,0,1.232-.256,2.213,2.213,0,0,0,.876-.758V2503.6a2.434,2.434,0,0,0-.869-.87,2.4,2.4,0,0,0-1.212-.3,1.779,1.779,0,0,0-1.714,1.094,6.733,6.733,0,0,0-.527,2.9Z" transform="translate(-977.083 -2492.962)" fill="#fff"/>
        <path id="Trazado_192002" data-name="Trazado 192002" d="M1037.766,2511.656h-4.441v-3.742h4.441Z" transform="translate(-975.279 -2491.1)" fill="#fff"/>
        <path id="Trazado_192003" data-name="Trazado 192003" d="M1059.467,2513.4h-13.428v-2.9l6.167-6.482a13.023,13.023,0,0,0,1.726-2.4,4.076,4.076,0,0,0,.553-1.831,2.637,2.637,0,0,0-.56-1.767,2.085,2.085,0,0,0-1.68-.659,1.8,1.8,0,0,0-1.574.85,3.8,3.8,0,0,0-.573,2.168h-4.349l-.026-.079a5.993,5.993,0,0,1,1.74-4.514,6.374,6.374,0,0,1,4.783-1.852,7.232,7.232,0,0,1,4.935,1.555,5.371,5.371,0,0,1,1.773,4.257,5.619,5.619,0,0,1-.942,3.216,40.624,40.624,0,0,1-3.473,4.148l-2.6,2.781.039.079h7.485Z" transform="translate(-973.736 -2492.841)" fill="#fff"/>
      </g>
    </g>
    <rect id="Rectángulo_24521" data-name="Rectángulo 24521" width="144.333" height="98.678" rx="6.609" transform="translate(864.723 2493.418)" fill="#72ac4d"/>
    <g id="Grupo_85010" data-name="Grupo 85010" transform="translate(895.386 2527.211)">
      <g id="Grupo_85009" data-name="Grupo 85009">
        <path id="Trazado_192004" data-name="Trazado 192004" d="M821,2506.79v6.576h-4.467v-19.185h7.787a7.956,7.956,0,0,1,5.416,1.745,6.207,6.207,0,0,1,0,9.133,7.99,7.99,0,0,1-5.416,1.731Zm0-3.423h3.321a2.907,2.907,0,0,0,2.207-.8,2.856,2.856,0,0,0,.757-2.05,2.958,2.958,0,0,0-.757-2.095,2.866,2.866,0,0,0-2.207-.818H821Z" transform="translate(-816.534 -2492.81)" fill="#fff"/>
        <path id="Trazado_192005" data-name="Trazado 192005" d="M840.123,2502.52l-1.621-.013a2.681,2.681,0,0,0-1.252.256,1.643,1.643,0,0,0-.725.732v9.354h-4.453v-14.257h4.19l.157,2.1a4.3,4.3,0,0,1,1.186-1.74,2.6,2.6,0,0,1,1.726-.619,4.715,4.715,0,0,1,.646.046,4.947,4.947,0,0,1,.58.112Z" transform="translate(-814.599 -2492.294)" fill="#fff"/>
        <path id="Trazado_192006" data-name="Trazado 192006" d="M840.18,2505.588a7.531,7.531,0,0,1,1.82-5.236,7.389,7.389,0,0,1,10.159,0,7.535,7.535,0,0,1,1.818,5.236v.277a7.531,7.531,0,0,1-1.818,5.245,7.406,7.406,0,0,1-10.159,0,7.527,7.527,0,0,1-1.82-5.245Zm4.453.277a5.893,5.893,0,0,0,.56,2.813,1.992,1.992,0,0,0,1.9,1.021,1.968,1.968,0,0,0,1.871-1.028,5.84,5.84,0,0,0,.567-2.807v-.277a5.867,5.867,0,0,0-.567-2.785,1.985,1.985,0,0,0-1.9-1.047,1.957,1.957,0,0,0-1.878,1.054,5.933,5.933,0,0,0-.56,2.779Z" transform="translate(-813.589 -2492.294)" fill="#fff"/>
        <path id="Trazado_192007" data-name="Trazado 192007" d="M853.668,2506.415a9.061,9.061,0,0,1,1.456-5.375,4.747,4.747,0,0,1,4.1-2.042,3.547,3.547,0,0,1,1.786.454,4.724,4.724,0,0,1,1.429,1.3v-7.789H866.9v20.555h-3.859l-.316-1.753a4.811,4.811,0,0,1-1.536,1.509,3.8,3.8,0,0,1-1.983.521,4.793,4.793,0,0,1-4.085-1.95,8.426,8.426,0,0,1-1.449-5.153Zm4.454.277a5.918,5.918,0,0,0,.507,2.708,1.772,1.772,0,0,0,1.706.968,2.811,2.811,0,0,0,1.233-.256,2.2,2.2,0,0,0,.876-.758V2503.6a2.433,2.433,0,0,0-.869-.87,2.4,2.4,0,0,0-1.212-.3,1.779,1.779,0,0,0-1.714,1.094,6.734,6.734,0,0,0-.526,2.9Z" transform="translate(-811.909 -2492.962)" fill="#fff"/>
        <path id="Trazado_192008" data-name="Trazado 192008" d="M872.592,2511.656h-4.441v-3.742h4.441Z" transform="translate(-810.105 -2491.1)" fill="#fff"/>
        <path id="Trazado_192009" data-name="Trazado 192009" d="M890.2,2513.367h-4.441v-14.718h-4.283v-3.136l8.724-1.344Z" transform="translate(-808.446 -2492.812)" fill="#fff"/>
      </g>
    </g>
    <rect id="Rectángulo_24522" data-name="Rectángulo 24522" width="144.333" height="98.678" rx="6.609" transform="translate(956.471 2358.668)" fill="#5e9cd3"/>
    <g id="Grupo_85012" data-name="Grupo 85012" transform="translate(992.727 2395.802)">
      <g id="Grupo_85011" data-name="Grupo 85011">
        <path id="Trazado_192010" data-name="Trazado 192010" d="M907.561,2389.4v7.354h-4.467v-19.187h7.379a8.293,8.293,0,0,1,5.284,1.542,5.085,5.085,0,0,1,1.951,4.217,4.2,4.2,0,0,1-.785,2.557,5.563,5.563,0,0,1-2.312,1.74,4.3,4.3,0,0,1,2.537,1.665,5.161,5.161,0,0,1,.77,2.906v1.212a7.718,7.718,0,0,0,.224,1.714,2.266,2.266,0,0,0,.778,1.37v.264h-4.586a2.2,2.2,0,0,1-.693-1.45,12.48,12.48,0,0,1-.164-1.924v-1.161a2.836,2.836,0,0,0-.725-2.095,2.875,2.875,0,0,0-2.121-.724Zm0-3.425H910.5a3.067,3.067,0,0,0,2.057-.613,2.2,2.2,0,0,0,.711-1.76,2.525,2.525,0,0,0-.731-1.89,2.818,2.818,0,0,0-2.062-.719h-2.913Z" transform="translate(-903.094 -2375.924)" fill="#fff"/>
        <path id="Trazado_192011" data-name="Trazado 192011" d="M925.279,2396.518a6.6,6.6,0,0,1-5.026-1.977,6.909,6.909,0,0,1-1.878-4.955v-.5a8.068,8.068,0,0,1,1.706-5.316,6.828,6.828,0,0,1,9.428-.31,6.582,6.582,0,0,1,1.647,4.719v2.331h-8.144l-.027.079a2.911,2.911,0,0,0,.9,1.8,2.809,2.809,0,0,0,2,.705,8.313,8.313,0,0,0,2.023-.2,14.752,14.752,0,0,0,1.917-.685l1.055,2.714a8.1,8.1,0,0,1-2.419,1.139A10.784,10.784,0,0,1,925.279,2396.518Zm-.316-11.372a1.647,1.647,0,0,0-1.443.686,3.754,3.754,0,0,0-.587,1.832l.041.065h3.835v-.342a2.666,2.666,0,0,0-.449-1.661A1.651,1.651,0,0,0,924.963,2385.146Z" transform="translate(-901.191 -2375.407)" fill="#fff"/>
        <path id="Trazado_192012" data-name="Trazado 192012" d="M932.489,2396.94v-11.174h-2.057v-3.083h2.057v-1.477a4.8,4.8,0,0,1,1.475-3.782,6.058,6.058,0,0,1,4.177-1.318,7.547,7.547,0,0,1,1.028.073q.526.073,1.173.2l-.33,3.281q-.356-.066-.639-.1a6.393,6.393,0,0,0-.693-.032,1.757,1.757,0,0,0-1.277.435,1.645,1.645,0,0,0-.449,1.238v1.477h2.768v3.083h-2.768v11.174Z" transform="translate(-899.689 -2376.106)" fill="#fff"/>
        <path id="Trazado_192013" data-name="Trazado 192013" d="M945.033,2395.048h-4.441V2391.3h4.441Z" transform="translate(-898.424 -2374.213)" fill="#fff"/>
        <path id="Trazado_192014" data-name="Trazado 192014" d="M966.733,2396.789H953.305v-2.9l6.168-6.483a13.027,13.027,0,0,0,1.726-2.4,4.08,4.08,0,0,0,.553-1.832,2.637,2.637,0,0,0-.56-1.766,2.081,2.081,0,0,0-1.68-.659,1.8,1.8,0,0,0-1.575.85,3.805,3.805,0,0,0-.572,2.168h-4.35l-.026-.08a6,6,0,0,1,1.74-4.513,6.376,6.376,0,0,1,4.784-1.852,7.227,7.227,0,0,1,4.933,1.555,5.369,5.369,0,0,1,1.773,4.256,5.619,5.619,0,0,1-.942,3.215,40.582,40.582,0,0,1-3.472,4.15l-2.6,2.78.039.08h7.485Z" transform="translate(-896.88 -2375.954)" fill="#fff"/>
      </g>
    </g>
    <text id="Líneas" transform="translate(791.405 2265.26)" fill="#fff" font-size="24" font-family="Roboto-Black, Roboto" font-weight="800"><tspan x="-35.742" y="25">Líneas</tspan></text>
  </g>
</svg>
