<svg xmlns="http://www.w3.org/2000/svg" width="1240" height="469.768" viewBox="0 0 1240 469.768">
  <g id="Grupo_84577" data-name="Grupo 84577" transform="translate(-97.202 -53.978)">
    <path id="Trazado_190435" data-name="Trazado 190435" d="M444.513,54.471H326.6V90.942H481.319V54.471Z" transform="translate(28.198 0.007)" fill="#da6e5f" stroke="#da6e5f" stroke-miterlimit="10" stroke-width="1"/>
    <text id="tiene_la_finalidad_de_" data-name="tiene la finalidad de " transform="translate(425.428 162.398)" fill="#073360" font-size="16" font-family="Roboto-Black, Roboto" font-weight="800"><tspan x="-72.926" y="0">tiene la finalidad de </tspan></text>
    <text id="es" transform="translate(159.933 158.297)" fill="#073360" font-size="16" font-family="Roboto-Black, Roboto" font-weight="800"><tspan x="-8.453" y="0">es</tspan></text>
    <text id="_usualmente" data-name=" usualmente" transform="translate(156.63 302.422)" fill="#073360" font-size="16" font-family="Roboto-Black, Roboto" font-weight="800"><tspan x="-44.418" y="0" xml:space="preserve"> usualmente</tspan></text>
    <text id="La_etiqueta" data-name="La etiqueta" transform="translate(431.763 78.411)" fill="#fff" font-size="23" font-family="Roboto-Black, Roboto" font-weight="800"><tspan x="-57.831" y="0">La etiqueta</tspan></text>
    <path id="Trazado_190436" data-name="Trazado 190436" d="M1134.189,54.471H884.349V90.942h327.822V54.471Z" transform="translate(96.758 0.007)" fill="#da6e5f" stroke="#da6e5f" stroke-miterlimit="10" stroke-width="1"/>
    <text id="Esta_información_puede_cambiar_" data-name="Esta información puede cambiar " transform="translate(1142.578 78.78)" fill="#fff" font-size="20" font-family="Roboto-Black, Roboto" font-weight="800"><tspan x="-148.33" y="0">Esta información puede cambiar </tspan></text>
    <path id="Trazado_190437" data-name="Trazado 190437" d="M356.647,123.952H312.095v49H499.386v-49H356.647Z" transform="translate(26.415 8.548)" fill="none" stroke="#da6e5f" stroke-miterlimit="10" stroke-width="2"/>
    <text id="Brinda_información_" data-name="Brinda información  " transform="translate(639.857 128.151)" fill="#073360" font-size="16" font-family="Roboto-Black, Roboto" font-weight="800"><tspan x="-73.254" y="0" xml:space="preserve">Brinda información  </tspan></text>
    <path id="Trazado_190438" data-name="Trazado 190438" d="M546.661,98.974h-42.1v41.688H681.544V98.974H546.661Z" transform="translate(50.074 5.478)" fill="none" stroke="#da6e5f" stroke-miterlimit="10" stroke-width="2"/>
    <text id="Se_debe_resaltar_que_" data-name="Se debe resaltar que  " transform="translate(854.551 128.151)" fill="#073360" font-size="16" font-family="Roboto-Black, Roboto" font-weight="800"><tspan x="-78.355" y="0" xml:space="preserve">Se debe resaltar que  </tspan></text>
    <text id="de_acuerdo_con_" data-name="de acuerdo con  " transform="translate(1126.701 128.151)" fill="#073360" font-size="16" font-family="Roboto-Black, Roboto" font-weight="800"><tspan x="-59.277" y="0" xml:space="preserve">de acuerdo con  </tspan></text>
    <path id="Trazado_190439" data-name="Trazado 190439" d="M738.4,98.974H696.3v41.688H873.283V98.974H738.4Z" transform="translate(73.643 5.478)" fill="none" stroke="#da6e5f" stroke-miterlimit="10" stroke-width="2"/>
    <path id="Trazado_190440" data-name="Trazado 190440" d="M982.106,98.974H944.444v41.688h158.325V98.974H982.106Z" transform="translate(104.146 5.478)" fill="none" stroke="#da6e5f" stroke-miterlimit="10" stroke-width="2"/>
    <path id="Trazado_190441" data-name="Trazado 190441" d="M135.442,123.952H111.93v49h98.843v-49H135.442Z" transform="translate(1.81 8.548)" fill="none" stroke="#da6e5f" stroke-miterlimit="10" stroke-width="2"/>
    <path id="Trazado_190442" data-name="Trazado 190442" d="M133.349,256.6H107.435v35.039H216.373V256.6H133.349Z" transform="translate(1.258 24.853)" fill="none" stroke="#3d84cb" stroke-miterlimit="10" stroke-width="2"/>
    <text id="principalmente_" data-name="principalmente  " transform="translate(426.149 367.038)" fill="#073360" font-size="16" font-family="Roboto-Black, Roboto" font-weight="800"><tspan x="-58.395" y="0" xml:space="preserve">principalmente  </tspan></text>
    <text id="Como_" data-name="Como  " transform="translate(754.456 267.44)" fill="#073360" font-size="16" font-family="Roboto-Black, Roboto" font-weight="800"><tspan x="-25.109" y="0" xml:space="preserve">Como  </tspan></text>
    <path id="Trazado_190443" data-name="Trazado 190443" d="M356.647,306.191H312.095v49H499.386v-49H356.647Z" transform="translate(26.415 30.95)" fill="none" stroke="#3d84cb" stroke-miterlimit="10" stroke-width="2"/>
    <path id="Trazado_190444" data-name="Trazado 190444" d="M666.671,224.075H647.66v36.386h79.92V224.075H666.671Z" transform="translate(67.664 20.856)" fill="none" stroke="#3d84cb" stroke-miterlimit="10" stroke-width="2"/>
    <line id="Línea_220" data-name="Línea 220" y2="44.871" transform="translate(433.408 87.153)" fill="none" stroke="#da6e5f" stroke-miterlimit="10" stroke-width="2"/>
    <line id="Línea_221" data-name="Línea 221" y2="17.299" transform="translate(1130.584 87.153)" fill="none" stroke="#da6e5f" stroke-miterlimit="10" stroke-width="2"/>
    <line id="Línea_222" data-name="Línea 222" y2="44.871" transform="translate(433.969 181.498)" fill="none" stroke="#da6e5f" stroke-miterlimit="10" stroke-width="2"/>
    <line id="Línea_223" data-name="Línea 223" y2="44.871" transform="translate(433.969 292.27)" fill="none" stroke="#3d84cb" stroke-miterlimit="10" stroke-width="2"/>
    <line id="Línea_224" data-name="Línea 224" y2="44.871" transform="translate(756.407 200.237)" fill="none" stroke="#3d84cb" stroke-miterlimit="10" stroke-width="2"/>
    <line id="Línea_225" data-name="Línea 225" y2="31.905" transform="translate(163.162 249.864)" fill="none" stroke="#3d84cb" stroke-miterlimit="10" stroke-width="2"/>
    <line id="Línea_226" data-name="Línea 226" y2="31.905" transform="translate(163.162 316.488)" fill="none" stroke="#3d84cb" stroke-miterlimit="10" stroke-width="2"/>
    <line id="Línea_227" data-name="Línea 227" y2="44.871" transform="translate(433.969 386.138)" fill="none" stroke="#3d84cb" stroke-miterlimit="10" stroke-width="2"/>
    <path id="Trazado_190445" data-name="Trazado 190445" d="M465.32,196.594H297.358v85.449H517.745V196.594Z" transform="translate(24.604 17.478)" fill="#3d84cb"/>
    <text id="informar_al_cliente_acerca_de_los_principales_atributos_del_producto" data-name="informar al cliente acerca de los principales atributos del producto" transform="translate(333.465 215.731)" fill="#fff" font-size="16" font-family="Roboto-Black, Roboto" font-weight="800"><tspan x="6.327" y="17">informar al cliente acerca </tspan><tspan x="0.608" y="33">de los principales atributos </tspan><tspan x="53.468" y="49">del producto</tspan></text>
    <path id="Trazado_190446" data-name="Trazado 190446" d="M356.175,408.768h-76.8v35.161h100.77V408.768Z" transform="translate(22.393 43.559)" fill="#3d84cb"/>
    <text id="el_nombre" data-name="el nombre" transform="translate(302.843 453.986)" fill="#fff" font-size="16" font-family="Roboto-Black, Roboto" font-weight="800"><tspan x="12.637" y="17">el nombre</tspan></text>
    <path id="Trazado_190447" data-name="Trazado 190447" d="M501.784,408.768h-76.8v35.161h100.77V408.768Z" transform="translate(40.292 43.559)" fill="#3d84cb"/>
    <text id="la_marca._" data-name="la marca. " transform="translate(466.351 453.986)" fill="#fff" font-size="16" font-family="Roboto-Black, Roboto" font-weight="800"><tspan x="15.618" y="17">la marca. </tspan></text>
    <path id="Trazado_190448" data-name="Trazado 190448" d="M604.737,218.985H513.724v35.161h119.42V218.985Z" transform="translate(51.2 20.23)" fill="#3d84cb"/>
    <text id="ingredientes_" data-name="ingredientes " transform="translate(571.015 243.018)" fill="#fff" font-size="16" font-family="Roboto-Black, Roboto" font-weight="800"><tspan x="6.605" y="17">ingredientes </tspan></text>
    <path id="Trazado_190449" data-name="Trazado 190449" d="M587.128,276.134h-96.95V311.3H617.388V276.134Z" transform="translate(48.306 27.255)" fill="#3d84cb"/>
    <text id="componentes" transform="translate(543.32 307.192)" fill="#fff" font-size="16" font-family="Roboto-Black, Roboto" font-weight="800"><tspan x="7.301" y="17">componentes</tspan></text>
    <path id="Trazado_190450" data-name="Trazado 190450" d="M576.958,325.177h-76.8v35.161h100.77V325.177Z" transform="translate(49.533 33.283)" fill="#3d84cb"/>
    <text id="peso_" data-name="peso " transform="translate(560.432 360.12)" fill="#fff" font-size="16" font-family="Roboto-Black, Roboto" font-weight="800"><tspan x="21.853" y="17">peso </tspan></text>
    <path id="Trazado_190451" data-name="Trazado 190451" d="M590.523,366.972h-76.8v35.161h100.77V366.972Z" transform="translate(51.2 38.421)" fill="#3d84cb"/>
    <text id="tamaño_" data-name="tamaño " transform="translate(565.998 410.568)" fill="#fff" font-size="16" font-family="Roboto-Black, Roboto" font-weight="800"><tspan x="21.836" y="17">tamaño </tspan></text>
    <path id="Trazado_190452" data-name="Trazado 190452" d="M629.732,413.558H539.985v48.53h117.76v-48.53Z" transform="translate(54.428 44.147)" fill="#3d84cb"/>
    <text id="indicaciones_para_su_uso_" data-name="indicaciones para su uso " transform="translate(597.928 459.366)" fill="#fff" font-size="16" font-family="Roboto-Black, Roboto" font-weight="800"><tspan x="9.594" y="17">indicaciones </tspan><tspan x="13.613" y="33">para su uso </tspan></text>
    <path id="Trazado_190453" data-name="Trazado 190453" d="M726.523,418.349h-76.8v48.335h100.77V418.349Z" transform="translate(67.918 44.736)" fill="#3d84cb"/>
    <text id="modo_de_empleo_" data-name="modo de empleo " transform="translate(718.716 464.745)" fill="#fff" font-size="16" font-family="Roboto-Black, Roboto" font-weight="800"><tspan x="17.747" y="17">modo de </tspan><tspan x="22.172" y="33">empleo </tspan></text>
    <path id="Trazado_190454" data-name="Trazado 190454" d="M841.652,420.606H747.811v35.161H870.942V420.606Z" transform="translate(79.975 45.014)" fill="#3d84cb"/>
    <text id="precauciones_" data-name="precauciones " transform="translate(834.474 467.279)" fill="#fff" font-size="16" font-family="Roboto-Black, Roboto" font-weight="800"><tspan x="6.26" y="17">precauciones </tspan></text>
    <path id="Trazado_190455" data-name="Trazado 190455" d="M946.889,369.823H794.332v49.111H994.506V369.823Z" transform="translate(85.693 38.771)" fill="#3d84cb"/>
    <text id="fecha_de_expedición_y_de_vencimiento_" data-name="fecha de expedición y de vencimiento " transform="translate(889.107 410.254)" fill="#fff" font-size="16" font-family="Roboto-Black, Roboto" font-weight="800"><tspan x="1.082" y="17">fecha de expedición y de </tspan><tspan x="46.035" y="33">vencimiento </tspan></text>
    <path id="Trazado_190456" data-name="Trazado 190456" d="M923.86,313.151H820.419v49.84H956.147v-49.84Z" transform="translate(88.9 31.805)" fill="#3d84cb"/>
    <text id="número_de_lote_" data-name="número de lote  " transform="translate(927.872 348.391)" fill="#fff" font-size="16" font-family="Roboto-Black, Roboto" font-weight="800"><tspan x="10.469" y="17">número de </tspan><tspan x="35.176" y="33" xml:space="preserve">lote  </tspan></text>
    <path id="Trazado_190457" data-name="Trazado 190457" d="M898.8,248.46H799.376v47.517H929.83V248.46Z" transform="translate(86.313 23.853)" fill="#3d84cb"/>
    <text id="instrucciones_generales._" data-name="instrucciones generales.  " transform="translate(885.006 273.972)" fill="#fff" font-size="16" font-family="Roboto-Black, Roboto" font-weight="800"><tspan x="16.503" y="17">instrucciones </tspan><tspan x="27.514" y="33" xml:space="preserve">generales.  </tspan></text>
    <path id="Trazado_190458" data-name="Trazado 190458" d="M727.223,166.167H613.811v42.769H762.622V166.167Z" transform="translate(63.503 13.737)" fill="#3d84cb"/>
    <text id="de_las_características" data-name="de las características" transform="translate(689.564 178.634)" fill="#fff" font-size="16" font-family="Roboto-Black, Roboto" font-weight="800"><tspan x="39.469" y="17">de las </tspan><tspan x="7.184" y="33">características</tspan></text>
    <line id="Línea_228" data-name="Línea 228" x2="164.63" transform="translate(352.154 431.927)" fill="none" stroke="#3d84cb" stroke-miterlimit="10" stroke-width="2"/>
    <line id="Línea_229" data-name="Línea 229" y1="26.501" transform="translate(516.785 431.009)" fill="none" stroke="#3d84cb" stroke-miterlimit="10" stroke-width="2"/>
    <line id="Línea_230" data-name="Línea 230" y1="26.501" transform="translate(352.936 431.009)" fill="none" stroke="#3d84cb" stroke-miterlimit="10" stroke-width="2"/>
    <line id="Línea_231" data-name="Línea 231" y2="44.871" transform="translate(1131.768 146.14)" fill="none" stroke="#da6e5f" stroke-miterlimit="10" stroke-width="2"/>
    <line id="Línea_232" data-name="Línea 232" x2="164.63" transform="translate(1049.953 191.929)" fill="none" stroke="#da6e5f" stroke-miterlimit="10" stroke-width="2"/>
    <line id="Línea_233" data-name="Línea 233" y1="26.501" transform="translate(1214.584 191.011)" fill="none" stroke="#da6e5f" stroke-miterlimit="10" stroke-width="2"/>
    <line id="Línea_234" data-name="Línea 234" y1="26.501" transform="translate(1050.735 191.011)" fill="none" stroke="#da6e5f" stroke-miterlimit="10" stroke-width="2"/>
    <line id="Línea_235" data-name="Línea 235" x1="199.197" transform="translate(162.039 87.153)" fill="none" stroke="#da6e5f" stroke-miterlimit="10" stroke-width="2"/>
    <line id="Línea_236" data-name="Línea 236" y1="46.238" transform="translate(162.039 86.262)" fill="none" stroke="#da6e5f" stroke-miterlimit="10" stroke-width="2"/>
    <line id="Línea_237" data-name="Línea 237" y1="46.238" transform="translate(162.039 180.814)" fill="none" stroke="#da6e5f" stroke-miterlimit="10" stroke-width="2"/>
    <path id="Trazado_190459" data-name="Trazado 190459" d="M197.74,193.98H97.2v52.841H229.121V193.98Z" transform="translate(0 17.156)" fill="#3d84cb"/>
    <text id="_una_parte_del_producto" data-name=" una parte del producto" transform="translate(101.205 214.852)" fill="#fff" font-size="16" font-family="Roboto-Black, Roboto" font-weight="800"><tspan x="12.577" y="17" xml:space="preserve"> una parte del </tspan><tspan x="29.78" y="33">producto</tspan></text>
    <path id="Trazado_190460" data-name="Trazado 190460" d="M197.74,316.212H97.2v52.841H229.121V316.212Z" transform="translate(0 32.181)" fill="#3d84cb"/>
    <text id="adherida_en_el_envase" data-name="adherida en el envase" transform="translate(101.205 352.109)" fill="#fff" font-size="16" font-family="Roboto-Black, Roboto" font-weight="800"><tspan x="10.956" y="17">adherida en el </tspan><tspan x="36.315" y="33">envase</tspan></text>
    <g id="Grupo_84573" data-name="Grupo 84573" transform="translate(459.662 86.042)">
      <line id="Línea_238" data-name="Línea 238" x1="185.42" transform="translate(0 1.111)" fill="none" stroke="#da6e5f" stroke-miterlimit="10" stroke-width="2"/>
      <line id="Línea_239" data-name="Línea 239" y1="18.577" transform="translate(185.42)" fill="none" stroke="#da6e5f" stroke-miterlimit="10" stroke-width="2"/>
    </g>
    <g id="Grupo_84574" data-name="Grupo 84574" transform="translate(854.216 86.042)">
      <line id="Línea_240" data-name="Línea 240" x2="185.42" transform="translate(0 1.111)" fill="none" stroke="#da6e5f" stroke-miterlimit="10" stroke-width="2"/>
      <line id="Línea_241" data-name="Línea 241" y1="18.577" transform="translate(0)" fill="none" stroke="#da6e5f" stroke-miterlimit="10" stroke-width="2"/>
    </g>
    <g id="Grupo_84575" data-name="Grupo 84575" transform="translate(662.951 146.14)">
      <line id="Línea_242" data-name="Línea 242" y2="19.117" transform="translate(0)" fill="none" stroke="#da6e5f" stroke-miterlimit="10" stroke-width="2"/>
      <line id="Línea_243" data-name="Línea 243" x1="57.376" transform="translate(0 17.946)" fill="none" stroke="#da6e5f" stroke-miterlimit="10" stroke-width="2"/>
      <line id="Línea_244" data-name="Línea 244" y1="16.539" transform="translate(56.253 17.225)" fill="none" stroke="#da6e5f" stroke-miterlimit="10" stroke-width="2"/>
    </g>
    <g id="Grupo_84576" data-name="Grupo 84576" transform="translate(786.599 146.14)">
      <line id="Línea_245" data-name="Línea 245" y2="19.117" transform="translate(57.376)" fill="none" stroke="#da6e5f" stroke-miterlimit="10" stroke-width="2"/>
      <line id="Línea_246" data-name="Línea 246" x2="57.376" transform="translate(0 17.946)" fill="none" stroke="#da6e5f" stroke-miterlimit="10" stroke-width="2"/>
      <line id="Línea_247" data-name="Línea 247" y1="16.539" transform="translate(1.123 17.225)" fill="none" stroke="#da6e5f" stroke-miterlimit="10" stroke-width="2"/>
    </g>
    <path id="Trazado_190461" data-name="Trazado 190461" d="M1002.223,199.832H905.517v47.353h126.89V199.832Z" transform="translate(99.361 17.876)" fill="#3d84cb"/>
    <text id="la_normativa_de_cada_país_" data-name="la normativa de cada país " transform="translate(1006.871 219.367)" fill="#fff" font-size="16" font-family="Roboto-Black, Roboto" font-weight="800"><tspan x="4.366" y="17">la normativa de </tspan><tspan x="25.819" y="33">cada país </tspan></text>
    <path id="Trazado_190462" data-name="Trazado 190462" d="M1177.288,195.041H1033.811V283.4h188.26V195.041Z" transform="translate(115.131 17.287)" fill="#3d84cb"/>
    <text id="el_sector_de_la_industria_a_la_que_pertenece_el_producto." data-name="el sector de la industria a la que pertenece el producto." transform="translate(1164.15 213.988)" fill="#fff" font-size="16" font-family="Roboto-Black, Roboto" font-weight="800"><tspan x="25.972" y="17">el sector de la </tspan><tspan x="14.492" y="33">industria a la que </tspan><tspan x="31.453" y="49">pertenece el </tspan><tspan x="41.972" y="65">producto.</tspan></text>
    <line id="Línea_248" data-name="Línea 248" x1="35.373" transform="translate(679.95 258.118)" fill="none" stroke="#3d84cb" stroke-miterlimit="10" stroke-width="2"/>
    <line id="Línea_249" data-name="Línea 249" x1="68.739" y2="29.294" transform="translate(646.584 277.159)" fill="none" stroke="#3d84cb" stroke-miterlimit="10" stroke-width="2"/>
    <line id="Línea_250" data-name="Línea 250" x1="77.14" y2="84.707" transform="translate(644.212 281.211)" fill="none" stroke="#3d84cb" stroke-miterlimit="10" stroke-width="2"/>
    <line id="Línea_251" data-name="Línea 251" y1="127.277" x2="81.168" transform="translate(656.491 281.317)" fill="none" stroke="#3d84cb" stroke-miterlimit="10" stroke-width="2"/>
    <line id="Línea_252" data-name="Línea 252" x1="67.961" y2="181.768" transform="translate(679.364 281.317)" fill="none" stroke="#3d84cb" stroke-miterlimit="10" stroke-width="2"/>
    <line id="Línea_253" data-name="Línea 253" y2="184.302" transform="translate(760.313 281.317)" fill="none" stroke="#3d84cb" stroke-miterlimit="10" stroke-width="2"/>
    <line id="Línea_254" data-name="Línea 254" x2="94.13" y2="189.682" transform="translate(770.858 281.317)" fill="none" stroke="#3d84cb" stroke-miterlimit="10" stroke-width="2"/>
    <line id="Línea_255" data-name="Línea 255" x2="93.349" y2="132.657" transform="translate(792.731 281.317)" fill="none" stroke="#3d84cb" stroke-miterlimit="10" stroke-width="2"/>
    <line id="Línea_256" data-name="Línea 256" x2="122.864" y2="81.587" transform="translate(795.244 273.786)" fill="none" stroke="#3d84cb" stroke-miterlimit="10" stroke-width="2"/>
    <line id="Línea_257" data-name="Línea 257" x2="94.107" y2="30.164" transform="translate(795.244 265.06)" fill="none" stroke="#3d84cb" stroke-miterlimit="10" stroke-width="2"/>
  </g>
</svg>
