<svg xmlns="http://www.w3.org/2000/svg" width="1030" height="265.104" viewBox="0 0 1030 265.104">
  <g id="Grupo_85441" data-name="Grupo 85441" transform="translate(-198.313 -5278.687)">
    <g id="Grupo_85439" data-name="Grupo 85439" transform="translate(470.785 5376.253)">
      <rect id="Rectángulo_24599" data-name="Rectángulo 24599" width="56.108" height="36.421" transform="translate(0 13.781)" fill="#0a4d8e"/>
      <path id="Trazado_192867" data-name="Trazado 192867" d="M492.384,5430.781V5366.8l31.5,31.007Z" transform="translate(-439.229 -5366.798)" fill="#0a4d8e"/>
    </g>
    <g id="Grupo_85440" data-name="Grupo 85440" transform="translate(856.462 5376.253)">
      <rect id="Rectángulo_24600" data-name="Rectángulo 24600" width="56.108" height="36.421" transform="translate(0 13.781)" fill="#0a4d8e"/>
      <path id="Trazado_192868" data-name="Trazado 192868" d="M840.687,5430.781V5366.8l31.5,31.007Z" transform="translate(-787.531 -5366.798)" fill="#0a4d8e"/>
    </g>
    <path id="Trazado_192869" data-name="Trazado 192869" d="M198.313,5343.892l55.858,52.533v-77.8Z" transform="translate(0 4.286)" fill="#073360"/>
    <path id="Rectángulo_24601" data-name="Rectángulo 24601" d="M0,0H236.379a0,0,0,0,1,0,0V191.292a12,12,0,0,1-12,12H12a12,12,0,0,1-12-12V0A0,0,0,0,1,0,0Z" transform="translate(214.225 5333.358)" fill="#3d84cb"/>
    <path id="Rectángulo_24602" data-name="Rectángulo 24602" d="M0,0H237.327A25.844,25.844,0,0,1,263.17,25.844V69.49a0,0,0,0,1,0,0H0a0,0,0,0,1,0,0V0A0,0,0,0,1,0,0Z" transform="translate(198.313 5278.687)" fill="#0a4d8e"/>
    <text id="Son_todas_aquellas_actividades_que_permiten_evidenciar_si_la_propuesta_comercial_es_viable_y_puede_llegar_a_buen_cierre._" data-name="Son todas aquellas actividades que permiten evidenciar si la propuesta comercial es viable y puede llegar a buen cierre.
" transform="translate(245.796 5359.79)" fill="#fff" font-size="17.507" font-family="Roboto-Regular, Roboto"><tspan x="0" y="18">Son todas aquellas </tspan><tspan x="0" y="39.008">actividades que </tspan><tspan x="0" y="60.016">permiten evidenciar si la </tspan><tspan x="0" y="81.025">propuesta comercial es </tspan><tspan x="0" y="102.033">viable y puede llegar a </tspan><tspan x="0" y="123.041">buen cierre.</tspan><tspan font-family="Roboto-Regular"><tspan x="0" y="144.049"></tspan></tspan></text>
    <text id="Pre-propuesta_" data-name="Pre-propuesta
" transform="translate(208.389 5297.325)" fill="#fff" font-size="19.695" font-family="Roboto-Black, Roboto" font-weight="800"><tspan x="52" y="21">Pre-propuesta</tspan></text>
    <path id="comprobado" d="M223.535,5365.543l5.946,5.957,11.417-11.409-1.64-1.616-9.778,9.763-4.33-4.321Z" transform="translate(2.707 8.562)" fill="#fff"/>
    <path id="Trazado_192870" data-name="Trazado 192870" d="M544.056,5343.892l55.858,52.533v-77.8Z" transform="translate(37.1 4.286)" fill="#073360"/>
    <path id="Rectángulo_24603" data-name="Rectángulo 24603" d="M0,0H236.379a0,0,0,0,1,0,0V191.292a12,12,0,0,1-12,12H12a12,12,0,0,1-12-12V0A0,0,0,0,1,0,0Z" transform="translate(597.069 5333.358)" fill="#3d84cb"/>
    <path id="Rectángulo_24604" data-name="Rectángulo 24604" d="M0,0H237.327A25.844,25.844,0,0,1,263.17,25.844V69.49a0,0,0,0,1,0,0H0a0,0,0,0,1,0,0V0A0,0,0,0,1,0,0Z" transform="translate(581.156 5278.687)" fill="#0a4d8e"/>
    <text id="Es_el_proceso_propiamente_dicho_de_construcción_de_la_propuesta_teniendo_en_cuenta_la_información_obtenida_en_la_pre-propuesta._" data-name="Es el proceso propiamente dicho de construcción de la propuesta teniendo en cuenta la información obtenida en la pre-propuesta.
" transform="translate(628.639 5359.79)" fill="#fff" font-size="17.507" font-family="Roboto-Regular, Roboto"><tspan x="0" y="18">Es el proceso </tspan><tspan x="0" y="39">propiamente dicho de </tspan><tspan x="0" y="60">construcción de la </tspan><tspan x="0" y="81">propuesta teniendo en </tspan><tspan x="0" y="102">cuenta la información </tspan><tspan x="0" y="123">obtenida en la pre-</tspan><tspan x="0" y="144">propuesta.</tspan><tspan font-family="Roboto-Regular"><tspan x="0" y="165"></tspan></tspan></text>
    <text id="Desarrollo_" data-name="Desarrollo
" transform="translate(591.233 5297.325)" fill="#fff" font-size="19.695" font-family="Roboto-Black, Roboto" font-weight="800"><tspan x="70.911" y="21">Desarrollo</tspan></text>
    <path id="comprobado-2" data-name="comprobado" d="M569.279,5365.543l5.946,5.957,11.416-11.409L585,5358.475l-9.778,9.763-4.331-4.321Z" transform="translate(39.807 8.562)" fill="#fff"/>
    <path id="Trazado_192871" data-name="Trazado 192871" d="M890.831,5343.892l55.858,52.533v-77.8Z" transform="translate(74.311 4.286)" fill="#073360"/>
    <path id="Rectángulo_24605" data-name="Rectángulo 24605" d="M0,0H236.379a0,0,0,0,1,0,0V191.292a12,12,0,0,1-12,12H12a12,12,0,0,1-12-12V0A0,0,0,0,1,0,0Z" transform="translate(981.055 5333.358)" fill="#3d84cb"/>
    <path id="Rectángulo_24606" data-name="Rectángulo 24606" d="M0,0H237.327A25.844,25.844,0,0,1,263.17,25.844V69.49a0,0,0,0,1,0,0H0a0,0,0,0,1,0,0V0A0,0,0,0,1,0,0Z" transform="translate(965.142 5278.687)" fill="#0a4d8e"/>
    <text id="Incluye_las_actividades_posteriores_a_la_entrega_de_la_propuesta_incluye_la_comunicación_con_el_cliente_llamadas_o_reuniones_posteriores." data-name="Incluye las actividades posteriores a la entrega de la propuesta, incluye la comunicación con el cliente, llamadas o reuniones posteriores." transform="translate(1012.625 5359.79)" fill="#fff" font-size="17.507" font-family="Roboto-Regular, Roboto"><tspan x="0" y="18">Incluye las actividades </tspan><tspan x="0" y="39">posteriores a la entrega </tspan><tspan x="0" y="60">de la propuesta, incluye </tspan><tspan x="0" y="81">la comunicación con el </tspan><tspan x="0" y="102">cliente, llamadas o </tspan><tspan x="0" y="123">reuniones posteriores.</tspan></text>
    <text id="Seguimiento_y_cierre_" data-name="Seguimiento y cierre
" transform="translate(975.219 5297.325)" fill="#fff" font-size="19.695" font-family="Roboto-Black, Roboto" font-weight="800"><tspan x="24.337" y="21">Seguimiento y cierre</tspan></text>
    <path id="comprobado-3" data-name="comprobado" d="M916.053,5365.543,922,5371.5l11.417-11.409-1.639-1.616L922,5368.238l-4.33-4.321Z" transform="translate(77.018 8.562)" fill="#fff"/>
  </g>
</svg>
