<svg xmlns="http://www.w3.org/2000/svg" width="1030" height="578.75" viewBox="0 0 1030 578.75">
  <g id="Grupo_84191" data-name="Grupo 84191" transform="translate(-284.595 -3904.735)">
    <path id="Trazado_189721" data-name="Trazado 189721" d="M1243.493,4211.965c0-.4-.024-.792-.03-1.192.011-.637.031-1.272.03-1.912,0,0-.032-.293-.1-.794a99.477,99.477,0,0,0-21.861-58.587,72.855,72.855,0,0,0-10.34-11.6,104.061,104.061,0,0,0-25.3-16.881l-.294-.137c-1.025-.477-2.075-.929-3.127-1.372-.4-.169-.791-.342-1.191-.506-.816-.333-1.648-.647-2.479-.96-.646-.243-1.29-.488-1.943-.718s-1.293-.439-1.943-.655c-.852-.283-1.708-.559-2.57-.816l-1.513-.439q-1.523-.439-3.062-.815c-.408-.1-.807-.194-1.211-.293q-1.687-.4-3.388-.733c-.36-.071-.722-.136-1.088-.206q-1.742-.325-3.5-.587-.575-.086-1.154-.165-1.681-.233-3.369-.409l-1.466-.146c-.464-.041-.92-.1-1.384-.137s-.952-.04-1.426-.067q-1.266-.08-2.537-.121c-.794-.025-1.585-.046-2.374-.057-.4,0-.8-.027-1.2-.027-.544,0-1.07.027-1.611.037-.691.012-1.38.023-2.067.049-1.018.037-2.032.1-3.042.165-.6.041-1.2.074-1.8.126-1.138.1-2.267.222-3.4.356-.465.055-.931.1-1.4.162-1.384.186-2.758.408-4.125.645-.2.036-.4.062-.6.1a99.183,99.183,0,0,0-14.25,3.717l-.052.018q-2.251.769-4.448,1.645l-.348.147q-2.051.815-4.062,1.733l-.453.209q-1.97.905-3.894,1.891l-.408.212q-1.96,1.016-3.868,2.116l-.284.164q-2,1.162-3.953,2.416l-.06.038a100.286,100.286,0,0,0-11.855,8.919c-.51.438-1.04.854-1.565,1.271a44.291,44.291,0,0,1-45.162,5.2,45.065,45.065,0,0,1-26.375-40.449q-.061-2.785-.272-5.6a99.7,99.7,0,0,0-28.833-62.538l-.047-.049q-1.4-1.413-2.862-2.767c-.124-.114-.243-.232-.366-.345-.878-.807-1.767-1.592-2.669-2.367-.232-.2-.46-.408-.693-.6q-1.213-1.02-2.466-2.005c-.341-.272-.68-.543-1.025-.815-.746-.574-1.5-1.131-2.266-1.685-.439-.325-.89-.656-1.342-.973-.68-.482-1.381-.951-2.079-1.41-.544-.363-1.088-.734-1.631-1.087-.635-.409-1.278-.793-1.921-1.185s-1.256-.768-1.9-1.137c-.594-.341-1.194-.669-1.795-1-.7-.386-1.4-.773-2.114-1.145-.565-.293-1.137-.574-1.709-.856-.76-.378-1.52-.754-2.292-1.113-.544-.252-1.1-.493-1.646-.732-.809-.358-1.612-.714-2.436-1.052-.544-.222-1.088-.438-1.632-.645-.836-.327-1.672-.65-2.519-.952-.555-.2-1.116-.386-1.676-.578-.846-.294-1.693-.571-2.548-.836-.586-.181-1.164-.345-1.748-.514-.844-.245-1.687-.486-2.542-.709-.62-.162-1.244-.309-1.868-.458-.822-.2-1.646-.393-2.477-.57-.67-.147-1.346-.272-2.022-.4-.794-.146-1.588-.3-2.387-.438-.733-.121-1.466-.226-2.2-.329s-1.5-.213-2.258-.3c-.8-.094-1.6-.171-2.4-.245-.474-.045-.944-.109-1.418-.147-.205-.017-.408-.017-.612-.032-.317-.022-.629-.062-.952-.083-.816-.052-1.622-.057-2.434-.09-.78-.033-1.563-.074-2.344-.088-1.049-.018-2.091,0-3.127.015-.816.011-1.631,0-2.436.038-.968.036-1.928.11-2.889.174-.869.057-1.743.1-2.606.177-.827.077-1.642.191-2.462.294-.982.116-1.967.213-2.939.357-.4.059-.787.147-1.183.206a98.942,98.942,0,0,0-13.5,3.126c-.166.052-.335.093-.5.147-1.345.42-2.672.879-3.99,1.36-.306.11-.616.207-.92.32-1.271.472-2.521.984-3.767,1.506-.339.147-.68.272-1.017.417-1.232.532-2.447,1.1-3.649,1.679-.332.159-.666.31-1,.473-1.2.586-2.38,1.224-3.552,1.857-.32.172-.64.341-.96.521-1.172.655-2.326,1.34-3.47,2.039-.294.184-.6.362-.892.544-1.151.722-2.283,1.473-3.4,2.238-.272.184-.534.364-.8.551q-1.7,1.186-3.343,2.446l-.692.532q-1.674,1.3-3.293,2.67l-.566.484q-1.656,1.422-3.252,2.916l-.408.393q-1.648,1.564-3.222,3.195c-.082.083-.156.167-.237.25q-1.652,1.717-3.223,3.516l-.029.036a99.705,99.705,0,0,0-24.586,65.97,40.252,40.252,0,0,1-23.812,36.746l-5.321,2.38a39.214,39.214,0,0,1-42.417-6.327,99.962,99.962,0,0,0-133.479-1.391,42.962,42.962,0,0,1-45.878,6.865l-.741-.332a45.122,45.122,0,0,1-26.511-40.513q-.057-2.492-.234-5a100.286,100.286,0,1,0-34.26,82.85,44.229,44.229,0,0,1,47.075-6.739,45.067,45.067,0,0,1,26.375,40.447,103.22,103.22,0,0,0,.772,10.524A100.184,100.184,0,0,0,765.412,4211.8v-.259a40.248,40.248,0,0,1,23.813-36.794l5.323-2.38a39.206,39.206,0,0,1,42.417,6.328,100.568,100.568,0,0,0,25.287,16.874c.1.047.2.1.292.147,1.036.479,2.084.934,3.139,1.379.387.166.775.335,1.172.494.828.337,1.664.654,2.5.97.64.242,1.282.483,1.928.713s1.3.44,1.954.658q1.27.42,2.553.815l1.533.44q1.515.429,3.045.815c.408.1.816.2,1.224.294q1.676.391,3.369.733c.362.07.729.14,1.1.208q1.737.325,3.5.586c.381.056.764.112,1.149.164q1.676.229,3.369.408c.488.052.979.1,1.474.147.457.04.909.1,1.37.137s.952.039,1.426.069q1.273.078,2.55.121,1.185.041,2.362.057c.408,0,.806.028,1.211.028.544,0,1.088-.028,1.631-.037.666-.012,1.331-.021,1.993-.044,1.042-.039,2.077-.1,3.112-.167.572-.04,1.148-.071,1.717-.118,1.187-.1,2.366-.23,3.535-.372.408-.05.816-.087,1.223-.146a100.053,100.053,0,0,0,14.331-2.991l.226-.07q2.2-.639,4.351-1.366c.188-.064.37-.136.556-.2q1.99-.688,3.955-1.465c.209-.082.416-.168.624-.253q1.935-.779,3.824-1.631l.564-.259q1.951-.9,3.856-1.872l.377-.191q2.066-1.07,4.079-2.229l.026-.014a100.779,100.779,0,0,0,15.258-10.812,44.541,44.541,0,0,1,73.822,33.342c.061,2.708.261,5.41.534,8.1l0,.045c.08.792.137,1.585.235,2.376.072.578.181,1.146.284,1.716a100.029,100.029,0,0,0,80.35,83.889c.039.006.079.015.118.022.124.023.247.041.371.064,1.43.261,2.87.5,4.321.7.636.089,1.268.188,1.907.264.173.022.341.061.514.082.318.034.632.058.949.083.222.022.445.039.666.061.6.06,1.2.139,1.8.184.339.025.673.031,1.009.053.31.02.617.03.926.048.56.033,1.12.06,1.683.085.166.006.333.019.5.026.88.035,1.75.068,2.62.077.269,0,.537,0,.806,0,.133,0,.262.01.4.01.193,0,.382-.014.575-.014.377,0,.756,0,1.133-.006.915-.012,1.828-.026,2.738-.064s1.8-.1,2.7-.163c.961-.066,1.921-.137,2.874-.226.816-.08,1.632-.185,2.447-.284,1.014-.125,2.027-.25,3.032-.408.733-.114,1.466-.25,2.2-.379,1.066-.189,2.133-.378,3.188-.6.64-.136,1.271-.292,1.9-.438,1.129-.262,2.254-.525,3.369-.824.533-.147,1.058-.306,1.587-.459,1.2-.343,2.394-.691,3.573-1.078.408-.135.816-.286,1.224-.425,1.283-.438,2.559-.887,3.819-1.376.261-.1.515-.214.776-.319,1.389-.554,2.772-1.126,4.131-1.74.075-.034.147-.072.224-.107a92.279,92.279,0,0,0,13.66-7.683A99.867,99.867,0,0,0,1243.493,4211.965Z" transform="translate(14.74 35.818)" fill="#53bced" opacity="0.4" style="isolation: isolate"/>
    <circle id="Elipse_4152" data-name="Elipse 4152" cx="74.023" cy="74.023" r="74.023" transform="translate(366.707 4066.575)" fill="#53bced"/>
    <circle id="Elipse_4153" data-name="Elipse 4153" cx="65.162" cy="65.162" r="65.162" transform="translate(375.568 4075.435)" fill="#0d66bf"/>
    <line id="Línea_137" data-name="Línea 137" y1="28.674" transform="translate(679.971 4095.692)" fill="none" stroke="#afafaf" stroke-linecap="round" stroke-miterlimit="10" stroke-width="2" stroke-dasharray="0 4"/>
    <line id="Línea_138" data-name="Línea 138" y1="28.674" transform="translate(1158.455 4095.692)" fill="none" stroke="#afafaf" stroke-linecap="round" stroke-miterlimit="10" stroke-width="2" stroke-dasharray="0 4"/>
    <g id="Grupo_92173" data-name="Grupo 92173" transform="translate(439.26 4262.398)">
      <g id="Grupo_92170" data-name="Grupo 92170" transform="translate(0 0)">
        <path id="Trazado_134785" data-name="Trazado 134785" d="M399.824,4170.735a1.483,1.483,0,0,1-.555-.1,1.729,1.729,0,0,1-.485-.325,1.452,1.452,0,0,1-.424-1.04,1.4,1.4,0,0,1,.91-1.347,1.5,1.5,0,0,1,1.6.308,1.544,1.544,0,0,1,.423,1.04,1.449,1.449,0,0,1-1.43,1.465h-.035Z" transform="translate(-398.36 -4167.815)" fill="#afafaf"/>
      </g>
      <g id="Grupo_92171" data-name="Grupo 92171" transform="translate(0.005 5.733)">
        <path id="Trazado_134786" data-name="Trazado 134786" d="M398.363,4190.694a1.465,1.465,0,0,1,1.466-1.465h0a1.465,1.465,0,0,1,1.464,1.465h0a1.468,1.468,0,0,1-1.464,1.465h0A1.465,1.465,0,0,1,398.363,4190.694Zm0-5.728a1.465,1.465,0,0,1,1.466-1.465h0a1.464,1.464,0,0,1,1.464,1.465h0a1.466,1.466,0,0,1-1.464,1.466h0A1.466,1.466,0,0,1,398.363,4184.967Zm0-5.742a1.465,1.465,0,0,1,1.466-1.466h0a1.465,1.465,0,0,1,1.464,1.466h0a1.467,1.467,0,0,1-1.464,1.464h0A1.465,1.465,0,0,1,398.363,4179.225Zm0-5.729a1.464,1.464,0,0,1,1.466-1.464h0a1.464,1.464,0,0,1,1.464,1.464h0a1.466,1.466,0,0,1-1.464,1.466h0A1.466,1.466,0,0,1,398.363,4173.5Z" transform="translate(-398.363 -4172.032)" fill="#afafaf"/>
      </g>
      <g id="Grupo_92172" data-name="Grupo 92172" transform="translate(0 28.681)">
        <path id="Trazado_134787" data-name="Trazado 134787" d="M399.826,4191.828a1.472,1.472,0,0,1-1.04-.439,1.451,1.451,0,0,1-.424-1.025.961.961,0,0,1,.03-.292,1.042,1.042,0,0,1,.09-.272.774.774,0,0,1,.136-.249,1.2,1.2,0,0,1,.174-.221,1.508,1.508,0,0,1,2.081,0c.057.059.116.146.175.221a.832.832,0,0,1,.136.249,1.038,1.038,0,0,1,.087.272,1.759,1.759,0,0,1,.029.292,1.444,1.444,0,0,1-.423,1.025A1.469,1.469,0,0,1,399.826,4191.828Z" transform="translate(-398.36 -4188.912)" fill="#afafaf"/>
      </g>
    </g>
    <line id="Línea_140" data-name="Línea 140" y2="28.674" transform="translate(919.214 4263.856)" fill="none" stroke="#afafaf" stroke-linecap="round" stroke-miterlimit="10" stroke-width="2" stroke-dasharray="0 4"/>
    <circle id="Elipse_4154" data-name="Elipse 4154" cx="74.023" cy="74.023" r="74.023" transform="translate(605.948 4173.603)" fill="#53bced"/>
    <circle id="Elipse_4155" data-name="Elipse 4155" cx="74.023" cy="74.023" r="74.023" transform="translate(845.192 4066.575)" fill="#53bced"/>
    <circle id="Elipse_4157" data-name="Elipse 4157" cx="74.023" cy="74.023" r="74.023" transform="translate(1084.435 4173.603)" fill="#53bced"/>
    <circle id="Elipse_4159" data-name="Elipse 4159" cx="65.162" cy="65.162" r="65.162" transform="translate(614.811 4182.463)" fill="#0d66bf"/>
    <circle id="Elipse_4160" data-name="Elipse 4160" cx="65.162" cy="65.162" r="65.162" transform="translate(854.054 4075.435)" fill="#0d66bf"/>
    <circle id="Elipse_4161" data-name="Elipse 4161" cx="65.162" cy="65.162" r="65.162" transform="translate(1093.296 4182.463)" fill="#0d66bf"/>
    <g id="Grupo_61559" data-name="Grupo 61559" transform="translate(284.595 4313.197)">
      <rect id="Rectángulo_32029" data-name="Rectángulo 32029" width="309.334" height="167.597" rx="8.518" transform="translate(0 2.69)" fill="#fff6db"/>
      <rect id="Rectángulo_32037" data-name="Rectángulo 32037" width="169.034" height="5.382" transform="translate(71.618 0)" fill="#db6e5f"/>
    </g>
    <g id="Grupo_61562" data-name="Grupo 61562" transform="translate(764.546 4313.197)">
      <rect id="Rectángulo_32029-2" data-name="Rectángulo 32029-2" width="309.334" height="167.597" rx="8.518" transform="translate(0 2.69)" fill="#fff6db"/>
      <rect id="Rectángulo_32037-2" data-name="Rectángulo 32037-2" width="169.034" height="5.382" transform="translate(71.618 0)" fill="#db6e5f"/>
    </g>
    <g id="Grupo_61560" data-name="Grupo 61560" transform="translate(525.304 3904.735)">
      <rect id="Rectángulo_32029-4" data-name="Rectángulo 32029-4" width="309.334" height="167.597" rx="8.518" fill="#fff6db"/>
      <rect id="Rectángulo_32037-4" data-name="Rectángulo 32037-4" width="169.034" height="5.382" transform="translate(71.618 164.907)" fill="#db6e5f"/>
    </g>
    <g id="Grupo_61561" data-name="Grupo 61561" transform="translate(1005.261 3904.735)">
      <rect id="Rectángulo_32029-5" data-name="Rectángulo 32029-5" width="309.334" height="167.597" rx="8.518" fill="#fff6db"/>
      <rect id="Rectángulo_32037-5" data-name="Rectángulo 32037-5" width="169.034" height="5.382" transform="translate(71.618 164.907)" fill="#db6e5f"/>
    </g>
    <text id="Atributos_de_costo" data-name="Atributos de costo" transform="translate(388.6 4116.877)" fill="#fff" font-size="18" font-family="Roboto-Bold, Roboto" font-weight="700" style="isolation: isolate"><tspan x="2.534" y="19">Atributos de </tspan><tspan x="29.723" y="38.2">costo</tspan></text>
    <text id="Atributos_sociales" data-name="Atributos sociales" transform="translate(868.551 4120.09)" fill="#fff" font-size="18" font-family="Roboto-Bold, Roboto" font-weight="700" style="isolation: isolate"><tspan x="14.711" y="19">Atributos </tspan><tspan x="18.631" y="38.2">sociales</tspan></text>
    <g id="Grupo_84190" data-name="Grupo 84190" transform="translate(1096.69 4221.632)" style="isolation: isolate">
      <path id="Trazado_189722" data-name="Trazado 189722" d="M896.118,4149.361h-4.836l-.938,2.971h-2.791l4.741-13.778h2.831l4.722,13.778h-2.791Zm-4.155-2.168h3.472l-1.7-5.411h-.056Z" transform="translate(-879.915 -4137.57)" fill="#fff"/>
      <path id="Trazado_189723" data-name="Trazado 189723" d="M900.777,4139.313v2.507H902.5v1.939h-1.723v5.215a1.206,1.206,0,0,0,.246.853.88.88,0,0,0,.663.256,2.635,2.635,0,0,0,.374-.024,3.073,3.073,0,0,0,.364-.08l.237,2a5.576,5.576,0,0,1-.814.212,4.944,4.944,0,0,1-.861.072,2.947,2.947,0,0,1-2.2-.786,3.446,3.446,0,0,1-.771-2.489v-5.225h-1.5v-1.939h1.5v-2.507Z" transform="translate(-876.692 -4137.297)" fill="#fff"/>
      <path id="Trazado_189724" data-name="Trazado 189724" d="M907.6,4143.583l-1.013-.028a1.832,1.832,0,0,0-1.013.255,1.617,1.617,0,0,0-.605.72v6.917h-2.754v-10.24h2.565l.122,1.515a3.222,3.222,0,0,1,.933-1.254,2.08,2.08,0,0,1,1.32-.45,1.992,1.992,0,0,1,.383.034c.116.021.234.048.355.08Z" transform="translate(-874.645 -4136.683)" fill="#fff"/>
      <path id="Trazado_189725" data-name="Trazado 189725" d="M910.072,4139.9h-2.763v-2.072h2.763Zm0,12.692h-2.763v-10.24h2.763Z" transform="translate(-872.813 -4137.83)" fill="#fff"/>
      <path id="Trazado_189726" data-name="Trazado 189726" d="M920.249,4147.757a5.981,5.981,0,0,1-1.022,3.663,3.457,3.457,0,0,1-2.953,1.373,3.137,3.137,0,0,1-1.557-.374,3.24,3.24,0,0,1-1.131-1.093l-.208,1.268h-2.365V4137.83h2.754v5.612a3.113,3.113,0,0,1,1.064-.946,2.966,2.966,0,0,1,1.425-.332,3.39,3.39,0,0,1,2.971,1.473,6.741,6.741,0,0,1,1.022,3.922Zm-2.755-.2a5.384,5.384,0,0,0-.439-2.384,1.543,1.543,0,0,0-1.5-.881,2.045,2.045,0,0,0-1.088.272,1.851,1.851,0,0,0-.7.776v4.36a1.756,1.756,0,0,0,.7.713,2.263,2.263,0,0,0,1.1.248,1.566,1.566,0,0,0,1.5-.758,4.42,4.42,0,0,0,.426-2.146Z" transform="translate(-871.481 -4137.83)" fill="#fff"/>
      <path id="Trazado_189727" data-name="Trazado 189727" d="M925.333,4149.921a3.441,3.441,0,0,1-1.2,1.24,3.539,3.539,0,0,1-4.206-.6,4.781,4.781,0,0,1-.913-3.222v-6.18h2.754v6.213a2.655,2.655,0,0,0,.379,1.608,1.326,1.326,0,0,0,1.116.488,2.749,2.749,0,0,0,1.135-.213,1.925,1.925,0,0,0,.776-.632v-7.464h2.764v10.24h-2.358Z" transform="translate(-868.606 -4136.634)" fill="#fff"/>
      <path id="Trazado_189728" data-name="Trazado 189728" d="M930.648,4139.313v2.507h1.723v1.939h-1.723v5.215a1.205,1.205,0,0,0,.246.853.877.877,0,0,0,.662.256,2.607,2.607,0,0,0,.374-.024,2.962,2.962,0,0,0,.364-.08l.237,2a5.53,5.53,0,0,1-.814.212,4.929,4.929,0,0,1-.86.072,2.944,2.944,0,0,1-2.2-.786,3.439,3.439,0,0,1-.772-2.489v-5.225h-1.5v-1.939h1.5v-2.507Z" transform="translate(-865.953 -4137.297)" fill="#fff"/>
      <path id="Trazado_189729" data-name="Trazado 189729" d="M931.77,4146.233a5.494,5.494,0,0,1,1.278-3.751,4.453,4.453,0,0,1,3.54-1.464,4.506,4.506,0,0,1,3.558,1.458,5.472,5.472,0,0,1,1.287,3.758v.2a5.474,5.474,0,0,1-1.283,3.761,5.06,5.06,0,0,1-7.1,0,5.468,5.468,0,0,1-1.283-3.761Zm2.754.194a4.45,4.45,0,0,0,.492,2.244,1.894,1.894,0,0,0,3.157,0,4.42,4.42,0,0,0,.5-2.24v-.2a4.369,4.369,0,0,0-.5-2.22,1.7,1.7,0,0,0-1.58-.86,1.678,1.678,0,0,0-1.568.867,4.407,4.407,0,0,0-.5,2.214Z" transform="translate(-864.018 -4136.683)" fill="#fff"/>
      <path id="Trazado_189730" data-name="Trazado 189730" d="M945.788,4148.627a.967.967,0,0,0-.44-.786,4.493,4.493,0,0,0-1.633-.586,6.579,6.579,0,0,1-2.739-1.093,2.376,2.376,0,0,1-.922-1.974,2.819,2.819,0,0,1,1.111-2.248,4.516,4.516,0,0,1,2.977-.923,4.895,4.895,0,0,1,3.117.918,2.711,2.711,0,0,1,1.112,2.319l-.019.057h-2.669a1.35,1.35,0,0,0-.391-1,1.878,1.878,0,0,0-2.205-.061,1.03,1.03,0,0,0-.383.818.929.929,0,0,0,.4.775,4.379,4.379,0,0,0,1.633.539,6.647,6.647,0,0,1,2.811,1.113,2.445,2.445,0,0,1,.918,2.02,2.691,2.691,0,0,1-1.183,2.258,5.127,5.127,0,0,1-3.123.875,4.747,4.747,0,0,1-3.233-1.036,2.9,2.9,0,0,1-1.13-2.361l.018-.058h2.527a1.434,1.434,0,0,0,.54,1.193,2.227,2.227,0,0,0,1.334.368,1.925,1.925,0,0,0,1.169-.3A.978.978,0,0,0,945.788,4148.627Z" transform="translate(-861.133 -4136.683)" fill="#fff"/>
      <path id="Trazado_189731" data-name="Trazado 189731" d="M950.719,4147.559a6.648,6.648,0,0,1,1.045-3.909,3.4,3.4,0,0,1,2.948-1.486,2.863,2.863,0,0,1,1.383.332,3.308,3.308,0,0,1,1.078.946v-5.612h2.773v14.764h-2.375l-.228-1.249a3.382,3.382,0,0,1-1.139,1.078,3.04,3.04,0,0,1-1.51.37,3.46,3.46,0,0,1-2.929-1.383,5.9,5.9,0,0,1-1.045-3.653Zm2.753.2a4.224,4.224,0,0,0,.455,2.129,1.577,1.577,0,0,0,1.475.775,2.141,2.141,0,0,0,1.042-.242,1.926,1.926,0,0,0,.729-.71v-4.388a2.132,2.132,0,0,0-.723-.757,1.914,1.914,0,0,0-1.028-.272,1.559,1.559,0,0,0-1.48.905,5.132,5.132,0,0,0-.469,2.36Z" transform="translate(-857.206 -4137.83)" fill="#fff"/>
      <path id="Trazado_189732" data-name="Trazado 189732" d="M963.7,4151.646a4.609,4.609,0,0,1-3.539-1.42,5.076,5.076,0,0,1-1.325-3.606v-.378a5.6,5.6,0,0,1,1.255-3.756,4.673,4.673,0,0,1,6.582-.219,4.806,4.806,0,0,1,1.146,3.379v1.5H961.7l-.019.057a2.653,2.653,0,0,0,.676,1.659,2.116,2.116,0,0,0,1.633.649,5.287,5.287,0,0,0,1.524-.184,6.981,6.981,0,0,0,1.326-.583l.748,1.709a5.149,5.149,0,0,1-1.638.851A7.124,7.124,0,0,1,963.7,4151.646Zm-.246-8.5a1.439,1.439,0,0,0-1.211.587,3.061,3.061,0,0,0-.548,1.543l.029.048h3.388v-.247a2.215,2.215,0,0,0-.412-1.4A1.483,1.483,0,0,0,963.453,4143.147Z" transform="translate(-854.288 -4136.683)" fill="#fff"/>
      <path id="Trazado_189733" data-name="Trazado 189733" d="M881.935,4164.667a6.645,6.645,0,0,1,1.045-3.909,3.4,3.4,0,0,1,2.949-1.487,2.847,2.847,0,0,1,1.381.333,3.324,3.324,0,0,1,1.08.945v-5.611h2.772V4169.7h-2.375l-.227-1.249a3.374,3.374,0,0,1-1.141,1.078,3.028,3.028,0,0,1-1.509.37,3.462,3.462,0,0,1-2.93-1.382,5.9,5.9,0,0,1-1.045-3.652Zm2.754.2a4.22,4.22,0,0,0,.454,2.129,1.58,1.58,0,0,0,1.476.775,2.154,2.154,0,0,0,1.041-.242,1.943,1.943,0,0,0,.729-.71v-4.388a2.13,2.13,0,0,0-.725-.758,1.916,1.916,0,0,0-1.026-.272,1.56,1.56,0,0,0-1.482.906,5.151,5.151,0,0,0-.468,2.361Z" transform="translate(-881.935 -4131.679)" fill="#fff"/>
      <path id="Trazado_189734" data-name="Trazado 189734" d="M893.164,4157.009H890.4v-2.071h2.764Zm0,12.691H890.4v-10.24h2.764Z" transform="translate(-878.892 -4131.679)" fill="#fff"/>
      <path id="Trazado_189735" data-name="Trazado 189735" d="M899.761,4165.734a.967.967,0,0,0-.441-.786,4.465,4.465,0,0,0-1.633-.585,6.56,6.56,0,0,1-2.74-1.093,2.374,2.374,0,0,1-.923-1.975,2.814,2.814,0,0,1,1.112-2.247,4.5,4.5,0,0,1,2.976-.923,4.9,4.9,0,0,1,3.119.917,2.715,2.715,0,0,1,1.112,2.319l-.019.058h-2.669a1.351,1.351,0,0,0-.393-1,1.881,1.881,0,0,0-2.205-.062,1.032,1.032,0,0,0-.383.819.93.93,0,0,0,.4.775,4.342,4.342,0,0,0,1.633.539,6.64,6.64,0,0,1,2.81,1.112,2.449,2.449,0,0,1,.919,2.021,2.691,2.691,0,0,1-1.184,2.257,5.127,5.127,0,0,1-3.123.876,4.739,4.739,0,0,1-3.232-1.038,2.892,2.892,0,0,1-1.131-2.36l.019-.057h2.527a1.436,1.436,0,0,0,.538,1.192,2.226,2.226,0,0,0,1.335.368,1.928,1.928,0,0,0,1.169-.3A.978.978,0,0,0,899.761,4165.734Z" transform="translate(-877.681 -4130.533)" fill="#fff"/>
      <path id="Trazado_189736" data-name="Trazado 189736" d="M910.69,4163.719a5.879,5.879,0,0,1-1.049,3.652,3.475,3.475,0,0,1-2.934,1.383,3.261,3.261,0,0,1-1.429-.3,2.934,2.934,0,0,1-1.07-.875v4.912h-2.754v-14.177h2.489l.16,1.211a3.3,3.3,0,0,1,1.093-1.035,2.963,2.963,0,0,1,1.491-.364,3.409,3.409,0,0,1,2.953,1.486,6.626,6.626,0,0,1,1.049,3.908Zm-2.762-.212a4.982,4.982,0,0,0-.483-2.351,1.577,1.577,0,0,0-1.476-.9,2.089,2.089,0,0,0-1.065.256,1.833,1.833,0,0,0-.7.73v4.493a1.686,1.686,0,0,0,.7.664,2.334,2.334,0,0,0,1.084.227,1.592,1.592,0,0,0,1.471-.786,4.157,4.157,0,0,0,.469-2.133Z" transform="translate(-874.917 -4130.533)" fill="#fff"/>
      <path id="Trazado_189737" data-name="Trazado 189737" d="M909.188,4163.34a5.488,5.488,0,0,1,1.278-3.752,4.449,4.449,0,0,1,3.539-1.462,4.5,4.5,0,0,1,3.559,1.458,5.466,5.466,0,0,1,1.287,3.757v.2a5.475,5.475,0,0,1-1.283,3.762,5.059,5.059,0,0,1-7.1,0,5.473,5.473,0,0,1-1.282-3.762Zm2.754.193a4.43,4.43,0,0,0,.492,2.244,1.892,1.892,0,0,0,3.155,0,4.41,4.41,0,0,0,.5-2.241v-.2a4.366,4.366,0,0,0-.5-2.22,1.7,1.7,0,0,0-1.581-.861,1.678,1.678,0,0,0-1.566.867,4.406,4.406,0,0,0-.5,2.214Z" transform="translate(-872.137 -4130.533)" fill="#fff"/>
      <path id="Trazado_189738" data-name="Trazado 189738" d="M920.087,4158.314l.124,1.468a3.748,3.748,0,0,1,1.259-1.222,3.274,3.274,0,0,1,1.675-.434,3.082,3.082,0,0,1,2.423.974,4.5,4.5,0,0,1,.87,3.057v6.4h-2.772v-6.4a2.084,2.084,0,0,0-.417-1.466,1.678,1.678,0,0,0-1.259-.432,2.14,2.14,0,0,0-.984.224,2.052,2.052,0,0,0-.729.632v7.445h-2.763v-10.24Z" transform="translate(-869.144 -4130.533)" fill="#fff"/>
      <path id="Trazado_189739" data-name="Trazado 189739" d="M928.464,4157.009H925.7v-2.071h2.764Zm0,12.691H925.7v-10.24h2.764Z" transform="translate(-866.201 -4131.679)" fill="#fff"/>
      <path id="Trazado_189740" data-name="Trazado 189740" d="M938.641,4164.865a5.985,5.985,0,0,1-1.022,3.662,3.456,3.456,0,0,1-2.953,1.373,3.139,3.139,0,0,1-1.557-.374,3.241,3.241,0,0,1-1.131-1.093l-.208,1.267H929.4v-14.763h2.754v5.611a3.122,3.122,0,0,1,1.065-.945,2.956,2.956,0,0,1,1.425-.333,3.391,3.391,0,0,1,2.972,1.473,6.755,6.755,0,0,1,1.022,3.923Zm-2.754-.2a5.389,5.389,0,0,0-.441-2.385,1.544,1.544,0,0,0-1.5-.881,2.052,2.052,0,0,0-1.089.272,1.871,1.871,0,0,0-.7.776v4.359a1.755,1.755,0,0,0,.706.714,2.264,2.264,0,0,0,1.1.248,1.568,1.568,0,0,0,1.5-.757,4.435,4.435,0,0,0,.426-2.146Z" transform="translate(-864.869 -4131.679)" fill="#fff"/>
      <path id="Trazado_189741" data-name="Trazado 189741" d="M940.319,4157.009h-2.764v-2.071h2.764Zm0,12.691h-2.764v-10.24h2.764Z" transform="translate(-861.939 -4131.679)" fill="#fff"/>
      <path id="Trazado_189742" data-name="Trazado 189742" d="M944.126,4169.7h-2.763v-14.763h2.763Z" transform="translate(-860.57 -4131.679)" fill="#fff"/>
      <path id="Trazado_189743" data-name="Trazado 189743" d="M947.933,4157.009h-2.762v-2.071h2.762Zm0,12.691h-2.762v-10.24h2.762Z" transform="translate(-859.2 -4131.679)" fill="#fff"/>
      <path id="Trazado_189744" data-name="Trazado 189744" d="M948.561,4164.667a6.645,6.645,0,0,1,1.046-3.909,3.4,3.4,0,0,1,2.947-1.487,2.852,2.852,0,0,1,1.383.333,3.321,3.321,0,0,1,1.078.945v-5.611h2.773V4169.7h-2.375l-.227-1.249a3.388,3.388,0,0,1-1.141,1.078,3.031,3.031,0,0,1-1.51.37,3.459,3.459,0,0,1-2.928-1.382,5.9,5.9,0,0,1-1.046-3.652Zm2.753.2a4.218,4.218,0,0,0,.455,2.129,1.576,1.576,0,0,0,1.475.775,2.145,2.145,0,0,0,1.041-.242,1.932,1.932,0,0,0,.729-.71v-4.388a2.128,2.128,0,0,0-.723-.758,1.918,1.918,0,0,0-1.028-.272,1.559,1.559,0,0,0-1.48.906,5.128,5.128,0,0,0-.469,2.361Z" transform="translate(-857.982 -4131.679)" fill="#fff"/>
      <path id="Trazado_189745" data-name="Trazado 189745" d="M963.073,4168.554a5.674,5.674,0,0,1-.26-.738,5,5,0,0,1-.156-.794,3.812,3.812,0,0,1-1.121,1.24,2.8,2.8,0,0,1-1.66.492,3.451,3.451,0,0,1-2.48-.829,2.963,2.963,0,0,1-.871-2.258,2.7,2.7,0,0,1,1.16-2.333,5.788,5.788,0,0,1,3.384-.828h1.542v-.812a1.6,1.6,0,0,0-.387-1.146,1.813,1.813,0,0,0-2.182-.081,1.154,1.154,0,0,0-.364.9l-2.669-.011-.01-.056a2.6,2.6,0,0,1,1.127-2.238,4.9,4.9,0,0,1,3.132-.941,4.577,4.577,0,0,1,2.981.932,3.229,3.229,0,0,1,1.145,2.654v4.231a8.059,8.059,0,0,0,.109,1.354,6.752,6.752,0,0,0,.345,1.257Zm-2.526-1.845a2.363,2.363,0,0,0,1.3-.36,1.861,1.861,0,0,0,.767-.833v-1.447h-1.542a1.846,1.846,0,0,0-1.335.44,1.424,1.424,0,0,0-.454,1.065,1.064,1.064,0,0,0,.341.822A1.321,1.321,0,0,0,960.547,4166.709Z" transform="translate(-855.119 -4130.533)" fill="#fff"/>
      <path id="Trazado_189746" data-name="Trazado 189746" d="M964.265,4164.667a6.646,6.646,0,0,1,1.046-3.909,3.4,3.4,0,0,1,2.949-1.487,2.846,2.846,0,0,1,1.381.333,3.324,3.324,0,0,1,1.08.945v-5.611h2.772V4169.7h-2.375l-.227-1.249a3.375,3.375,0,0,1-1.141,1.078,3.025,3.025,0,0,1-1.509.37,3.462,3.462,0,0,1-2.93-1.382,5.9,5.9,0,0,1-1.046-3.652Zm2.754.2a4.218,4.218,0,0,0,.454,2.129,1.579,1.579,0,0,0,1.476.775,2.153,2.153,0,0,0,1.041-.242,1.942,1.942,0,0,0,.729-.71v-4.388a2.131,2.131,0,0,0-.725-.758,1.917,1.917,0,0,0-1.026-.272,1.56,1.56,0,0,0-1.482.906,5.15,5.15,0,0,0-.468,2.361Z" transform="translate(-852.336 -4131.679)" fill="#fff"/>
    </g>
    <text id="Atributos_de_rendimiento" data-name="Atributos de rendimiento" transform="translate(629.309 4220.681)" fill="#fff" font-size="18" font-family="Roboto-Bold, Roboto" font-weight="700" style="isolation: isolate"><tspan x="2.534" y="19">Atributos de </tspan><tspan x="3.404" y="35.8">rendimiento</tspan></text>
    <text id="Precio_de_compra_costos_de_operación_costos_de_reparación_costos_extras_costos_de_instalación_rebaja_por_cambio_probable_valor_de_reventa." data-name="Precio de compra, costos de operación, costos de reparación, costos extras, costos de instalación, rebaja por cambio, probable valor de reventa." transform="translate(300.453 4345.645)" fill="#1d1d1b" font-size="18" font-family="Roboto-Regular, Roboto" style="isolation: isolate"><tspan x="0" y="19">Precio de compra, costos de </tspan><tspan x="0" y="37">operación, costos de reparación, </tspan><tspan x="0" y="55">costos extras, costos de </tspan><tspan x="0" y="73">instalación, rebaja por cambio, </tspan><tspan x="0" y="91">probable valor de reventa.</tspan></text>
    <text id="Durabilidad_calidad_de_los_materiales_construcción_confiablidad_rendimiento_funcional_eficiencia_seguridad." data-name="Durabilidad, calidad de los materiales, construcción, confiablidad, rendimiento funcional, eficiencia, seguridad." transform="translate(550.307 3941.422)" fill="#1d1d1b" font-size="18" font-family="Roboto-Regular, Roboto" style="isolation: isolate"><tspan x="0" y="19">Durabilidad, calidad de los </tspan><tspan x="0" y="37">materiales, construcción, </tspan><tspan x="0" y="55">confiablidad, rendimiento </tspan><tspan x="0" y="73">funcional, eficiencia, seguridad.</tspan></text>
    <text id="Vendido_por_tiendas_locales_términos_de_crédito_calidad_de_servicio_de_un_distribuidor_local_tiempo_de_entrega." data-name="Vendido por tiendas locales, términos de crédito, calidad de servicio de un distribuidor local, tiempo de entrega." transform="translate(1032.006 3941.422)" fill="#1d1d1b" font-size="18" font-family="Roboto-Regular, Roboto" style="isolation: isolate"><tspan x="0" y="19">Vendido por tiendas locales, </tspan><tspan x="0" y="37">términos de crédito, calidad de </tspan><tspan x="0" y="55">servicio de un distribuidor local, </tspan><tspan x="0" y="73">tiempo de entrega.</tspan></text>
    <text id="Prestigio_de_la_marca_imagen_de_estado_popularidad_con_amigos_y_miembros_de_la_familia_estilo_moda." data-name="Prestigio de la marca, imagen de estado, popularidad con amigos y miembros de la familia, estilo, moda." transform="translate(792.42 4350.279)" fill="#1d1d1b" font-size="18" font-family="Roboto-Regular, Roboto" style="isolation: isolate"><tspan x="0" y="19">Prestigio de la marca, imagen de </tspan><tspan x="0" y="37">estado, popularidad con amigos </tspan><tspan x="0" y="55">y miembros de la familia, estilo, </tspan><tspan x="0" y="73">moda.</tspan></text>
  </g>
</svg>
