<svg xmlns="http://www.w3.org/2000/svg" width="319.946" height="196.9" viewBox="0 0 319.946 196.9">
  <g id="Grupo_85456" data-name="Grupo 85456" transform="translate(-509.22 -1713.185)">
    <path id="Trazado_192748" data-name="Trazado 192748" d="M372.626,4501.2l50.445,47.442v-70.263Z" transform="translate(136.595 -2725.256)" fill="#4d4d4d"/>
    <path id="Rectángulo_24581" data-name="Rectángulo 24581" d="M0,0H213.472a0,0,0,0,1,0,0V135.526a12,12,0,0,1-12,12H12a12,12,0,0,1-12-12V0A0,0,0,0,1,0,0Z" transform="translate(523.591 1762.559)" fill="#e5e5e5"/>
    <path id="Rectángulo_24582" data-name="Rectángulo 24582" d="M0,0H211.823a25.844,25.844,0,0,1,25.844,25.844V62.756a0,0,0,0,1,0,0H0a0,0,0,0,1,0,0V0A0,0,0,0,1,0,0Z" transform="translate(509.22 1713.185)" fill="#989898"/>
    <text id="Identificación_de_necesidades._Se_evalúa_la_disposición_para_negociar._" data-name="Identificación de necesidades.
Se evalúa la disposición para negociar.
" transform="translate(552.102 1786.429)" fill="#073360" font-size="17.507" font-family="Roboto-Regular, Roboto"><tspan x="0" y="18">Identificación de </tspan><tspan x="0" y="39.008">necesidades.</tspan><tspan x="0" y="60.016">Se evalúa la </tspan><tspan x="0" y="81.025">disposición para </tspan><tspan x="0" y="102.033">negociar.</tspan></text>
    <text id="_2._Discusión_" data-name="2. Discusión
" transform="translate(518.321 1730.017)" fill="#fff" font-size="19.695" font-family="Roboto-Black, Roboto" font-weight="800"><tspan x="50.613" y="21">2. Discusión</tspan></text>
    <path id="comprobado" d="M397.849,4524.613l5.369,5.379,10.311-10.3-1.48-1.459-8.831,8.817-3.91-3.9Z" transform="translate(136.595 -2725.256)" fill="#db6e5f"/>
    <path id="comprobado-2" data-name="comprobado" d="M397.849,4567.063l5.369,5.379,10.311-10.3-1.48-1.46-8.831,8.817-3.91-3.9Z" transform="translate(136.595 -2725.256)" fill="#db6e5f"/>
    <g id="Grupo_85092" data-name="Grupo 85092" transform="translate(136.595 -2725.256)">
      <rect id="Rectángulo_24583" data-name="Rectángulo 24583" width="50.671" height="32.892" transform="translate(616.121 4536.556)" fill="#989898"/>
      <path id="Trazado_192749" data-name="Trazado 192749" d="M664.125,4581.894V4524.11l28.447,28Z" fill="#989898"/>
    </g>
  </g>
</svg>
