<svg xmlns="http://www.w3.org/2000/svg" width="237.667" height="196.9" viewBox="0 0 237.667 196.9">
  <g id="Grupo_85458" data-name="Grupo 85458" transform="translate(-1182.333 -1713.185)">
    <path id="Trazado_192752" data-name="Trazado 192752" d="M1045.738,4501.2l50.445,47.442v-70.263Z" transform="translate(136.595 -2725.256)" fill="#073360"/>
    <path id="Rectángulo_24587" data-name="Rectángulo 24587" d="M0,0H213.472a0,0,0,0,1,0,0V135.526a12,12,0,0,1-12,12H12a12,12,0,0,1-12-12V0A0,0,0,0,1,0,0Z" transform="translate(1196.703 1762.559)" fill="#97d6f3"/>
    <path id="Rectángulo_24588" data-name="Rectángulo 24588" d="M0,0H211.823a25.844,25.844,0,0,1,25.844,25.844V62.756a0,0,0,0,1,0,0H0a0,0,0,0,1,0,0V0A0,0,0,0,1,0,0Z" transform="translate(1182.333 1713.185)" fill="#0d66be"/>
    <text id="Aquí_se_enmarca_el_acuerdo_final_y_cierre_del_negocio." data-name="Aquí se enmarca el acuerdo final y cierre del negocio." transform="translate(1225.214 1786.429)" fill="#073360" font-size="17.507" font-family="Roboto-Regular, Roboto"><tspan x="0" y="18">Aquí se enmarca el </tspan><tspan x="0" y="39.008">acuerdo final y cierre </tspan><tspan x="0" y="60.016">del negocio.</tspan></text>
    <text id="_4._Cierre._" data-name="4. Cierre.
" transform="translate(1191.433 1730.017)" fill="#fff" font-size="19.695" font-family="Roboto-Black, Roboto" font-weight="800"><tspan x="63.904" y="21">4. Cierre.</tspan></text>
    <path id="comprobado" d="M1070.961,4524.613l5.37,5.379,10.311-10.3-1.481-1.459-8.83,8.817-3.911-3.9Z" transform="translate(136.595 -2725.256)" fill="#db6e5f"/>
  </g>
</svg>
