<svg xmlns="http://www.w3.org/2000/svg" width="396.53" height="578.774" viewBox="0 0 396.53 578.774">
  <g id="Grupo_54356" data-name="Grupo 54356" transform="translate(-841.911 -171.652)">
    <path id="Rectángulo_5159" data-name="Rectángulo 5159" d="M35.762,0H242.107a35.762,35.762,0,0,1,35.762,35.762V429.335a75.137,75.137,0,0,1-75.137,75.137H75.137A75.137,75.137,0,0,1,0,429.335V35.762A35.762,35.762,0,0,1,35.762,0Z" transform="translate(841.911 244.66)" fill="#75c9f1"/>
    <g id="Grupo_53931" data-name="Grupo 53931" transform="translate(859.624 561.099)" style="mix-blend-mode: multiply;isolation: isolate">
      <g id="Grupo_53907" data-name="Grupo 53907">
        <g id="Grupo_53906" data-name="Grupo 53906">
          <g id="Grupo_53905" data-name="Grupo 53905">
            <g id="Grupo_53896" data-name="Grupo 53896" transform="translate(0.314 0.282)">
              <g id="Grupo_53895" data-name="Grupo 53895" transform="translate(0 0)">
                <g id="Grupo_53894" data-name="Grupo 53894" transform="translate(0)">
                  <g id="Grupo_53893" data-name="Grupo 53893" transform="translate(0)">
                    <g id="Grupo_53892" data-name="Grupo 53892">
                      <g id="Grupo_53891" data-name="Grupo 53891">
                        <g id="Grupo_53890" data-name="Grupo 53890">
                          <rect id="Rectángulo_5160" data-name="Rectángulo 5160" width="77.971" height="97.528" transform="translate(0 77.431) rotate(-83.253)" fill="#fafafa"/>
                        </g>
                      </g>
                    </g>
                  </g>
                </g>
              </g>
            </g>
            <g id="Grupo_53904" data-name="Grupo 53904">
              <g id="Grupo_53903" data-name="Grupo 53903">
                <g id="Grupo_53902" data-name="Grupo 53902">
                  <g id="Grupo_53901" data-name="Grupo 53901">
                    <g id="Grupo_53900" data-name="Grupo 53900">
                      <g id="Grupo_53899" data-name="Grupo 53899">
                        <g id="Grupo_53898" data-name="Grupo 53898">
                          <g id="Grupo_53897" data-name="Grupo 53897">
                            <path id="Trazado_103525" data-name="Trazado 103525" d="M961.92,484.228s-.164-.009-.471-.041l-1.361-.146-5.265-.592-19.836-2.28-69.949-8.147.281-.221c-2.717,23.047-5.833,49.467-9.129,77.426v.009l-.247-.315,96.846,11.5-.26.206c2.809-23.309,5.137-42.631,6.764-56.144.826-6.756,1.474-12.057,1.917-15.689.225-1.8.4-3.186.517-4.137s.2-1.433.2-1.433-.038.465-.139,1.389c-.1.944-.257,2.315-.457,4.1-.414,3.622-1.02,8.91-1.792,15.651-1.573,13.555-3.824,32.937-6.539,56.319l-.027.233-.234-.027-96.858-11.41-.281-.034.032-.281v-.008c3.318-27.956,6.453-54.373,9.189-77.419l.03-.252.251.03,70.082,8.419,19.764,2.405,5.209.647,1.33.172C961.778,484.2,961.92,484.228,961.92,484.228Z" transform="translate(-855.594 -472.489)" fill="#1a2e35"/>
                          </g>
                        </g>
                      </g>
                    </g>
                  </g>
                </g>
              </g>
            </g>
          </g>
        </g>
      </g>
      <g id="Grupo_53914" data-name="Grupo 53914" transform="translate(4.229 5.551)">
        <g id="Grupo_53913" data-name="Grupo 53913" transform="translate(0 0)">
          <g id="Grupo_53912" data-name="Grupo 53912">
            <g id="Grupo_53911" data-name="Grupo 53911">
              <g id="Grupo_53910" data-name="Grupo 53910">
                <g id="Grupo_53909" data-name="Grupo 53909">
                  <g id="Grupo_53908" data-name="Grupo 53908">
                    <rect id="Rectángulo_5161" data-name="Rectángulo 5161" width="68.154" height="90.676" transform="matrix(0.117, -0.993, 0.993, 0.117, 0, 67.682)" fill="#ececec"/>
                  </g>
                </g>
              </g>
            </g>
          </g>
        </g>
      </g>
      <g id="Grupo_53921" data-name="Grupo 53921" transform="translate(4.229 34.883)">
        <g id="Grupo_53920" data-name="Grupo 53920">
          <g id="Grupo_53919" data-name="Grupo 53919">
            <g id="Grupo_53918" data-name="Grupo 53918">
              <g id="Grupo_53917" data-name="Grupo 53917">
                <g id="Grupo_53916" data-name="Grupo 53916">
                  <g id="Grupo_53915" data-name="Grupo 53915">
                    <path id="Trazado_103526" data-name="Trazado 103526" d="M858.861,537.786l36.428-38.35,16.369,28.626,14.879-12.508,22.372,32.884Z" transform="translate(-858.861 -499.435)" fill="#e1e1e1"/>
                  </g>
                </g>
              </g>
            </g>
          </g>
        </g>
      </g>
      <g id="Grupo_53930" data-name="Grupo 53930" transform="translate(54.79 25.034)">
        <g id="Grupo_53929" data-name="Grupo 53929">
          <g id="Grupo_53928" data-name="Grupo 53928">
            <g id="Grupo_53927" data-name="Grupo 53927">
              <g id="Grupo_53926" data-name="Grupo 53926">
                <g id="Grupo_53925" data-name="Grupo 53925">
                  <g id="Grupo_53924" data-name="Grupo 53924">
                    <g id="Grupo_53923" data-name="Grupo 53923">
                      <g id="Grupo_53922" data-name="Grupo 53922">
                        <path id="Trazado_103527" data-name="Trazado 103527" d="M912.148,499.805a7.14,7.14,0,1,1-6.251-7.928A7.14,7.14,0,0,1,912.148,499.805Z" transform="translate(-897.917 -491.827)" fill="#e1e1e1"/>
                      </g>
                    </g>
                  </g>
                </g>
              </g>
            </g>
          </g>
        </g>
      </g>
    </g>
    <path id="Trazado_103528" data-name="Trazado 103528" d="M1043.939,734.11H960.608a98.676,98.676,0,0,1-98.564-98.563V274.638a47.643,47.643,0,0,1,47.59-47.589h185.279a47.643,47.643,0,0,1,47.589,47.589V635.547A98.675,98.675,0,0,1,1043.939,734.11ZM909.634,229.638a45.051,45.051,0,0,0-45,45V635.547a96.083,96.083,0,0,0,95.975,95.974h83.331a96.083,96.083,0,0,0,95.974-95.974V274.638a45.051,45.051,0,0,0-45-45Z" transform="translate(5.93 16.317)" fill="#db6e5f"/>
    <g id="Grupo_54212" data-name="Grupo 54212" transform="translate(872.031 171.652)">
      <g id="Grupo_53933" data-name="Grupo 53933" transform="translate(69.372 488.433)">
        <g id="Grupo_53932" data-name="Grupo 53932">
          <path id="Trazado_103529" data-name="Trazado 103529" d="M922.608,548.953l-3.842,56.958,24.582,3.018,11.772-58.168Z" transform="translate(-918.766 -548.953)" fill="#aa6550"/>
        </g>
      </g>
      <g id="Grupo_53938" data-name="Grupo 53938" transform="translate(39.285 537.867)">
        <g id="Grupo_53937" data-name="Grupo 53937">
          <g id="Grupo_53936" data-name="Grupo 53936">
            <g id="Grupo_53935" data-name="Grupo 53935">
              <g id="Grupo_53934" data-name="Grupo 53934">
                <path id="Trazado_103530" data-name="Trazado 103530" d="M925.912,587.139l-.225,1.631s-29.165,7.407-30.163,12.618l54.991,7.082,1.609-18.4C943.461,592.809,934.848,592.133,925.912,587.139Z" transform="translate(-895.524 -587.139)" fill="#ff735d"/>
              </g>
            </g>
          </g>
        </g>
      </g>
      <g id="Grupo_53944" data-name="Grupo 53944" transform="translate(86.619 545.768)">
        <g id="Grupo_53943" data-name="Grupo 53943">
          <g id="Grupo_53942" data-name="Grupo 53942">
            <g id="Grupo_53941" data-name="Grupo 53941">
              <g id="Grupo_53940" data-name="Grupo 53940">
                <g id="Grupo_53939" data-name="Grupo 53939">
                  <path id="Trazado_103531" data-name="Trazado 103531" d="M935.033,593.41a2.265,2.265,0,0,1,1.222,2.764,2.176,2.176,0,0,1-2.728,1.235,2.386,2.386,0,0,1-1.279-2.932,2.257,2.257,0,0,1,2.98-.971" transform="translate(-932.089 -593.242)" fill="#fff"/>
                </g>
              </g>
            </g>
          </g>
        </g>
      </g>
      <g id="Grupo_53949" data-name="Grupo 53949" transform="translate(39.284 549.606)">
        <g id="Grupo_53948" data-name="Grupo 53948">
          <g id="Grupo_53947" data-name="Grupo 53947">
            <g id="Grupo_53946" data-name="Grupo 53946">
              <g id="Grupo_53945" data-name="Grupo 53945">
                <path id="Trazado_103532" data-name="Trazado 103532" d="M950.515,605.8l.387-4.425-52.847-5.168s-2.585.751-2.531,2.51Z" transform="translate(-895.523 -596.207)" fill="#fff"/>
              </g>
            </g>
          </g>
        </g>
      </g>
      <g id="Grupo_53955" data-name="Grupo 53955" transform="translate(69.235 539.465)">
        <g id="Grupo_53954" data-name="Grupo 53954">
          <g id="Grupo_53953" data-name="Grupo 53953">
            <g id="Grupo_53952" data-name="Grupo 53952">
              <g id="Grupo_53951" data-name="Grupo 53951">
                <g id="Grupo_53950" data-name="Grupo 53950">
                  <path id="Trazado_103533" data-name="Trazado 103533" d="M918.66,588.536c-.026.269,1.3.564,2.511,1.6,1.238,1,1.768,2.253,2.029,2.179.255-.021.061-1.678-1.425-2.9S918.633,588.282,918.66,588.536Z" transform="translate(-918.66 -588.374)" fill="#1a2e35"/>
                </g>
              </g>
            </g>
          </g>
        </g>
      </g>
      <g id="Grupo_53961" data-name="Grupo 53961" transform="translate(63.154 541.191)">
        <g id="Grupo_53960" data-name="Grupo 53960">
          <g id="Grupo_53959" data-name="Grupo 53959">
            <g id="Grupo_53958" data-name="Grupo 53958">
              <g id="Grupo_53957" data-name="Grupo 53957">
                <g id="Grupo_53956" data-name="Grupo 53956">
                  <path id="Trazado_103534" data-name="Trazado 103534" d="M913.968,589.786c-.095.252,1.01.858,1.776,2.111.8,1.231.874,2.488,1.143,2.511.246.075.634-1.474-.347-3.014S914.007,589.531,913.968,589.786Z" transform="translate(-913.963 -589.707)" fill="#1a2e35"/>
                </g>
              </g>
            </g>
          </g>
        </g>
      </g>
      <g id="Grupo_53967" data-name="Grupo 53967" transform="translate(57.426 542.855)">
        <g id="Grupo_53966" data-name="Grupo 53966">
          <g id="Grupo_53965" data-name="Grupo 53965">
            <g id="Grupo_53964" data-name="Grupo 53964">
              <g id="Grupo_53963" data-name="Grupo 53963">
                <g id="Grupo_53962" data-name="Grupo 53962">
                  <path id="Trazado_103535" data-name="Trazado 103535" d="M911.107,595.888c.237.089.783-1.2.283-2.764s-1.682-2.306-1.824-2.1c-.18.2.535,1.1.926,2.382C910.913,594.685,910.844,595.827,911.107,595.888Z" transform="translate(-909.538 -590.992)" fill="#1a2e35"/>
                </g>
              </g>
            </g>
          </g>
        </g>
      </g>
      <g id="Grupo_54111" data-name="Grupo 54111" transform="translate(116.204 14.383)">
        <g id="Grupo_53969" data-name="Grupo 53969" transform="translate(56.304 7.256)">
          <g id="Grupo_53968" data-name="Grupo 53968">
            <path id="Trazado_103536" data-name="Trazado 103536" d="M998.435,196.687c.611-3.933,4.154-6.954,8.02-7.9s7.958-.155,11.705,1.181a27.953,27.953,0,0,1,11.264,7.007,16.95,16.95,0,0,1,4.759,12.14c-.223,4.179-2.307,8.372-1.143,12.393.884,3.053,3.468,5.28,6.06,7.123s5.4,3.569,7.141,6.227,2.03,6.614-.325,8.747c-2.1,1.9-5.858,2.117-6.739,4.805-.546,1.667.382,3.407.893,5.086a13.247,13.247,0,0,1-1.714,10.661,22.306,22.306,0,0,1-8.169,7.389c-5.665,3.2-12.729,4.694-18.713,2.14a17.994,17.994,0,0,1-7.375-6.057c-3.147-4.337-4.554-9.743-4.883-15.092a85.333,85.333,0,0,1,1.037-16.017" transform="translate(-998.435 -188.368)" fill="#1a2e35"/>
          </g>
        </g>
        <g id="Grupo_53972" data-name="Grupo 53972" transform="translate(54.226 16.522)">
          <g id="Grupo_53971" data-name="Grupo 53971">
            <g id="Grupo_53970" data-name="Grupo 53970">
              <path id="Trazado_103537" data-name="Trazado 103537" d="M996.83,258.222a16.476,16.476,0,0,0,20.856-16.256c-.107-4.776-2.267-9.642-.783-14.182,1.019-3.117,3.633-5.547,4.509-8.707,1.307-4.719-1.544-9.486-4.268-13.554a31.751,31.751,0,0,0-5.968-7.243c-2.436-1.983-5.665-3.234-8.737-2.581" transform="translate(-996.83 -195.525)" fill="#1a2e35"/>
            </g>
          </g>
        </g>
        <g id="Grupo_53976" data-name="Grupo 53976" transform="translate(0 17.113)">
          <g id="Grupo_53975" data-name="Grupo 53975">
            <g id="Grupo_53974" data-name="Grupo 53974">
              <g id="Grupo_53973" data-name="Grupo 53973">
                <path id="Trazado_103538" data-name="Trazado 103538" d="M965.134,195.982c.267,3.605-2.114,6.825-4.513,9.529s-5.067,5.523-5.586,9.1c-.918,6.339,5.288,12.226,4.008,18.5-.686,3.365-3.44,6.066-3.93,9.464-.475,3.286,1.287,6.5,3.469,9s4.843,4.588,6.774,7.29c0,0,4.02,6.6,16.4,2.373" transform="translate(-954.942 -195.982)" fill="#1a2e35"/>
              </g>
            </g>
          </g>
        </g>
        <g id="Grupo_53980" data-name="Grupo 53980" transform="translate(10.078)">
          <g id="Grupo_53979" data-name="Grupo 53979">
            <g id="Grupo_53978" data-name="Grupo 53978">
              <g id="Grupo_53977" data-name="Grupo 53977">
                <path id="Trazado_103539" data-name="Trazado 103539" d="M1018.245,205.388c.093-3.269-2.931-5.794-5.973-6.992s-6.426-1.649-9.14-3.475c-2.4-1.617-4.017-4.139-6.049-6.2a20.131,20.131,0,0,0-33.856,9.237c-1.169,4.656-.371,10.161,3.3,13.254,4.259,3.591,10.574,2.794,16.032,1.676s11.634-2.219,16.191.986c2.748,1.933,4.324,5.077,6,7.987s3.789,5.88,6.965,6.974,7.49-.795,7.615-4.153" transform="translate(-962.727 -182.763)" fill="#1a2e35"/>
              </g>
            </g>
          </g>
        </g>
        <g id="Grupo_54082" data-name="Grupo 54082" transform="translate(6.925 15.834)">
          <g id="Grupo_54081" data-name="Grupo 54081">
            <g id="Grupo_54080" data-name="Grupo 54080">
              <g id="Grupo_54079" data-name="Grupo 54079">
                <g id="Grupo_54058" data-name="Grupo 54058">
                  <g id="Grupo_54057" data-name="Grupo 54057">
                    <g id="Grupo_54056" data-name="Grupo 54056">
                      <g id="Grupo_53990" data-name="Grupo 53990">
                        <g id="Grupo_53989" data-name="Grupo 53989">
                          <g id="Grupo_53988" data-name="Grupo 53988">
                            <g id="Grupo_53987" data-name="Grupo 53987">
                              <g id="Grupo_53986" data-name="Grupo 53986">
                                <g id="Grupo_53985" data-name="Grupo 53985">
                                  <g id="Grupo_53984" data-name="Grupo 53984">
                                    <g id="Grupo_53983" data-name="Grupo 53983">
                                      <g id="Grupo_53982" data-name="Grupo 53982">
                                        <g id="Grupo_53981" data-name="Grupo 53981">
                                          <path id="Trazado_103540" data-name="Trazado 103540" d="M1006.07,202.457a5.47,5.47,0,0,1,4.882,5.56h0l-3.264,73.877c-.136,8.725-12.89,13.628-22.233,13.41h0c-9.433-.219-9.738-4.845-9.855-13.146-.2-13.868-.18-19.075-.185-19,0,0-11.916-2.005-14.353-17.563-1.21-7.739-.794-20.419-.118-30.784.608-9.328,6.816-20.763,16.111-19.759Z" transform="translate(-960.292 -194.994)" fill="#aa6550"/>
                                        </g>
                                      </g>
                                    </g>
                                  </g>
                                </g>
                              </g>
                            </g>
                          </g>
                        </g>
                      </g>
                      <g id="Grupo_54012" data-name="Grupo 54012" transform="translate(2.862 22.654)">
                        <g id="Grupo_54000" data-name="Grupo 54000" transform="translate(0.542 5.606)">
                          <g id="Grupo_53999" data-name="Grupo 53999">
                            <g id="Grupo_53998" data-name="Grupo 53998">
                              <g id="Grupo_53997" data-name="Grupo 53997">
                                <g id="Grupo_53996" data-name="Grupo 53996">
                                  <g id="Grupo_53995" data-name="Grupo 53995">
                                    <g id="Grupo_53994" data-name="Grupo 53994">
                                      <g id="Grupo_53993" data-name="Grupo 53993">
                                        <g id="Grupo_53992" data-name="Grupo 53992">
                                          <g id="Grupo_53991" data-name="Grupo 53991">
                                            <path id="Trazado_103541" data-name="Trazado 103541" d="M962.922,218.623a2,2,0,0,0,1.92,2.017,1.908,1.908,0,0,0,2.06-1.794,2,2,0,0,0-1.917-2.018A1.91,1.91,0,0,0,962.922,218.623Z" transform="translate(-962.921 -216.824)" fill="#1a2e35"/>
                                          </g>
                                        </g>
                                      </g>
                                    </g>
                                  </g>
                                </g>
                              </g>
                            </g>
                          </g>
                        </g>
                        <g id="Grupo_54011" data-name="Grupo 54011">
                          <g id="Grupo_54010" data-name="Grupo 54010">
                            <g id="Grupo_54009" data-name="Grupo 54009">
                              <g id="Grupo_54008" data-name="Grupo 54008">
                                <g id="Grupo_54007" data-name="Grupo 54007">
                                  <g id="Grupo_54006" data-name="Grupo 54006">
                                    <g id="Grupo_54005" data-name="Grupo 54005">
                                      <g id="Grupo_54004" data-name="Grupo 54004">
                                        <g id="Grupo_54003" data-name="Grupo 54003">
                                          <g id="Grupo_54002" data-name="Grupo 54002">
                                            <g id="Grupo_54001" data-name="Grupo 54001">
                                              <path id="Trazado_103542" data-name="Trazado 103542" d="M962.534,214.582c.247.262,1.761-.853,3.907-.843,2.144-.021,3.717,1.086,3.951.825.114-.117-.137-.586-.822-1.087a5.471,5.471,0,0,0-3.161-.983,5.263,5.263,0,0,0-3.111,1C962.636,214,962.412,214.466,962.534,214.582Z" transform="translate(-962.502 -212.494)" fill="#1a2e35"/>
                                            </g>
                                          </g>
                                        </g>
                                      </g>
                                    </g>
                                  </g>
                                </g>
                              </g>
                            </g>
                          </g>
                        </g>
                      </g>
                      <g id="Grupo_54034" data-name="Grupo 54034" transform="translate(23.34 23.718)">
                        <g id="Grupo_54022" data-name="Grupo 54022" transform="translate(0 4.921)">
                          <g id="Grupo_54021" data-name="Grupo 54021">
                            <g id="Grupo_54020" data-name="Grupo 54020">
                              <g id="Grupo_54019" data-name="Grupo 54019">
                                <g id="Grupo_54018" data-name="Grupo 54018">
                                  <g id="Grupo_54017" data-name="Grupo 54017">
                                    <g id="Grupo_54016" data-name="Grupo 54016">
                                      <g id="Grupo_54015" data-name="Grupo 54015">
                                        <g id="Grupo_54014" data-name="Grupo 54014">
                                          <g id="Grupo_54013" data-name="Grupo 54013">
                                            <path id="Trazado_103543" data-name="Trazado 103543" d="M978.322,218.916a2,2,0,0,0,1.918,2.017,1.909,1.909,0,0,0,2.061-1.794,2,2,0,0,0-1.917-2.018A1.91,1.91,0,0,0,978.322,218.916Z" transform="translate(-978.321 -217.117)" fill="#1a2e35"/>
                                          </g>
                                        </g>
                                      </g>
                                    </g>
                                  </g>
                                </g>
                              </g>
                            </g>
                          </g>
                        </g>
                        <g id="Grupo_54033" data-name="Grupo 54033" transform="translate(1.116)">
                          <g id="Grupo_54032" data-name="Grupo 54032">
                            <g id="Grupo_54031" data-name="Grupo 54031">
                              <g id="Grupo_54030" data-name="Grupo 54030">
                                <g id="Grupo_54029" data-name="Grupo 54029">
                                  <g id="Grupo_54028" data-name="Grupo 54028">
                                    <g id="Grupo_54027" data-name="Grupo 54027">
                                      <g id="Grupo_54026" data-name="Grupo 54026">
                                        <g id="Grupo_54025" data-name="Grupo 54025">
                                          <g id="Grupo_54024" data-name="Grupo 54024">
                                            <g id="Grupo_54023" data-name="Grupo 54023">
                                              <path id="Trazado_103544" data-name="Trazado 103544" d="M979.214,215.405c.247.26,1.762-.854,3.907-.844,2.144-.021,3.718,1.087,3.951.825.114-.117-.135-.586-.822-1.087a5.482,5.482,0,0,0-3.161-.983,5.265,5.265,0,0,0-3.111,1C979.319,214.818,979.094,215.288,979.214,215.405Z" transform="translate(-979.183 -213.316)" fill="#1a2e35"/>
                                            </g>
                                          </g>
                                        </g>
                                      </g>
                                    </g>
                                  </g>
                                </g>
                              </g>
                            </g>
                          </g>
                        </g>
                      </g>
                      <g id="Grupo_54045" data-name="Grupo 54045" transform="translate(11.196 24.89)">
                        <g id="Grupo_54044" data-name="Grupo 54044">
                          <g id="Grupo_54043" data-name="Grupo 54043">
                            <g id="Grupo_54042" data-name="Grupo 54042">
                              <g id="Grupo_54041" data-name="Grupo 54041">
                                <g id="Grupo_54040" data-name="Grupo 54040">
                                  <g id="Grupo_54039" data-name="Grupo 54039">
                                    <g id="Grupo_54038" data-name="Grupo 54038">
                                      <g id="Grupo_54037" data-name="Grupo 54037">
                                        <g id="Grupo_54036" data-name="Grupo 54036">
                                          <g id="Grupo_54035" data-name="Grupo 54035">
                                            <path id="Trazado_103545" data-name="Trazado 103545" d="M974.406,232.1a14.242,14.242,0,0,0-3.485-.636c-.548-.058-1.067-.168-1.157-.542a2.8,2.8,0,0,1,.369-1.625q.779-1.986,1.63-4.17c2.264-5.937,3.9-10.819,3.665-10.908s-2.269,4.65-4.534,10.588q-.818,2.2-1.562,4.194a3.172,3.172,0,0,0-.289,2.15,1.377,1.377,0,0,0,.9.8,3.617,3.617,0,0,0,.931.131A13.846,13.846,0,0,0,974.406,232.1Z" transform="translate(-968.94 -214.221)" fill="#1a2e35"/>
                                          </g>
                                        </g>
                                      </g>
                                    </g>
                                  </g>
                                </g>
                              </g>
                            </g>
                          </g>
                        </g>
                      </g>
                      <g id="Grupo_54055" data-name="Grupo 54055" transform="translate(15.123 62.658)">
                        <g id="Grupo_54054" data-name="Grupo 54054">
                          <g id="Grupo_54053" data-name="Grupo 54053">
                            <g id="Grupo_54052" data-name="Grupo 54052">
                              <g id="Grupo_54051" data-name="Grupo 54051">
                                <g id="Grupo_54050" data-name="Grupo 54050">
                                  <g id="Grupo_54049" data-name="Grupo 54049">
                                    <g id="Grupo_54048" data-name="Grupo 54048">
                                      <g id="Grupo_54047" data-name="Grupo 54047">
                                        <g id="Grupo_54046" data-name="Grupo 54046">
                                          <path id="Trazado_103546" data-name="Trazado 103546" d="M971.974,248.906a39.568,39.568,0,0,0,20.841-5.51s-5.278,10.683-20.841,9.193Z" transform="translate(-971.974 -243.396)" fill="#724940"/>
                                        </g>
                                      </g>
                                    </g>
                                  </g>
                                </g>
                              </g>
                            </g>
                          </g>
                        </g>
                      </g>
                    </g>
                  </g>
                </g>
                <g id="Grupo_54068" data-name="Grupo 54068" transform="translate(23.534 18.986)">
                  <g id="Grupo_54067" data-name="Grupo 54067">
                    <g id="Grupo_54066" data-name="Grupo 54066">
                      <g id="Grupo_54065" data-name="Grupo 54065">
                        <g id="Grupo_54064" data-name="Grupo 54064">
                          <g id="Grupo_54063" data-name="Grupo 54063">
                            <g id="Grupo_54062" data-name="Grupo 54062">
                              <g id="Grupo_54061" data-name="Grupo 54061">
                                <g id="Grupo_54060" data-name="Grupo 54060">
                                  <g id="Grupo_54059" data-name="Grupo 54059">
                                    <path id="Trazado_103547" data-name="Trazado 103547" d="M978.482,211.26c.21.584,2.355.312,4.871.621,2.524.259,4.553,1,4.888.478.15-.25-.2-.8-1.023-1.367a8.541,8.541,0,0,0-7.436-.838C978.858,210.525,978.392,210.983,978.482,211.26Z" transform="translate(-978.471 -209.66)" fill="#1a2e35"/>
                                  </g>
                                </g>
                              </g>
                            </g>
                          </g>
                        </g>
                      </g>
                    </g>
                  </g>
                </g>
                <g id="Grupo_54078" data-name="Grupo 54078" transform="translate(3.15 17.77)">
                  <g id="Grupo_54077" data-name="Grupo 54077">
                    <g id="Grupo_54076" data-name="Grupo 54076">
                      <g id="Grupo_54075" data-name="Grupo 54075">
                        <g id="Grupo_54074" data-name="Grupo 54074">
                          <g id="Grupo_54073" data-name="Grupo 54073">
                            <g id="Grupo_54072" data-name="Grupo 54072">
                              <g id="Grupo_54071" data-name="Grupo 54071">
                                <g id="Grupo_54070" data-name="Grupo 54070">
                                  <g id="Grupo_54069" data-name="Grupo 54069">
                                    <path id="Trazado_103548" data-name="Trazado 103548" d="M962.787,210.936c.427.488,2.106-.014,4.122-.034,2.016-.082,3.723.335,4.117-.173.173-.247-.094-.735-.839-1.2a6.292,6.292,0,0,0-3.349-.807,6.214,6.214,0,0,0-3.289.972C962.835,210.2,962.6,210.7,962.787,210.936Z" transform="translate(-962.725 -208.721)" fill="#1a2e35"/>
                                  </g>
                                </g>
                              </g>
                            </g>
                          </g>
                        </g>
                      </g>
                    </g>
                  </g>
                </g>
              </g>
            </g>
          </g>
        </g>
        <g id="Grupo_54086" data-name="Grupo 54086" transform="translate(20.094 12.517)">
          <g id="Grupo_54085" data-name="Grupo 54085">
            <g id="Grupo_54084" data-name="Grupo 54084">
              <g id="Grupo_54083" data-name="Grupo 54083">
                <path id="Trazado_103549" data-name="Trazado 103549" d="M1013.934,254.383a13.813,13.813,0,0,1-16.43-15.273c.484-3.82,2.544-7.706,1.219-11.322-1.752-4.781-8.452-6.25-10.23-11.022-1.034-2.772-.106-6.014-1.278-8.732-1.1-2.554-3.789-4.026-6.405-4.972s-5.422-1.6-7.618-3.306-3.567-4.93-2.15-7.323a147.337,147.337,0,0,1,33.987,8.258c2.539.948,5.2,2.087,6.7,4.343,1.588,2.387,1.512,5.471,1.379,8.336q-.977,20.948-1.955,41.9" transform="translate(-970.464 -192.432)" fill="#1a2e35"/>
              </g>
            </g>
          </g>
        </g>
        <g id="Grupo_54090" data-name="Grupo 54090" transform="translate(19.934 9.146)">
          <g id="Grupo_54089" data-name="Grupo 54089">
            <g id="Grupo_54088" data-name="Grupo 54088">
              <g id="Grupo_54087" data-name="Grupo 54087">
                <path id="Trazado_103550" data-name="Trazado 103550" d="M1022.19,204.613a1.214,1.214,0,0,1,.258.637,2.368,2.368,0,0,1-.6,1.869,3.9,3.9,0,0,1-2.783,1.407,8.977,8.977,0,0,1-3.941-1.179,10.967,10.967,0,0,0-4.539-1.34,23.709,23.709,0,0,0-5.491.5,37.088,37.088,0,0,1-6.21.8,8.947,8.947,0,0,1-6.369-2.325,18.466,18.466,0,0,1-3.667-5.688,28.5,28.5,0,0,0-2.969-5.336,8.717,8.717,0,0,0-8.976-3.275,9.1,9.1,0,0,0-5.415,4.005,21.4,21.4,0,0,0-1.139,2.3,1.964,1.964,0,0,1,.118-.668,8.4,8.4,0,0,1,.752-1.8,9.2,9.2,0,0,1,5.542-4.4,9.09,9.09,0,0,1,5,.1,9.325,9.325,0,0,1,4.707,3.269,28.482,28.482,0,0,1,3.1,5.455,18.008,18.008,0,0,0,3.506,5.44,8.176,8.176,0,0,0,5.82,2.123,37.577,37.577,0,0,0,6.08-.743,23.69,23.69,0,0,1,5.667-.434,11.4,11.4,0,0,1,4.741,1.5,8.8,8.8,0,0,0,3.679,1.241,3.62,3.62,0,0,0,2.557-1.162,2.286,2.286,0,0,0,.675-1.647C1022.268,204.842,1022.143,204.631,1022.19,204.613Z" transform="translate(-970.341 -189.828)" fill="#375a64"/>
              </g>
            </g>
          </g>
        </g>
        <g id="Grupo_54094" data-name="Grupo 54094" transform="translate(56.848 15.722)">
          <g id="Grupo_54093" data-name="Grupo 54093">
            <g id="Grupo_54092" data-name="Grupo 54092">
              <g id="Grupo_54091" data-name="Grupo 54091">
                <path id="Trazado_103551" data-name="Trazado 103551" d="M1015.54,204.6c-.2.171-2.579-3.794-7.365-6.491-4.743-2.776-9.366-2.829-9.319-3.089a7.317,7.317,0,0,1,2.961.035,19.331,19.331,0,0,1,12.2,7A7.322,7.322,0,0,1,1015.54,204.6Z" transform="translate(-998.856 -194.908)" fill="#375a64"/>
              </g>
            </g>
          </g>
        </g>
        <g id="Grupo_54097" data-name="Grupo 54097" transform="translate(18.028 5.08)">
          <g id="Grupo_54096" data-name="Grupo 54096">
            <g id="Grupo_54095" data-name="Grupo 54095">
              <path id="Trazado_103552" data-name="Trazado 103552" d="M1006.917,196.638c.023.014-.05.17-.218.458a4.679,4.679,0,0,1-1,1.056,6.8,6.8,0,0,1-5.147,1.144c-2.3-.348-4.659-1.928-6.732-4.014-2.106-2.049-4.057-4.69-6.918-6.315a12.232,12.232,0,0,0-8.927-1.137,11.773,11.773,0,0,0-6.232,4.038,12.935,12.935,0,0,0-2.373,4.527c-.338,1.174-.4,1.86-.473,1.853-.027,0-.035-.173-.022-.5a8.251,8.251,0,0,1,.2-1.425,12.332,12.332,0,0,1,8.719-9.194,12.777,12.777,0,0,1,9.5,1.152c3.063,1.753,5.008,4.466,7.046,6.49,2,2.07,4.2,3.589,6.312,3.978a6.705,6.705,0,0,0,4.871-.844A9.8,9.8,0,0,0,1006.917,196.638Z" transform="translate(-968.868 -186.687)" fill="#375a64"/>
            </g>
          </g>
        </g>
        <g id="Grupo_54099" data-name="Grupo 54099" transform="translate(55.362 26.139)">
          <g id="Grupo_54098" data-name="Grupo 54098">
            <path id="Trazado_103553" data-name="Trazado 103553" d="M997.708,257.959a2.089,2.089,0,0,0,.691.19,12.292,12.292,0,0,0,2.044.206,15.9,15.9,0,0,0,7.356-1.658,17.007,17.007,0,0,0,7.839-7.925,19.593,19.593,0,0,0,1.328-13.553,39.364,39.364,0,0,1-1.367-6.814,10.8,10.8,0,0,1,1.539-6.043,22.159,22.159,0,0,0,2.408-5.511,12.942,12.942,0,0,0,.15-5.274,13.892,13.892,0,0,0-3.212-6.816,10.209,10.209,0,0,0-1.493-1.415c-.378-.281-.584-.413-.6-.388-.057.07.738.66,1.82,2.032a14.261,14.261,0,0,1,2.844,6.688,12.51,12.51,0,0,1-.25,4.992,22.046,22.046,0,0,1-2.416,5.295,15.991,15.991,0,0,0-1.31,3.024,10.8,10.8,0,0,0-.381,3.459,38.57,38.57,0,0,0,1.372,6.983,18.985,18.985,0,0,1-1.2,12.971,16.626,16.626,0,0,1-14.43,9.594C998.691,258.05,997.72,257.874,997.708,257.959Z" transform="translate(-997.708 -202.955)" fill="#375a64"/>
          </g>
        </g>
        <g id="Grupo_54101" data-name="Grupo 54101" transform="translate(67.209 10.502)">
          <g id="Grupo_54100" data-name="Grupo 54100">
            <path id="Trazado_103554" data-name="Trazado 103554" d="M1022.563,192.637a5.146,5.146,0,0,0-2.656-1.374,10.424,10.424,0,0,0-12.312,5.649,5.154,5.154,0,0,0-.691,2.908c.15.034.388-1.077,1.271-2.607a10.747,10.747,0,0,1,11.584-5.314C1021.492,192.228,1022.491,192.771,1022.563,192.637Z" transform="translate(-1006.859 -190.876)" fill="#375a64"/>
          </g>
        </g>
        <g id="Grupo_54103" data-name="Grupo 54103" transform="translate(71.125 14.01)">
          <g id="Grupo_54102" data-name="Grupo 54102">
            <path id="Trazado_103555" data-name="Trazado 103555" d="M1010.17,201.656a8.856,8.856,0,0,0-.065-1.012,5.206,5.206,0,0,1,.685-2.73,7.5,7.5,0,0,1,3.224-3.028,6.732,6.732,0,0,1,5.69-.145,10.493,10.493,0,0,1,5.086,4.87,15.668,15.668,0,0,1,1.583,8.06,53.591,53.591,0,0,1-1.458,9.217,39.065,39.065,0,0,0-1.194,10.135,30.559,30.559,0,0,0,2.634,9.875,85.176,85.176,0,0,1,3.381,8.737,19.188,19.188,0,0,1,.706,8.26,24.283,24.283,0,0,1-2.159,6.962,55.514,55.514,0,0,1-5.7,9.032c-.711.949-1.291,1.723-1.753,2.338a4.328,4.328,0,0,0-.572.849,4.224,4.224,0,0,0,.716-.731c.445-.5,1.09-1.248,1.893-2.234a50.087,50.087,0,0,0,6.007-8.969A24.5,24.5,0,0,0,1031.2,254a19.792,19.792,0,0,0-.645-8.6,82.7,82.7,0,0,0-3.362-8.847,30.04,30.04,0,0,1-2.549-9.584c-.282-6.826,2.483-13.14,2.579-19.273a16.353,16.353,0,0,0-1.759-8.453,11.116,11.116,0,0,0-5.517-5.111,7.267,7.267,0,0,0-6.166.29,7.75,7.75,0,0,0-3.31,3.323,5.1,5.1,0,0,0-.55,2.909A3.356,3.356,0,0,0,1010.17,201.656Z" transform="translate(-1009.884 -193.585)" fill="#375a64"/>
          </g>
        </g>
        <g id="Grupo_54106" data-name="Grupo 54106" transform="translate(24.081 61.24)">
          <g id="Grupo_54105" data-name="Grupo 54105">
            <g id="Grupo_54104" data-name="Grupo 54104">
              <path id="Trazado_103556" data-name="Trazado 103556" d="M973.864,232.654a10.268,10.268,0,0,0,1.336,2.619,3.483,3.483,0,0,0,2.474,1.437,3.125,3.125,0,0,0,2.641-1.441,4.982,4.982,0,0,0,.737-3c-.043-.946-.476-2.076-1.417-2.188a2.362,2.362,0,0,0-1.143.252l-4.946,2.007" transform="translate(-973.544 -230.069)" fill="#724940"/>
            </g>
          </g>
        </g>
        <g id="Grupo_54110" data-name="Grupo 54110" transform="translate(23.142 60.73)">
          <g id="Grupo_54109" data-name="Grupo 54109">
            <g id="Grupo_54108" data-name="Grupo 54108">
              <g id="Grupo_54107" data-name="Grupo 54107">
                <path id="Trazado_103557" data-name="Trazado 103557" d="M976.053,236.84a7.16,7.16,0,0,0,2.638-.326,3.773,3.773,0,0,0,2-1.812,3.976,3.976,0,0,0,.065-3.236,3.578,3.578,0,0,0-.431-.739c-.2-.206-.161-.2-.374-.164-.2.054-.527.207-.792.311l-.812.331c-1.059.427-2.018.8-2.828,1.1a8.973,8.973,0,0,1-2.693.812,8.99,8.99,0,0,1,2.448-1.385c.778-.377,1.711-.81,2.752-1.28l.8-.357a8.864,8.864,0,0,1,.9-.373,1.15,1.15,0,0,1,.734.022,1.341,1.341,0,0,1,.545.43,4.274,4.274,0,0,1,.557.939,4.64,4.64,0,0,1-.151,3.959,4.229,4.229,0,0,1-2.51,2.03,3.983,3.983,0,0,1-2.144.083C976.264,237.057,976.033,236.89,976.053,236.84Z" transform="translate(-972.818 -229.675)" fill="#1a2e35"/>
              </g>
            </g>
          </g>
        </g>
      </g>
      <g id="Grupo_54113" data-name="Grupo 54113" transform="translate(197.639 271.878)">
        <g id="Grupo_54112" data-name="Grupo 54112">
          <path id="Trazado_103558" data-name="Trazado 103558" d="M1017.857,381.916c.039.172.069.378.1.558C1017.892,381.866,1017.823,381.345,1017.857,381.916Z" transform="translate(-1017.848 -381.67)" fill="#1a2e35"/>
        </g>
      </g>
      <g id="Grupo_54124" data-name="Grupo 54124" transform="translate(212.218 279.916)">
        <g id="Grupo_54115" data-name="Grupo 54115">
          <g id="Grupo_54114" data-name="Grupo 54114">
            <path id="Trazado_103559" data-name="Trazado 103559" d="M1029.11,393.418l2.2,19.4,17.75,16.216s1.5-2.435.691-4.461,4.053,2.634,4.053,2.634v11.146s3.04,1.216,4.053-1.419,1.621-12.158,1.621-12.158l-1.419-1.014a5.178,5.178,0,0,0,1.419-4.458,15.851,15.851,0,0,0,1.014-8.106,24.31,24.31,0,0,0-1.824-7.093l-14.539-16.226Z" transform="translate(-1029.11 -387.879)" fill="#aa6550"/>
          </g>
        </g>
        <g id="Grupo_54117" data-name="Grupo 54117" transform="translate(8.906 24.209)">
          <g id="Grupo_54116" data-name="Grupo 54116">
            <path id="Trazado_103560" data-name="Trazado 103560" d="M1036,406.584c-.156.116,2,3.2,5.238,6.519s6.253,5.57,6.374,5.418c.139-.167-2.646-2.646-5.838-5.938S1036.169,406.449,1036,406.584Z" transform="translate(-1035.99 -406.579)" fill="#724940"/>
          </g>
        </g>
        <g id="Grupo_54119" data-name="Grupo 54119" transform="translate(21.372 27.751)">
          <g id="Grupo_54118" data-name="Grupo 54118">
            <path id="Trazado_103561" data-name="Trazado 103561" d="M1045.627,409.324c-.145.146,1.746,2.326,4.224,4.867s4.609,4.488,4.76,4.348-1.74-2.321-4.225-4.87S1045.77,409.176,1045.627,409.324Z" transform="translate(-1045.619 -409.316)" fill="#724940"/>
          </g>
        </g>
        <g id="Grupo_54121" data-name="Grupo 54121" transform="translate(23.769 23.302)">
          <g id="Grupo_54120" data-name="Grupo 54120">
            <path id="Trazado_103562" data-name="Trazado 103562" d="M1047.479,405.891c-.14.166,1.555,1.773,3.357,3.991s3.052,4.19,3.243,4.086c.175-.086-.8-2.284-2.664-4.558S1047.6,405.737,1047.479,405.891Z" transform="translate(-1047.471 -405.879)" fill="#724940"/>
          </g>
        </g>
        <g id="Grupo_54123" data-name="Grupo 54123" transform="translate(25.813 18.712)">
          <g id="Grupo_54122" data-name="Grupo 54122">
            <path id="Trazado_103563" data-name="Trazado 103563" d="M1049.06,402.347c-.14.161,1.151,1.493,2.634,3.214s2.622,3.183,2.8,3.068-.705-1.794-2.236-3.557S1049.188,402.194,1049.06,402.347Z" transform="translate(-1049.05 -402.333)" fill="#724940"/>
          </g>
        </g>
      </g>
      <g id="Grupo_54126" data-name="Grupo 54126" transform="translate(94.737 60.421)">
        <g id="Grupo_54125" data-name="Grupo 54125">
          <path id="Trazado_103564" data-name="Trazado 103564" d="M951,224.133c-.094.206-3-.923-6.488-2.52s-6.244-3.058-6.149-3.264,3,.923,6.488,2.522S951.092,223.929,951,224.133Z" transform="translate(-938.359 -218.325)" fill="#375a64"/>
        </g>
      </g>
      <g id="Grupo_54172" data-name="Grupo 54172">
        <g id="Grupo_54128" data-name="Grupo 54128" transform="translate(56.549 92.028)">
          <g id="Grupo_54127" data-name="Grupo 54127">
            <path id="Trazado_103565" data-name="Trazado 103565" d="M939.18,246.749c-1.462-.058-5.014,2.06-7.866,5.986-.048.06-.1.111-.146.172-2.03,2.638-3.937-4.893-4.28-7.7a2.939,2.939,0,0,0-3.972-2.278l-9.422,4.407-2.75.093a2.8,2.8,0,0,0-1.8,3.323l4.5,14.877.1,4.06,18.864,2.554.291-10.169c.282-1.175.655-2.563,1.159-4.145a12.888,12.888,0,0,1,2.077-3.97,24.294,24.294,0,0,1,3.39-3.721c.1-.065.214-.158.308-.208a1.746,1.746,0,0,0,.539-.466A1.64,1.64,0,0,0,939.18,246.749Z" transform="translate(-908.86 -242.741)" fill="#aa6550"/>
          </g>
        </g>
        <g id="Grupo_54130" data-name="Grupo 54130">
          <g id="Grupo_54129" data-name="Grupo 54129">
            <path id="Trazado_103566" data-name="Trazado 103566" d="M951.674,221.852s-11.01-2.109-26.827-16.478-23.61-33.827-25.492-33.678-10.219-3.437-24.9,31.052-8.3,42.222-5.183,42.069,24.093-6.645,37.344-5.519,30.426,7.529,30.426,7.529Z" transform="translate(-865.178 -171.652)" fill="#db6e5f"/>
          </g>
        </g>
        <g id="Grupo_54132" data-name="Grupo 54132" transform="translate(69.512 43.899)">
          <g id="Grupo_54131" data-name="Grupo 54131">
            <path id="Trazado_103567" data-name="Trazado 103567" d="M959.629,229.762l-3.532,7.2-1.582,3.227a9.268,9.268,0,0,1-11.958,4.444l-23.684-7.507,12.773-31.566,23.785,11.822A9.267,9.267,0,0,1,959.629,229.762Z" transform="translate(-918.874 -205.563)" fill="#1a2e35"/>
          </g>
        </g>
        <g id="Grupo_54134" data-name="Grupo 54134" transform="translate(55.201 75.113)">
          <g id="Grupo_54133" data-name="Grupo 54133">
            <path id="Trazado_103568" data-name="Trazado 103568" d="M949.686,234.407l-7.059,14.859-3.767-.932-23.843,20.546-7.2-13.159s14.246-6.623,16.768-11.841-.594-6.3-.594-6.3l6.569-7.906Z" transform="translate(-907.819 -229.675)" fill="#1a2e35"/>
          </g>
        </g>
        <g id="Grupo_54136" data-name="Grupo 54136" transform="translate(2.015 0.82)">
          <g id="Grupo_54135" data-name="Grupo 54135">
            <path id="Trazado_103569" data-name="Trazado 103569" d="M875.275,203.146c-7.807,18.679-10.808,35.213-6.7,36.928s13.76-12.038,21.566-30.717,10.807-35.212,6.7-36.927S883.081,184.467,875.275,203.146Z" transform="translate(-866.734 -172.285)" fill="#1a2e35"/>
          </g>
        </g>
        <g id="Grupo_54138" data-name="Grupo 54138" transform="translate(106.158 68.889)">
          <g id="Grupo_54137" data-name="Grupo 54137">
            <path id="Trazado_103570" data-name="Trazado 103570" d="M953.595,234.274l-6.413-1.816,3.721-7.591,4.851,2.828Z" transform="translate(-947.181 -224.867)" fill="#375a64"/>
          </g>
        </g>
        <g id="Grupo_54140" data-name="Grupo 54140" transform="translate(75.692 77.823)" opacity="0.3">
          <g id="Grupo_54139" data-name="Grupo 54139">
            <path id="Trazado_103571" data-name="Trazado 103571" d="M923.648,231.768l17.391,10.41,2.012-4.236Z" transform="translate(-923.648 -231.768)"/>
          </g>
        </g>
        <g id="Grupo_54142" data-name="Grupo 54142" transform="translate(91.535 64.854)">
          <g id="Grupo_54141" data-name="Grupo 54141">
            <path id="Trazado_103572" data-name="Trazado 103572" d="M949.9,227.635c-.088.208-3.295-.935-7.163-2.553s-6.938-3.1-6.849-3.308,3.294.935,7.164,2.553S949.986,227.426,949.9,227.635Z" transform="translate(-935.885 -221.75)" fill="#375a64"/>
          </g>
        </g>
        <g id="Grupo_54144" data-name="Grupo 54144" transform="translate(90.442 70.207)">
          <g id="Grupo_54143" data-name="Grupo 54143">
            <path id="Trazado_103573" data-name="Trazado 103573" d="M947.814,231.159c-.03.109-.79-.044-2.005-.382-.607-.168-1.327-.383-2.123-.634s-1.617-.65-2.5-1.02c-3.524-1.516-6.224-3.021-6.143-3.21.1-.224,2.971.958,6.461,2.458.876.368,1.689.775,2.455,1.071s1.456.551,2.031.788C947.141,230.7,947.844,231.05,947.814,231.159Z" transform="translate(-935.042 -225.885)" fill="#375a64"/>
          </g>
        </g>
        <g id="Grupo_54146" data-name="Grupo 54146" transform="translate(11.59 25.885)">
          <g id="Grupo_54145" data-name="Grupo 54145">
            <path id="Trazado_103574" data-name="Trazado 103574" d="M889.962,192.86s-9.678-5.627-14.516,7.369,5.228,14.825,5.228,14.825A85.719,85.719,0,0,0,889.962,192.86Z" transform="translate(-874.131 -191.648)" fill="#fafafa"/>
          </g>
        </g>
        <g id="Grupo_54148" data-name="Grupo 54148" transform="translate(11.444 11.498)">
          <g id="Grupo_54147" data-name="Grupo 54147">
            <path id="Trazado_103575" data-name="Trazado 103575" d="M899.675,180.534a14.366,14.366,0,0,1-.3,2.465c-.256,1.579-.618,3.871-1.147,6.685-.364,1.39-.76,2.908-1.186,4.534q-.322,1.223-.668,2.526-.173.651-.351,1.32c-.129.443-.3.879-.456,1.327-.634,1.786-1.3,3.662-1.991,5.6l-.524,1.469c-.171.5-.419.966-.628,1.456l-1.331,2.954-1.335,2.954c-.229.48-.418.977-.676,1.434s-.506.915-.755,1.367c-1,1.8-1.966,3.543-2.886,5.2-.236.41-.448.828-.694,1.219s-.509.765-.759,1.139l-1.454,2.175-2.619,3.893c-1.755,2.255-3.231,4.036-4.245,5.273a14.368,14.368,0,0,1-1.649,1.86,14.591,14.591,0,0,1,1.4-2.056c.979-1.315,2.352-3.161,4.039-5.431l2.515-3.919,1.406-2.179.737-1.137c.239-.391.447-.809.676-1.221l2.823-5.19.743-1.361c.255-.454.44-.949.667-1.428q.653-1.447,1.322-2.933t1.325-2.932c.209-.485.457-.951.628-1.443l.528-1.456c.7-1.925,1.377-3.781,2.022-5.551.157-.444.334-.875.469-1.313s.245-.878.365-1.307q.361-1.287.7-2.5c.457-1.609.884-3.109,1.275-4.484.584-2.76,1.058-5.006,1.4-6.607A14.559,14.559,0,0,1,899.675,180.534Z" transform="translate(-874.018 -180.534)" fill="#1a2e35"/>
          </g>
        </g>
        <g id="Grupo_54150" data-name="Grupo 54150" transform="translate(66.055 89.213)">
          <g id="Grupo_54149" data-name="Grupo 54149">
            <path id="Trazado_103576" data-name="Trazado 103576" d="M917.461,240.729a2.155,2.155,0,0,0-1.131,2.7c.725,2.052,1.9,5.27,2.773,7.22a5.414,5.414,0,0,0,1.076,1.737,1.811,1.811,0,0,0,1.832.5,1.965,1.965,0,0,0,1.1-1.735,5.757,5.757,0,0,0-.392-2.145c-.617-1.917-1.683-4.786-2.594-7.12a2,2,0,0,0-2.658-1.159Z" transform="translate(-916.204 -240.567)" fill="#aa6550"/>
          </g>
        </g>
        <g id="Grupo_54152" data-name="Grupo 54152" transform="translate(63.192 92.995)">
          <g id="Grupo_54151" data-name="Grupo 54151">
            <path id="Trazado_103577" data-name="Trazado 103577" d="M915.249,243.65a2.156,2.156,0,0,0-1.131,2.7c.725,2.051,1.9,5.269,2.773,7.218a5.445,5.445,0,0,0,1.075,1.739,1.811,1.811,0,0,0,1.833.5,1.961,1.961,0,0,0,1.1-1.735,5.752,5.752,0,0,0-.392-2.144c-.618-1.917-1.683-4.786-2.594-7.12a2,2,0,0,0-2.658-1.16Z" transform="translate(-913.991 -243.488)" fill="#aa6550"/>
          </g>
        </g>
        <g id="Grupo_54154" data-name="Grupo 54154" transform="translate(60.55 95.416)">
          <g id="Grupo_54153" data-name="Grupo 54153">
            <path id="Trazado_103578" data-name="Trazado 103578" d="M913.089,245.5a1.839,1.839,0,0,0-1.024,2.335c.656,1.776,1.715,4.563,2.509,6.251a4.655,4.655,0,0,0,.973,1.5,1.506,1.506,0,0,0,2.649-1.065,4.816,4.816,0,0,0-.355-1.856c-.559-1.66-1.524-4.144-2.348-6.166a1.836,1.836,0,0,0-2.4-1Z" transform="translate(-911.951 -245.359)" fill="#aa6550"/>
          </g>
        </g>
        <g id="Grupo_54156" data-name="Grupo 54156" transform="translate(56.911 96.224)">
          <g id="Grupo_54155" data-name="Grupo 54155">
            <path id="Trazado_103579" data-name="Trazado 103579" d="M910.283,246.123a1.846,1.846,0,0,0-1.029,2.346c.659,1.785,1.723,4.585,2.52,6.281a4.7,4.7,0,0,0,.977,1.512,1.515,1.515,0,0,0,2.663-1.071,4.859,4.859,0,0,0-.357-1.865c-.562-1.669-1.53-4.165-2.359-6.2a1.846,1.846,0,0,0-2.416-1.007Z" transform="translate(-909.14 -245.982)" fill="#aa6550"/>
          </g>
        </g>
        <g id="Grupo_54159" data-name="Grupo 54159" transform="translate(66.672 93.629)">
          <g id="Grupo_54158" data-name="Grupo 54158">
            <g id="Grupo_54157" data-name="Grupo 54157">
              <path id="Trazado_103580" data-name="Trazado 103580" d="M919.847,251.459c-.194.082-1.053-1.528-1.916-3.592s-1.406-3.806-1.212-3.886,1.052,1.526,1.916,3.592S920.041,251.378,919.847,251.459Z" transform="translate(-916.68 -243.978)" fill="#724940"/>
            </g>
          </g>
        </g>
        <g id="Grupo_54162" data-name="Grupo 54162" transform="translate(63.278 95.675)">
          <g id="Grupo_54161" data-name="Grupo 54161">
            <g id="Grupo_54160" data-name="Grupo 54160">
              <path id="Trazado_103581" data-name="Trazado 103581" d="M917.491,254.134c-.2.075-1.115-1.78-2.052-4.144s-1.539-4.348-1.345-4.43,1.113,1.774,2.052,4.145S917.688,254.059,917.491,254.134Z" transform="translate(-914.058 -245.558)" fill="#724940"/>
            </g>
          </g>
        </g>
        <g id="Grupo_54165" data-name="Grupo 54165" transform="translate(60.255 97.119)">
          <g id="Grupo_54164" data-name="Grupo 54164">
            <g id="Grupo_54163" data-name="Grupo 54163">
              <path id="Trazado_103582" data-name="Trazado 103582" d="M914.919,254.223c-.182.1-1.195-1.46-2.07-3.566s-1.274-3.92-1.076-3.981.914,1.618,1.779,3.687S915.109,254.123,914.919,254.223Z" transform="translate(-911.723 -246.674)" fill="#724940"/>
            </g>
          </g>
        </g>
        <g id="Grupo_54168" data-name="Grupo 54168" transform="translate(64.698 93.157)">
          <g id="Grupo_54167" data-name="Grupo 54167">
            <g id="Grupo_54166" data-name="Grupo 54166">
              <path id="Trazado_103583" data-name="Trazado 103583" d="M915.155,243.613" transform="translate(-915.155 -243.613)" fill="none" stroke="#44555b" stroke-miterlimit="10" stroke-width="0.05"/>
            </g>
          </g>
        </g>
        <g id="Grupo_54171" data-name="Grupo 54171" transform="translate(64.698 72.766)">
          <g id="Grupo_54170" data-name="Grupo 54170">
            <g id="Grupo_54169" data-name="Grupo 54169">
              <path id="Trazado_103584" data-name="Trazado 103584" d="M915.155,227.862" transform="translate(-915.155 -227.862)" fill="none" stroke="#44555b" stroke-miterlimit="10" stroke-width="0.05"/>
            </g>
          </g>
        </g>
      </g>
      <g id="Grupo_54187" data-name="Grupo 54187" transform="translate(70.828 223.146)">
        <g id="Grupo_54174" data-name="Grupo 54174">
          <g id="Grupo_54173" data-name="Grupo 54173">
            <path id="Trazado_103585" data-name="Trazado 103585" d="M1049.827,512.934l-9.944-79.772c6.475-15.119,8.822-30.217,6.932-39.6.111.981.163,2.2-.105-.558-1.61-16.612-15.955-28.824-15.955-28.824l-4.8-20.154-61.422,8.637L966.86,386.4,927.107,526.371,919.89,644.693l32.1,3.764s12.583-59.169,15.975-83.889a341.384,341.384,0,0,0,3.188-40.456l30.16-45.119c3.569,18.627,7.6,41.613,9.683,53.61a31.479,31.479,0,0,0,6.689,14.6l78.914,62.111.01-37.41C1089.086,553.985,1049.827,512.934,1049.827,512.934Z" transform="translate(-919.89 -344.026)" fill="#073360"/>
          </g>
        </g>
        <g id="Grupo_54177" data-name="Grupo 54177" transform="translate(48.67 9.718)">
          <g id="Grupo_54176" data-name="Grupo 54176">
            <g id="Grupo_54175" data-name="Grupo 54175">
              <path id="Trazado_103586" data-name="Trazado 103586" d="M961.346,375.486a13.938,13.938,0,0,1-1.283-3.342,60.041,60.041,0,0,1-2.577-17.038,13.938,13.938,0,0,1,.236-3.573,20.681,20.681,0,0,1,.3,3.555c.136,2.19.392,5.209.889,8.517s1.151,6.263,1.67,8.4A20.781,20.781,0,0,1,961.346,375.486Z" transform="translate(-957.486 -351.533)" fill="#375a64"/>
            </g>
          </g>
        </g>
        <g id="Grupo_54180" data-name="Grupo 54180" transform="translate(52.872 10.301)">
          <g id="Grupo_54179" data-name="Grupo 54179">
            <g id="Grupo_54178" data-name="Grupo 54178">
              <path id="Trazado_103587" data-name="Trazado 103587" d="M963.233,352.4c-.018-.036.236-.232.792-.355a3.822,3.822,0,0,1,4.441,3.21,4.147,4.147,0,0,1-1.961,3.871,3.818,3.818,0,0,1-4.3-.393,3.714,3.714,0,0,1-1.453-3.233,5.793,5.793,0,0,1,.687-2.255c.26-.485.451-.722.495-.7s-.052.311-.221.817a6.933,6.933,0,0,0-.421,2.157,3.205,3.205,0,0,0,1.341,2.656,3.154,3.154,0,0,0,3.484.3,3.515,3.515,0,0,0,1.653-3.152,3.154,3.154,0,0,0-1.641-2.458A4.631,4.631,0,0,0,963.233,352.4Z" transform="translate(-960.732 -351.983)" fill="#375a64"/>
            </g>
          </g>
        </g>
        <g id="Grupo_54183" data-name="Grupo 54183" transform="translate(69.318 18.606)">
          <g id="Grupo_54182" data-name="Grupo 54182">
            <g id="Grupo_54181" data-name="Grupo 54181">
              <path id="Trazado_103588" data-name="Trazado 103588" d="M999.862,366.786a3.445,3.445,0,0,1-1.08.447,16.824,16.824,0,0,1-3.1.7,22.829,22.829,0,0,1-4.729.166,24.414,24.414,0,0,1-10.983-3.485,22.657,22.657,0,0,1-3.769-2.862,16.873,16.873,0,0,1-2.132-2.363c-.444-.608-.667-.955-.624-.988.111-.089,1.113,1.232,3.115,2.948a25.794,25.794,0,0,0,3.767,2.66A26.01,26.01,0,0,0,991,367.4a25.76,25.76,0,0,0,4.612,0C998.241,367.151,999.821,366.648,999.862,366.786Z" transform="translate(-973.436 -358.399)" fill="#375a64"/>
            </g>
          </g>
        </g>
        <g id="Grupo_54186" data-name="Grupo 54186" transform="translate(51.257 87.195)">
          <g id="Grupo_54185" data-name="Grupo 54185">
            <g id="Grupo_54184" data-name="Grupo 54184">
              <path id="Trazado_103589" data-name="Trazado 103589" d="M1023.723,411.382a6.42,6.42,0,0,1-.668.939l-2.026,2.589c-1.7,2.294-4.166,5.612-7.124,9.778-5.93,8.32-13.936,19.949-22.7,32.849L968.846,490.63c-2.834,4.181-5.142,7.589-6.791,10.021l-1.873,2.707a6.635,6.635,0,0,1-.7.915,6.432,6.432,0,0,1,.567-1q.66-1.047,1.754-2.786l6.589-10.154c5.605-8.549,13.414-20.317,22.182-33.224s16.842-24.489,22.889-32.737c3.016-4.128,5.551-7.4,7.328-9.644l2.142-2.506A6.572,6.572,0,0,1,1023.723,411.382Z" transform="translate(-959.485 -411.381)" fill="#375a64"/>
            </g>
          </g>
        </g>
      </g>
      <g id="Grupo_54211" data-name="Grupo 54211" transform="translate(55.925 107.512)">
        <g id="Grupo_54189" data-name="Grupo 54189" transform="translate(119.428 3.579)">
          <g id="Grupo_54188" data-name="Grupo 54188">
            <path id="Trazado_103590" data-name="Trazado 103590" d="M1000.775,277.966c.123,0,.117-1.539.531-3.963a27.54,27.54,0,0,1,3.217-8.954c1.808-3.274,4.294-5.709,6.53-6.647a9.061,9.061,0,0,1,3.834-.611,2.191,2.191,0,0,0-1.057-.289,6.534,6.534,0,0,0-2.975.41c-2.435.863-5.133,3.411-6.98,6.765a24.643,24.643,0,0,0-3.091,9.25A11.824,11.824,0,0,0,1000.775,277.966Z" transform="translate(-1000.633 -257.467)" fill="#1a2e35"/>
          </g>
        </g>
        <path id="Trazado_103591" data-name="Trazado 103591" d="M1031.936,258.3c-4.489-1.649-14.866-4.654-21.689-3.226l-32.177,4.988-5.734,4.963s-20.253,39.437-20.625,47.395c-.412,8.8,4.311,23.9,4.311,23.9l-4.633,34.841c-.685,4,1.915,7.841,3.661,7.841l55.586-7.454c7.25-1.424,10.223-5.212,9.776-9.406l-.828-7.765,23.742-79.511C1044.732,279.57,1042.536,262.2,1031.936,258.3Z" transform="translate(-895.742 -254.702)" fill="#db6e5f"/>
        <g id="Grupo_54191" data-name="Grupo 54191" transform="translate(0 7.983)">
          <g id="Grupo_54190" data-name="Grupo 54190">
            <path id="Trazado_103592" data-name="Trazado 103592" d="M987.938,260.869s-9.9,7.633-19.28,16.314-34.381,26.045-34.381,26.045l-1.722-36.322-18.864-2.554s-9.221,45.294-3.37,57.8,12.843,13.031,32.291,6.78,25-9.029,25-9.029Z" transform="translate(-908.378 -260.869)" fill="#db6e5f"/>
          </g>
        </g>
        <g id="Grupo_54193" data-name="Grupo 54193" transform="translate(55.584 13.374)">
          <g id="Grupo_54192" data-name="Grupo 54192">
            <path id="Trazado_103593" data-name="Trazado 103593" d="M970.319,265.034a2.584,2.584,0,0,0-.447.563c-.312.458-.693,1.016-1.155,1.692-.986,1.481-2.395,3.636-4.07,6.343-3.31,5.411-7.841,13.071-10.8,22.4s-3.068,18.455-1.665,24.7a33.751,33.751,0,0,0,2.33,7.191c.343.825.717,1.415.928,1.833a2.615,2.615,0,0,0,.381.608c.06-.031-.375-.917-1.042-2.555a37.948,37.948,0,0,1-2.079-7.18c-1.25-6.183-1.055-15.149,1.859-24.371s7.348-16.876,10.538-22.348c1.586-2.652,2.892-4.835,3.863-6.46L970,265.678A2.609,2.609,0,0,0,970.319,265.034Z" transform="translate(-951.315 -265.033)" fill="#1a2e35"/>
          </g>
        </g>
        <g id="Grupo_54195" data-name="Grupo 54195" transform="translate(119.568 3.6)">
          <g id="Grupo_54194" data-name="Grupo 54194">
            <path id="Trazado_103594" data-name="Trazado 103594" d="M1011.319,257.489s-10.018,13.122-10.566,25.16,17.976,84.213,17.976,84.213l16.244,65.885,20.22-7.459s-4.706-46.908-5.6-52.732c-1.864-12.135-9.865-35.789-10.959-49.467s-6.163-40.018-8.669-46.182S1027.363,257.146,1011.319,257.489Z" transform="translate(-1000.741 -257.483)" fill="#db6e5f"/>
          </g>
        </g>
        <g id="Grupo_54197" data-name="Grupo 54197" transform="translate(120.396 35.416)">
          <g id="Grupo_54196" data-name="Grupo 54196">
            <path id="Trazado_103595" data-name="Trazado 103595" d="M1001.394,282.06a2.513,2.513,0,0,0,.031.707c.063.545.141,1.209.234,2.009.238,1.74.633,4.251,1.188,7.341,1.1,6.181,2.87,14.671,4.978,24.012s4.173,17.765,5.746,23.84c.786,3.038,1.449,5.49,1.928,7.178.23.773.421,1.412.576,1.938a2.476,2.476,0,0,0,.251.663,2.605,2.605,0,0,0-.1-.7l-.44-1.973-1.7-7.233c-1.44-6.215-3.383-14.605-5.532-23.878-2.1-9.335-3.951-17.8-5.187-23.948-.583-2.99-1.061-5.453-1.419-7.287-.149-.792-.272-1.446-.373-1.986A2.511,2.511,0,0,0,1001.394,282.06Z" transform="translate(-1001.38 -282.06)" fill="#1a2e35"/>
          </g>
        </g>
        <g id="Grupo_54199" data-name="Grupo 54199" transform="translate(108.912 30.765)" opacity="0.3">
          <g id="Grupo_54198" data-name="Grupo 54198">
            <path id="Trazado_103596" data-name="Trazado 103596" d="M1002.561,363.456c-3.188-3.2-3.858-8.056-4.357-12.545q-2.387-21.426-4.772-42.852c-.993-8.906-1.93-18.245,1.431-26.554.5-1.248,1.247-2.584,2.541-2.949a3.3,3.3,0,0,1,3.344,1.384c.774,1.021,2.942,2.493,3.259,3.735,3.243,12.734,4.651,25.275,7.9,38.009.857,3.365,1.974,3.236,1.231,6.629-1.077,4.926-5.693,19.067-5.693,19.067s.659,5.134.855,8.136a7.782,7.782,0,0,1-5.735,7.939" transform="translate(-992.509 -278.467)" fill="#6e3730"/>
          </g>
        </g>
        <g id="Grupo_54201" data-name="Grupo 54201" transform="translate(121.948 38.611)">
          <g id="Grupo_54200" data-name="Grupo 54200">
            <path id="Trazado_103597" data-name="Trazado 103597" d="M1002.58,288.434a4.618,4.618,0,0,0,1.1.8,25.186,25.186,0,0,0,3.266,1.749,11.66,11.66,0,0,0,5.438,1.1,13.229,13.229,0,0,0,6.312-2.484,46.241,46.241,0,0,1,5.605-3.526,8.234,8.234,0,0,1,5.107-.834,5.773,5.773,0,0,1,3.12,1.566c.584.61.778,1.062.84,1.032a2.452,2.452,0,0,0-.623-1.225,5.7,5.7,0,0,0-3.23-1.891,8.548,8.548,0,0,0-5.5.725,41.465,41.465,0,0,0-5.728,3.526,13,13,0,0,1-5.956,2.425,11.66,11.66,0,0,1-5.186-.9C1004.3,289.336,1002.645,288.308,1002.58,288.434Z" transform="translate(-1002.579 -284.528)" fill="#fafafa"/>
          </g>
        </g>
        <g id="Grupo_54203" data-name="Grupo 54203" transform="translate(59.247 39.691)">
          <g id="Grupo_54202" data-name="Grupo 54202">
            <path id="Trazado_103598" data-name="Trazado 103598" d="M954.147,286.655c-.022.014.078.2.29.54a8.021,8.021,0,0,0,1.093,1.38,12.194,12.194,0,0,0,5.6,3.169,20.013,20.013,0,0,0,9.555.132A95.967,95.967,0,0,0,981.8,288.3a36.8,36.8,0,0,1,20.629-1.387,54.355,54.355,0,0,1,8.26,2.752c.013-.022-.164-.136-.511-.334s-.862-.488-1.556-.8a32.207,32.207,0,0,0-6.073-2.133,35.361,35.361,0,0,0-9.5-1.02,36.769,36.769,0,0,0-11.488,2.215,104.641,104.641,0,0,1-11.013,3.612,19.967,19.967,0,0,1-9.273.03,12.515,12.515,0,0,1-5.538-2.866C954.645,287.344,954.215,286.609,954.147,286.655Z" transform="translate(-954.144 -285.362)" fill="#fafafa"/>
          </g>
        </g>
        <g id="Grupo_54205" data-name="Grupo 54205" transform="translate(47.231 34.599)">
          <g id="Grupo_54204" data-name="Grupo 54204">
            <path id="Trazado_103599" data-name="Trazado 103599" d="M945.061,281.429a7.717,7.717,0,0,0-.153,3.014,18.459,18.459,0,0,0,6.664,12.644,7.7,7.7,0,0,0,2.572,1.576,28.573,28.573,0,0,0-2.225-1.974,21,21,0,0,1-6.487-12.306A27.4,27.4,0,0,0,945.061,281.429Z" transform="translate(-944.863 -281.429)" fill="#fafafa"/>
          </g>
        </g>
        <g id="Grupo_54207" data-name="Grupo 54207" transform="translate(34.235 23.023)" opacity="0.3">
          <g id="Grupo_54206" data-name="Grupo 54206">
            <path id="Trazado_103600" data-name="Trazado 103600" d="M968.687,272.487c-15.2,15.256-28.264,32.221-33.863,53.017,8.68-2.844,16.889-5.6,22.313-7.859,0,0-1.63-8.57-.643-13.617,1.205-6.169,1.2-11.344,12.193-31.54" transform="translate(-934.824 -272.487)" fill="#6e3730"/>
          </g>
        </g>
        <g id="Grupo_54210" data-name="Grupo 54210" transform="translate(21.247 50.413)">
          <g id="Grupo_54209" data-name="Grupo 54209">
            <g id="Grupo_54208" data-name="Grupo 54208">
              <path id="Trazado_103601" data-name="Trazado 103601" d="M929.724,293.657c.161.168-1.719,1.921-3.036,4.716-1.355,2.777-1.547,5.34-1.779,5.319-.189.027-.341-2.7,1.091-5.649C927.4,295.081,929.626,293.492,929.724,293.657Z" transform="translate(-924.791 -293.645)" fill="#1a2e35"/>
            </g>
          </g>
        </g>
      </g>
    </g>
    <g id="Grupo_54253" data-name="Grupo 54253" transform="translate(1105.458 253.424)">
      <g id="Grupo_54252" data-name="Grupo 54252" transform="translate(0 0)">
        <g id="Grupo_54219" data-name="Grupo 54219" transform="translate(3.31)">
          <g id="Grupo_54218" data-name="Grupo 54218" transform="translate(0)">
            <g id="Grupo_54214" data-name="Grupo 54214" transform="translate(0)">
              <g id="Grupo_54213" data-name="Grupo 54213">
                <circle id="Elipse_4096" data-name="Elipse 4096" cx="40.957" cy="40.957" r="40.957" transform="translate(0 9.955) rotate(-6.98)" fill="#fff"/>
              </g>
            </g>
            <g id="Grupo_54217" data-name="Grupo 54217" transform="translate(4.43 4.513)">
              <g id="Grupo_54216" data-name="Grupo 54216">
                <g id="Grupo_54215" data-name="Grupo 54215">
                  <path id="Trazado_103602" data-name="Trazado 103602" d="M1133.63,279.424s-.078-.9-.18-2.607a20.028,20.028,0,0,0-.343-3.143,29.659,29.659,0,0,0-.849-4.227,39.023,39.023,0,0,0-4.533-10.869,40.714,40.714,0,0,0-48.926-17.41,38.237,38.237,0,0,0-10.306,5.542,37.219,37.219,0,0,0-8.61,8.646,40.519,40.519,0,0,0,0,48.133,37.289,37.289,0,0,0,8.611,8.649,38.251,38.251,0,0,0,10.307,5.543,40.809,40.809,0,0,0,48.927-17.413,39.028,39.028,0,0,0,4.532-10.868,29.694,29.694,0,0,0,.849-4.227,20.028,20.028,0,0,0,.343-3.143c.1-1.708.18-2.606.18-2.606s-.012.9-.083,2.612a19.335,19.335,0,0,1-.3,3.156,29.206,29.206,0,0,1-.809,4.254,38.9,38.9,0,0,1-4.482,10.961,41,41,0,0,1-49.316,17.7,38.674,38.674,0,0,1-10.43-5.591,37.679,37.679,0,0,1-8.719-8.74,40.954,40.954,0,0,1,0-48.7,37.635,37.635,0,0,1,8.718-8.737,38.632,38.632,0,0,1,10.429-5.59,41.238,41.238,0,0,1,21.624-1.751,41.145,41.145,0,0,1,27.69,19.444,38.851,38.851,0,0,1,4.483,10.962,29.34,29.34,0,0,1,.809,4.254,19.335,19.335,0,0,1,.3,3.156C1133.619,278.524,1133.63,279.424,1133.63,279.424Z" transform="translate(-1051.472 -238.305)" fill="#1a2e35"/>
                </g>
              </g>
            </g>
          </g>
        </g>
        <g id="Grupo_54226" data-name="Grupo 54226" transform="translate(21.692 18.824)">
          <g id="Grupo_54225" data-name="Grupo 54225">
            <g id="Grupo_54221" data-name="Grupo 54221" transform="translate(0.495 0.054)">
              <g id="Grupo_54220" data-name="Grupo 54220">
                <path id="Trazado_103603" data-name="Trazado 103603" d="M1089.386,249.4a26.754,26.754,0,1,0,26.755,26.754A26.784,26.784,0,0,0,1089.386,249.4Z" transform="translate(-1062.632 -249.401)" fill="none"/>
              </g>
            </g>
            <g id="Grupo_54224" data-name="Grupo 54224">
              <g id="Grupo_54223" data-name="Grupo 54223">
                <g id="Grupo_54222" data-name="Grupo 54222">
                  <path id="Trazado_103604" data-name="Trazado 103604" d="M1089.5,249.413a20.865,20.865,0,0,1,6.588.61,27.019,27.019,0,0,1,20.187,21.115,27.19,27.19,0,0,1-1.125,14.331,27.335,27.335,0,0,1-9.49,12.715,27.1,27.1,0,0,1-32.318,0,27.344,27.344,0,0,1-9.493-12.718,27.19,27.19,0,0,1-1.123-14.332,27.015,27.015,0,0,1,20.187-21.115,20.884,20.884,0,0,1,6.588-.608,52.887,52.887,0,0,0-6.471,1.069,26.716,26.716,0,0,0-14.443,9.765,26.186,26.186,0,0,0-3.682,24.839,26.317,26.317,0,0,0,9.145,12.139,26.007,26.007,0,0,0,30.9,0,26.321,26.321,0,0,0,9.142-12.138,26.181,26.181,0,0,0-3.68-24.837,26.712,26.712,0,0,0-14.442-9.766A52.98,52.98,0,0,0,1089.5,249.413Z" transform="translate(-1062.249 -249.36)" fill="#ff735d"/>
                </g>
              </g>
            </g>
          </g>
        </g>
        <g id="Grupo_54233" data-name="Grupo 54233" transform="translate(39.928 37.037)">
          <g id="Grupo_54232" data-name="Grupo 54232">
            <g id="Grupo_54228" data-name="Grupo 54228" transform="translate(0.521 0.101)">
              <g id="Grupo_54227" data-name="Grupo 54227">
                <path id="Trazado_103605" data-name="Trazado 103605" d="M1085.231,263.507a8.493,8.493,0,1,0,8.492,8.494A8.5,8.5,0,0,0,1085.231,263.507Z" transform="translate(-1076.738 -263.507)" fill="none"/>
              </g>
            </g>
            <g id="Grupo_54231" data-name="Grupo 54231">
              <g id="Grupo_54230" data-name="Grupo 54230">
                <g id="Grupo_54229" data-name="Grupo 54229">
                  <path id="Trazado_103606" data-name="Trazado 103606" d="M1085.35,263.53a4.16,4.16,0,0,1,2.131.038,8.466,8.466,0,0,1,4.959,3.059,8.872,8.872,0,0,1,1.412,8.481,9.015,9.015,0,0,1-17.005,0,8.871,8.871,0,0,1,1.412-8.482,8.463,8.463,0,0,1,4.959-3.058,4.16,4.16,0,0,1,2.131-.038c0,.111-.756.119-2.016.5a8.5,8.5,0,0,0-4.39,3.121,7.969,7.969,0,1,0,12.811,0,8.494,8.494,0,0,0-4.391-3.121C1086.1,263.649,1085.346,263.641,1085.35,263.53Z" transform="translate(-1076.336 -263.429)" fill="#ff735d"/>
                </g>
              </g>
            </g>
          </g>
        </g>
        <g id="Grupo_54239" data-name="Grupo 54239" transform="translate(5.299 45.631)">
          <g id="Grupo_54235" data-name="Grupo 54235" transform="translate(0.003 0)">
            <g id="Grupo_54234" data-name="Grupo 54234">
              <path id="Trazado_103607" data-name="Trazado 103607" d="M1049.589,299.582c14.15-9.867,29.49-19.647,43.639-29.514" transform="translate(-1049.589 -270.068)" fill="#f5f5f5"/>
            </g>
          </g>
          <g id="Grupo_54238" data-name="Grupo 54238">
            <g id="Grupo_54237" data-name="Grupo 54237">
              <g id="Grupo_54236" data-name="Grupo 54236">
                <path id="Trazado_103608" data-name="Trazado 103608" d="M1093.225,270.069c.076.113-9.633,6.811-21.681,14.958s-21.882,14.669-21.957,14.557,9.631-6.808,21.684-14.96S1093.15,269.958,1093.225,270.069Z" transform="translate(-1049.587 -270.068)" fill="#1a2e35"/>
              </g>
            </g>
          </g>
        </g>
        <g id="Grupo_54242" data-name="Grupo 54242" transform="translate(0 71.804)">
          <g id="Grupo_54241" data-name="Grupo 54241">
            <g id="Grupo_54240" data-name="Grupo 54240">
              <path id="Trazado_103609" data-name="Trazado 103609" d="M1055.6,290.774a52.6,52.6,0,0,1-10.1-.368,52.59,52.59,0,0,1,10.1.368Z" transform="translate(-1045.493 -290.285)" fill="#1a2e35"/>
            </g>
          </g>
        </g>
        <g id="Grupo_54245" data-name="Grupo 54245" transform="translate(8.349 72.112)">
          <g id="Grupo_54244" data-name="Grupo 54244">
            <g id="Grupo_54243" data-name="Grupo 54243">
              <path id="Trazado_103610" data-name="Trazado 103610" d="M1051.981,297.349a25.083,25.083,0,0,1,1.472-6.825,25.164,25.164,0,0,1-1.472,6.825Z" transform="translate(-1051.943 -290.524)" fill="#1a2e35"/>
            </g>
          </g>
        </g>
        <g id="Grupo_54248" data-name="Grupo 54248" transform="translate(10.818 71.015)">
          <g id="Grupo_54247" data-name="Grupo 54247">
            <g id="Grupo_54246" data-name="Grupo 54246">
              <path id="Trazado_103611" data-name="Trazado 103611" d="M1053.893,296.819a27.262,27.262,0,0,1,1.285-7.143,27.129,27.129,0,0,1-1.285,7.143Z" transform="translate(-1053.85 -289.676)" fill="#1a2e35"/>
            </g>
          </g>
        </g>
        <g id="Grupo_54251" data-name="Grupo 54251" transform="translate(5.051 69.345)">
          <g id="Grupo_54250" data-name="Grupo 54250">
            <g id="Grupo_54249" data-name="Grupo 54249">
              <path id="Trazado_103612" data-name="Trazado 103612" d="M1049.4,288.42a26.007,26.007,0,0,1,6.919,1.632,26,26,0,0,1-6.919-1.632Z" transform="translate(-1049.395 -288.386)" fill="#1a2e35"/>
            </g>
          </g>
        </g>
      </g>
    </g>
    <g id="Grupo_54268" data-name="Grupo 54268" transform="translate(1134.176 450.742)">
      <g id="Grupo_54257" data-name="Grupo 54257" transform="translate(8.666 16.154)">
        <g id="Grupo_54256" data-name="Grupo 54256">
          <g id="Grupo_54255" data-name="Grupo 54255">
            <g id="Grupo_54254" data-name="Grupo 54254">
              <path id="Trazado_103613" data-name="Trazado 103613" d="M1098.14,404.421a1.174,1.174,0,0,1,.125.364,5.742,5.742,0,0,1,.146,1.107,8.429,8.429,0,0,1-1,4.084,21.316,21.316,0,0,1-4.056,5.079l-5.763,6.023-.183.19-.211-.17-6.183-4.966c-2.137-1.736-4.649-3.586-5.946-6.491a6.765,6.765,0,0,1-.134-5.68,6.59,6.59,0,0,1,4.152-3.5,5.985,5.985,0,0,1,5.015.924,6.365,6.365,0,0,1,2.629,3.919l-.545.03a6.422,6.422,0,0,1,4.2-5.283,5.844,5.844,0,0,1,5.179.684,6.056,6.056,0,0,1,2.234,2.544,4.209,4.209,0,0,1,.3.843.893.893,0,0,1,.048.3c-.043.012-.134-.4-.491-1.072a6.2,6.2,0,0,0-2.255-2.348,5.528,5.528,0,0,0-4.857-.532,5.962,5.962,0,0,0-3.8,4.91l-.172,1.851-.371-1.821a5.817,5.817,0,0,0-2.428-3.534,5.378,5.378,0,0,0-4.508-.807,5.971,5.971,0,0,0-3.73,3.17,6.136,6.136,0,0,0,.148,5.137c1.193,2.694,3.6,4.51,5.745,6.258l6.151,5.006-.394.022,5.836-5.951a21.815,21.815,0,0,0,4.089-4.9,8.683,8.683,0,0,0,1.126-3.92C1098.242,404.936,1098.095,404.43,1098.14,404.421Z" transform="translate(-1074.371 -399.719)" fill="#ff735d"/>
            </g>
          </g>
        </g>
      </g>
      <g id="Grupo_54262" data-name="Grupo 54262">
        <g id="Grupo_54261" data-name="Grupo 54261">
          <g id="Grupo_54260" data-name="Grupo 54260">
            <g id="Grupo_54259" data-name="Grupo 54259">
              <g id="Grupo_54258" data-name="Grupo 54258">
                <path id="Trazado_103614" data-name="Trazado 103614" d="M1067.678,391.614s.031.276.065.791q.051.806.14,2.271c.115,2.01.282,4.927.5,8.667.406,7.508.992,18.317,1.714,31.631l-.255-.23,27.846-1.442.292-.016.016.291c.214,4.18.443,8.645.677,13.235l-.533-.19,12.561-13.909.089-.1.133-.007,30.526-1.538,9.365-.467-.312.346c-.758-15.331-1.481-29.935-2.146-43.374l.318.287c-23.768,1.13-43.972,2.089-58.262,2.768-7.139.324-12.8.579-16.706.755-1.928.082-3.42.144-4.46.186l-1.157.04a3.765,3.765,0,0,1-.4,0,2.7,2.7,0,0,1,.368-.036l1.121-.074,4.4-.258,16.63-.914,58.446-3.076.3-.016.016.3c.681,13.437,1.42,28.04,2.2,43.37l.017.329-.329.017-9.366.47-30.525,1.52.223-.1c-4.346,4.795-8.569,9.455-12.584,13.888l-.5.549-.036-.74c-.224-4.59-.443-9.057-.647-13.235l.307.277-27.851,1.345-.245.012-.01-.242c-.615-13.382-1.115-24.246-1.462-31.793-.161-3.719-.285-6.619-.37-8.619q-.056-1.439-.085-2.229C1067.673,391.857,1067.678,391.614,1067.678,391.614Z" transform="translate(-1067.677 -387.241)" fill="#ff735d"/>
              </g>
            </g>
          </g>
        </g>
      </g>
      <g id="Grupo_54267" data-name="Grupo 54267" transform="translate(38.053 16.563)">
        <g id="Grupo_54263" data-name="Grupo 54263" transform="translate(0 4.093)">
          <path id="Trazado_103615" data-name="Trazado 103615" d="M1104.749,407.141l-3.414.171.166,3.324-.809.04-.165-3.324-3.415.171-.039-.772,3.415-.172-.168-3.342.809-.04.168,3.343,3.415-.171Z" transform="translate(-1097.072 -403.197)" fill="#1a2e35"/>
        </g>
        <g id="Grupo_54264" data-name="Grupo 54264" transform="translate(8.516 1.094)">
          <path id="Trazado_103616" data-name="Trazado 103616" d="M1107.64,400.88l.631,12.582-.917.045-.588-11.754-3.073.154-.042-.827Z" transform="translate(-1103.65 -400.88)" fill="#1a2e35"/>
        </g>
        <g id="Grupo_54265" data-name="Grupo 54265" transform="translate(15.992 0.592)">
          <path id="Trazado_103617" data-name="Trazado 103617" d="M1109.439,407.125c-.2-3.935,1.711-6.482,4.6-6.627s5.047,2.2,5.244,6.135-1.711,6.481-4.606,6.627S1109.636,411.062,1109.439,407.125Zm8.932-.447c-.176-3.506-1.913-5.454-4.286-5.335s-3.9,2.23-3.729,5.736,1.912,5.453,4.285,5.333S1118.547,410.183,1118.372,406.679Z" transform="translate(-1109.425 -400.492)" fill="#1a2e35"/>
        </g>
        <g id="Grupo_54266" data-name="Grupo 54266" transform="translate(27.823)">
          <path id="Trazado_103618" data-name="Trazado 103618" d="M1118.578,406.668c-.2-3.935,1.711-6.482,4.606-6.627s5.046,2.2,5.244,6.134-1.713,6.482-4.606,6.627S1118.776,410.6,1118.578,406.668Zm8.934-.448c-.176-3.506-1.913-5.454-4.286-5.335s-3.906,2.231-3.731,5.736,1.913,5.453,4.286,5.335S1127.686,409.725,1127.512,406.22Z" transform="translate(-1118.564 -400.035)" fill="#1a2e35"/>
        </g>
      </g>
    </g>
    <g id="Grupo_54287" data-name="Grupo 54287" transform="translate(1147.877 359.214)">
      <g id="Grupo_54283" data-name="Grupo 54283" transform="translate(0 4.895)">
        <g id="Grupo_54270" data-name="Grupo 54270" transform="translate(68.87 3.72)">
          <g id="Grupo_54269" data-name="Grupo 54269">
            <rect id="Rectángulo_5162" data-name="Rectángulo 5162" width="12.338" height="49.116" fill="#ff735d"/>
          </g>
        </g>
        <g id="Grupo_54272" data-name="Grupo 54272" transform="translate(48.586)">
          <g id="Grupo_54271" data-name="Grupo 54271">
            <rect id="Rectángulo_5163" data-name="Rectángulo 5163" width="12.338" height="52.837" fill="#ff735d"/>
          </g>
        </g>
        <g id="Grupo_54274" data-name="Grupo 54274" transform="translate(28.917 6.543)">
          <g id="Grupo_54273" data-name="Grupo 54273">
            <rect id="Rectángulo_5164" data-name="Rectángulo 5164" width="12.338" height="46.294" fill="#ff735d"/>
          </g>
        </g>
        <g id="Grupo_54276" data-name="Grupo 54276" transform="translate(8.948 13.771)">
          <g id="Grupo_54275" data-name="Grupo 54275">
            <rect id="Rectángulo_5165" data-name="Rectángulo 5165" width="12.338" height="39.065" fill="#ff735d"/>
          </g>
        </g>
        <g id="Grupo_54279" data-name="Grupo 54279" transform="translate(0 52.541)">
          <g id="Grupo_54278" data-name="Grupo 54278">
            <g id="Grupo_54277" data-name="Grupo 54277">
              <path id="Trazado_103619" data-name="Trazado 103619" d="M1168.825,361.379c0,.261-20.276.474-45.281.474s-45.283-.212-45.283-.474,20.27-.474,45.283-.474S1168.825,361.117,1168.825,361.379Z" transform="translate(-1078.261 -360.905)" fill="#1a2e35"/>
            </g>
          </g>
        </g>
        <g id="Grupo_54282" data-name="Grupo 54282" transform="translate(6.4 6.379)">
          <g id="Grupo_54281" data-name="Grupo 54281">
            <g id="Grupo_54280" data-name="Grupo 54280">
              <path id="Trazado_103620" data-name="Trazado 103620" d="M1162.219,325.625c-.01.1-1.416-.146-3.947-.009a23.416,23.416,0,0,0-10.14,3.053,21.807,21.807,0,0,0-5.644,4.644c-1.758,1.985-3.33,4.378-5.208,6.773a19.638,19.638,0,0,1-7.318,6.187,26.458,26.458,0,0,1-10.088,1.983c-3.51.124-6.909-.048-10.162.1a46.717,46.717,0,0,0-9.274,1.262c-5.8,1.421-10.516,4.457-13.18,8.095a17.359,17.359,0,0,0-3.682,9.8,26.718,26.718,0,0,0,.373,3.91,10.418,10.418,0,0,1-.742-3.912,17.246,17.246,0,0,1,3.513-10.2,20.324,20.324,0,0,1,5.528-5.148,28.108,28.108,0,0,1,7.971-3.39,46.774,46.774,0,0,1,9.451-1.344c3.31-.162,6.716,0,10.169-.119a25.8,25.8,0,0,0,9.739-1.882,18.911,18.911,0,0,0,7.019-5.884c1.864-2.337,3.475-4.735,5.3-6.752a22.14,22.14,0,0,1,5.9-4.7,22.77,22.77,0,0,1,10.453-2.838,20,20,0,0,1,2.953.168A4.205,4.205,0,0,1,1162.219,325.625Z" transform="translate(-1083.205 -325.246)" fill="#1a2e35"/>
            </g>
          </g>
        </g>
      </g>
      <g id="Grupo_54286" data-name="Grupo 54286" transform="translate(1.157 0)">
        <g id="Grupo_54285" data-name="Grupo 54285">
          <g id="Grupo_54284" data-name="Grupo 54284">
            <path id="Trazado_103621" data-name="Trazado 103621" d="M1079.629,316.538c.262,0,.474,13.177.474,29.428s-.212,29.43-.474,29.43-.474-13.175-.474-29.43S1079.367,316.538,1079.629,316.538Z" transform="translate(-1079.155 -316.538)" fill="#1a2e35"/>
          </g>
        </g>
      </g>
    </g>
    <g id="Grupo_54300" data-name="Grupo 54300" transform="translate(1154.865 537.747)">
      <g id="Grupo_54289" data-name="Grupo 54289" transform="translate(0 7.865)">
        <g id="Grupo_54288" data-name="Grupo 54288">
          <path id="Trazado_103622" data-name="Trazado 103622" d="M1101.689,473.261a9.335,9.335,0,1,1-5.3-12.092A9.336,9.336,0,0,1,1101.689,473.261Z" transform="translate(-1083.659 -460.526)" fill="#ff735d"/>
        </g>
      </g>
      <g id="Grupo_54291" data-name="Grupo 54291" transform="translate(31.155)">
        <g id="Grupo_54290" data-name="Grupo 54290">
          <path id="Trazado_103623" data-name="Trazado 103623" d="M1125.755,467.184a9.334,9.334,0,1,1-5.295-12.091A9.334,9.334,0,0,1,1125.755,467.184Z" transform="translate(-1107.725 -454.45)" fill="#ff735d"/>
        </g>
      </g>
      <g id="Grupo_54293" data-name="Grupo 54293" transform="translate(16.636 36.133)">
        <g id="Grupo_54292" data-name="Grupo 54292">
          <path id="Trazado_103624" data-name="Trazado 103624" d="M1114.653,495.814c-2.042,5.225-7.59,7.937-12.391,6.061s-7.038-7.634-5-12.857,7.59-7.938,12.391-6.061S1116.7,490.59,1114.653,495.814Z" transform="translate(-1096.51 -482.362)" fill="#ff735d"/>
        </g>
      </g>
      <g id="Grupo_54296" data-name="Grupo 54296" transform="translate(5.955 17.802)">
        <g id="Grupo_54295" data-name="Grupo 54295">
          <g id="Grupo_54294" data-name="Grupo 54294">
            <path id="Trazado_103625" data-name="Trazado 103625" d="M1106.262,494.465c-.585.4-5.077-5.15-10.03-12.4s-8.5-13.448-7.91-13.848,5.076,5.148,10.031,12.4S1106.849,494.065,1106.262,494.465Z" transform="translate(-1088.259 -468.201)" fill="#ff735d"/>
          </g>
        </g>
      </g>
      <g id="Grupo_54299" data-name="Grupo 54299" transform="translate(11.002 7.831)">
        <g id="Grupo_54298" data-name="Grupo 54298">
          <g id="Grupo_54297" data-name="Grupo 54297">
            <path id="Trazado_103626" data-name="Trazado 103626" d="M1120.066,460.683c.2.681-5.886,3.064-13.59,5.322s-14.115,3.538-14.314,2.857,5.884-3.064,13.592-5.323S1119.867,460,1120.066,460.683Z" transform="translate(-1092.157 -460.5)" fill="#ff735d"/>
          </g>
        </g>
      </g>
    </g>
    <g id="Grupo_54336" data-name="Grupo 54336" transform="translate(1135.116 616.796)">
      <g id="Grupo_54305" data-name="Grupo 54305">
        <g id="Grupo_54304" data-name="Grupo 54304">
          <g id="Grupo_54303" data-name="Grupo 54303">
            <g id="Grupo_54302" data-name="Grupo 54302">
              <g id="Grupo_54301" data-name="Grupo 54301">
                <path id="Trazado_103627" data-name="Trazado 103627" d="M1116.311,540.262a6.741,6.741,0,0,1-.17-1.5,12.436,12.436,0,0,0-.2-1.8,17.734,17.734,0,0,0-.474-2.425,22.714,22.714,0,0,0-2.518-6.237,23.356,23.356,0,0,0-5.8-6.68,23.108,23.108,0,0,0-21.785-3.744,21.625,21.625,0,0,0-5.891,3.006,21.033,21.033,0,0,0-4.973,4.774,22.924,22.924,0,0,0-.662,27.176,26.4,26.4,0,0,0,2.184,2.725,25.992,25.992,0,0,0,2.553,2.286,21.617,21.617,0,0,0,5.74,3.289,23.288,23.288,0,0,0,28.058-9.075,22.72,22.72,0,0,0,2.817-6.108,17.62,17.62,0,0,0,.592-2.4,12.376,12.376,0,0,0,.287-1.793,6.79,6.79,0,0,1,.243-1.491,6.512,6.512,0,0,1,.018,1.515,10.529,10.529,0,0,1-.168,1.833,16.528,16.528,0,0,1-.484,2.47,22.245,22.245,0,0,1-2.69,6.359,23.961,23.961,0,0,1-16.419,11.1,24.16,24.16,0,0,1-12.689-1.293,22.7,22.7,0,0,1-6.068-3.424,22.174,22.174,0,0,1-5.018-5.262,24.091,24.091,0,0,1,.7-28.685,22.2,22.2,0,0,1,5.266-5.01,22.724,22.724,0,0,1,6.226-3.126,24.166,24.166,0,0,1,12.735-.676,23.955,23.955,0,0,1,15.862,11.879,22.23,22.23,0,0,1,2.378,6.482,16.518,16.518,0,0,1,.365,2.492,10.642,10.642,0,0,1,.079,1.838A6.582,6.582,0,0,1,1116.311,540.262Z" transform="translate(-1068.404 -515.513)" fill="#ff735d"/>
              </g>
            </g>
          </g>
        </g>
      </g>
      <g id="Grupo_54310" data-name="Grupo 54310" transform="translate(6.085 9.072)">
        <g id="Grupo_54309" data-name="Grupo 54309">
          <g id="Grupo_54308" data-name="Grupo 54308">
            <g id="Grupo_54307" data-name="Grupo 54307">
              <g id="Grupo_54306" data-name="Grupo 54306">
                <path id="Trazado_103628" data-name="Trazado 103628" d="M1110.2,523.432c.052.073-.374.444-1.2,1.055-.45.325-.956.688-1.52,1.093-.3.206-.618.439-.969.659l-1.164.608a26.671,26.671,0,0,1-13.894,3.5l-2.1-.093-2.02-.316c-.33-.056-.659-.1-.98-.164l-.942-.251c-.62-.172-1.234-.319-1.818-.5a30.512,30.512,0,0,1-5.894-2.716c-3.168-1.916-4.709-3.657-4.589-3.77.128-.146,1.849,1.313,5.04,2.968a35.438,35.438,0,0,0,5.8,2.374c.566.164,1.157.289,1.753.441l.906.225.94.142,1.929.284,2,.08a28.769,28.769,0,0,0,13.454-3.02l1.177-.511c.359-.188.685-.388,1-.562l1.613-.889C1109.622,523.59,1110.147,523.36,1110.2,523.432Z" transform="translate(-1073.104 -522.521)" fill="#ff735d"/>
              </g>
            </g>
          </g>
        </g>
      </g>
      <g id="Grupo_54315" data-name="Grupo 54315" transform="translate(5.367 31.79)">
        <g id="Grupo_54314" data-name="Grupo 54314">
          <g id="Grupo_54313" data-name="Grupo 54313">
            <g id="Grupo_54312" data-name="Grupo 54312">
              <g id="Grupo_54311" data-name="Grupo 54311">
                <path id="Trazado_103629" data-name="Trazado 103629" d="M1072.554,547c-.052-.073.374-.443,1.2-1.055l1.52-1.091c.3-.207.618-.44.968-.66l1.164-.608a26.672,26.672,0,0,1,13.894-3.5l2.1.093,2.019.316c.33.056.659.1.98.164l.942.251c.62.172,1.234.317,1.818.5a30.433,30.433,0,0,1,5.894,2.716c3.168,1.915,4.71,3.657,4.589,3.768-.127.146-1.849-1.311-5.038-2.968a35.725,35.725,0,0,0-5.8-2.374c-.566-.164-1.157-.289-1.753-.441l-.906-.225-.94-.141-1.929-.284-2-.081a28.754,28.754,0,0,0-13.454,3.021l-1.177.511c-.359.186-.685.388-1,.561l-1.613.889C1073.131,546.84,1072.606,547.071,1072.554,547Z" transform="translate(-1072.55 -540.07)" fill="#ff735d"/>
              </g>
            </g>
          </g>
        </g>
      </g>
      <g id="Grupo_54320" data-name="Grupo 54320" transform="translate(0.639 23.857)">
        <g id="Grupo_54319" data-name="Grupo 54319">
          <g id="Grupo_54318" data-name="Grupo 54318">
            <g id="Grupo_54317" data-name="Grupo 54317">
              <g id="Grupo_54316" data-name="Grupo 54316">
                <path id="Trazado_103630" data-name="Trazado 103630" d="M1116.153,535.383c-.009.359-10.6.392-23.642.075s-23.623-.865-23.614-1.223,10.593-.392,23.645-.075S1116.162,535.024,1116.153,535.383Z" transform="translate(-1068.897 -533.942)" fill="#ff735d"/>
              </g>
            </g>
          </g>
        </g>
      </g>
      <g id="Grupo_54325" data-name="Grupo 54325" transform="translate(22.884 0.541)">
        <g id="Grupo_54324" data-name="Grupo 54324">
          <g id="Grupo_54323" data-name="Grupo 54323">
            <g id="Grupo_54322" data-name="Grupo 54322">
              <g id="Grupo_54321" data-name="Grupo 54321">
                <path id="Trazado_103631" data-name="Trazado 103631" d="M1086.374,563.17c-.359-.008-.392-10.591-.075-23.634s.864-23.614,1.223-23.6.392,10.589.075,23.637S1086.732,563.179,1086.374,563.17Z" transform="translate(-1086.081 -515.931)" fill="#ff735d"/>
              </g>
            </g>
          </g>
        </g>
      </g>
      <g id="Grupo_54330" data-name="Grupo 54330" transform="translate(11.423 0.527)">
        <g id="Grupo_54329" data-name="Grupo 54329">
          <g id="Grupo_54328" data-name="Grupo 54328">
            <g id="Grupo_54327" data-name="Grupo 54327">
              <g id="Grupo_54326" data-name="Grupo 54326">
                <path id="Trazado_103632" data-name="Trazado 103632" d="M1088.983,563.138c-.089.137-2.693-1.627-5.7-5.625a31.8,31.8,0,0,1-4.224-7.669,28.485,28.485,0,0,1-1.828-10.588,27.114,27.114,0,0,1,2.384-10.483,32.865,32.865,0,0,1,4.616-7.432c3.182-3.846,5.807-5.551,5.9-5.414.127.148-2.25,2.082-5.172,5.979a35.374,35.374,0,0,0-4.241,7.343,27.254,27.254,0,0,0-2.185,10.031,28.778,28.778,0,0,0,1.654,10.152,34.093,34.093,0,0,0,3.849,7.55C1086.77,561.01,1089.115,563,1088.983,563.138Z" transform="translate(-1077.227 -515.92)" fill="#ff735d"/>
              </g>
            </g>
          </g>
        </g>
      </g>
      <g id="Grupo_54335" data-name="Grupo 54335" transform="translate(23.703 0.54)">
        <g id="Grupo_54334" data-name="Grupo 54334">
          <g id="Grupo_54333" data-name="Grupo 54333">
            <g id="Grupo_54332" data-name="Grupo 54332">
              <g id="Grupo_54331" data-name="Grupo 54331">
                <path id="Trazado_103633" data-name="Trazado 103633" d="M1087.865,515.938c.088-.137,2.693,1.627,5.7,5.625a31.78,31.78,0,0,1,4.223,7.669,28.482,28.482,0,0,1,1.829,10.588,27.1,27.1,0,0,1-2.386,10.482,32.85,32.85,0,0,1-4.615,7.433c-3.183,3.846-5.807,5.551-5.9,5.414-.128-.148,2.25-2.082,5.172-5.98a35.361,35.361,0,0,0,4.24-7.343,27.2,27.2,0,0,0,2.185-10.031,28.758,28.758,0,0,0-1.653-10.153,34.1,34.1,0,0,0-3.849-7.548C1090.077,518.066,1087.733,516.08,1087.865,515.938Z" transform="translate(-1086.713 -515.93)" fill="#ff735d"/>
              </g>
            </g>
          </g>
        </g>
      </g>
    </g>
    <g id="Grupo_54341" data-name="Grupo 54341" transform="translate(878.14 459.757)">
      <g id="Grupo_54338" data-name="Grupo 54338" transform="translate(0 0)">
        <g id="Grupo_54337" data-name="Grupo 54337">
          <path id="Trazado_103634" data-name="Trazado 103634" d="M907.036,468.484h0A37.139,37.139,0,0,1,869.9,431.344h0A37.139,37.139,0,0,1,907.036,394.2h0a37.139,37.139,0,0,1,37.138,37.139h0A37.139,37.139,0,0,1,907.036,468.484Z" transform="translate(-869.897 -394.205)" fill="#98d7f4"/>
        </g>
      </g>
      <g id="Grupo_54340" data-name="Grupo 54340" transform="translate(13.463 13.463)">
        <g id="Grupo_54339" data-name="Grupo 54339">
          <path id="Trazado_103635" data-name="Trazado 103635" d="M903.972,404.6a23.676,23.676,0,1,0,23.676,23.677A23.676,23.676,0,0,0,903.972,404.6Zm0,4.118a19.443,19.443,0,0,1,11.924,4.089,23.935,23.935,0,0,1-9.838,7.259,90.931,90.931,0,0,0-6.881-10.727A19.394,19.394,0,0,1,903.972,408.723Zm-8.822,2.127a88.046,88.046,0,0,1,6.978,10.618,62.736,62.736,0,0,1-17.135,2.181A19.616,19.616,0,0,1,895.149,410.85Zm-10.734,17.43c0-.168.023-.334.026-.5a66.176,66.176,0,0,0,19.629-2.61q.689,1.4,1.322,2.826-10,3.124-16.447,12.784A19.462,19.462,0,0,1,884.415,428.28Zm19.557,19.559a19.437,19.437,0,0,1-12-4.148c3.884-6.095,8.846-10.061,14.989-11.892a77.4,77.4,0,0,1,4.033,14.718A19.446,19.446,0,0,1,903.972,447.839Zm10.856-3.3a81.22,81.22,0,0,0-3.787-13.607,39.363,39.363,0,0,1,12.23.388A19.564,19.564,0,0,1,914.828,444.538Zm-5.366-17.5c-.48-1.111-.979-2.219-1.513-3.314a27.989,27.989,0,0,0,10.948-8.053,19.483,19.483,0,0,1,4.579,11.512A42.268,42.268,0,0,0,909.462,427.034Z" transform="translate(-880.297 -404.605)" fill="#53bced"/>
        </g>
      </g>
    </g>
    <g id="Grupo_54355" data-name="Grupo 54355" transform="translate(885.04 366.824)">
      <g id="Grupo_54354" data-name="Grupo 54354" transform="translate(0 0)">
        <g id="Grupo_54347" data-name="Grupo 54347">
          <g id="Grupo_54346" data-name="Grupo 54346">
            <g id="Grupo_54345" data-name="Grupo 54345">
              <g id="Grupo_54344" data-name="Grupo 54344">
                <g id="Grupo_54343" data-name="Grupo 54343">
                  <g id="Grupo_54342" data-name="Grupo 54342">
                    <path id="Trazado_103636" data-name="Trazado 103636" d="M911.038,336.683l-4.331,2.373-16.671-7.992-4.737-8.646s-6.921,3.257.07,14.147,4.561,8.473,4.561,8.473-14.186,7.845-14.689,9.727c-.368,1.368,6.981,15.7,11.03,23.44,2.037,3.9,6.366,6.187,10.451,5.132a6.992,6.992,0,0,0,1.643-.632c3.546-1.943,20.081-14.753,20.081-14.753l7.482-4.1Z" transform="translate(-875.227 -322.417)" fill="#98d7f4"/>
                  </g>
                </g>
              </g>
            </g>
          </g>
        </g>
        <g id="Grupo_54353" data-name="Grupo 54353" transform="translate(37.155 5.097)">
          <g id="Grupo_54352" data-name="Grupo 54352">
            <g id="Grupo_54351" data-name="Grupo 54351">
              <g id="Grupo_54350" data-name="Grupo 54350">
                <g id="Grupo_54349" data-name="Grupo 54349">
                  <g id="Grupo_54348" data-name="Grupo 54348">
                    <path id="Trazado_103637" data-name="Trazado 103637" d="M913.683,326.354l13.57,31.084-7.418,4.065-15.907-29.028Z" transform="translate(-903.928 -326.354)" fill="#98d7f4"/>
                  </g>
                </g>
              </g>
            </g>
          </g>
        </g>
      </g>
    </g>
  </g>
</svg>
