<svg xmlns="http://www.w3.org/2000/svg" width="1172.339" height="324.932" viewBox="0 0 1172.339 324.932">
  <g id="Grupo_84485" data-name="Grupo 84485" transform="translate(-82.889 -5980.45)">
    <path id="Trazado_190231" data-name="Trazado 190231" d="M196.261,6145.385h-2V6083h366.5v2h-364.5Z" fill="#142035"/>
    <g id="Grupo_84481" data-name="Grupo 84481">
      <path id="Trazado_190232" data-name="Trazado 190232" d="M718.121,6028.44H581.853v32.479h178.8V6028.44Z" fill="#da6e5f"/>
      <path id="Trazado_190233" data-name="Trazado 190233" d="M761.154,6061.419h-179.8V6027.94h179.8Zm-178.8-1h177.8V6028.94h-177.8Z" fill="#da6e5f"/>
    </g>
    <g id="Grupo_84484" data-name="Grupo 84484">
      <g id="Grupo_84482" data-name="Grupo 84482">
        <rect id="Rectángulo_24402" data-name="Rectángulo 24402" width="20.822" height="2" transform="translate(545.533 6021.818)" fill="#da6e5f"/>
        <rect id="Rectángulo_24403" data-name="Rectángulo 24403" width="2" height="20.822" transform="translate(554.944 6012.407)" fill="#da6e5f"/>
      </g>
      <g id="Grupo_84483" data-name="Grupo 84483">
        <rect id="Rectángulo_24404" data-name="Rectángulo 24404" width="30.956" height="2" transform="translate(573.839 5995.929)" fill="#da6e5f"/>
        <rect id="Rectángulo_24405" data-name="Rectángulo 24405" width="2" height="30.957" transform="translate(588.317 5981.45)" fill="#da6e5f"/>
      </g>
      <path id="Trazado_190234" data-name="Trazado 190234" d="M555.944,5996.89a8.22,8.22,0,1,1,8.219-8.22A8.229,8.229,0,0,1,555.944,5996.89Zm0-14.44a6.22,6.22,0,1,0,6.219,6.22A6.227,6.227,0,0,0,555.944,5982.45Z" fill="#da6e5f"/>
    </g>
    <text id="Consumo" transform="translate(671.254 6097.337)" fill="#073360" font-size="20.722" font-family="Roboto-Black, Roboto" font-weight="800"><tspan x="-44.352" y="0">Consumo</tspan></text>
    <path id="Trazado_190235" data-name="Trazado 190235" d="M782.748,6119.732H559.759v-59.813H782.748Zm-220.989-2H780.748v-55.813H561.759Z" fill="#da6e5f"/>
    <path id="Trazado_190236" data-name="Trazado 190236" d="M241.252,6145.385H104.984v32.479h178.8v-32.479Z" fill="#3d84cb"/>
    <text id="Se_adquieren_con_frecuencia_de_inmediato_y_sin_comparación." data-name="Se adquieren con frecuencia, de inmediato y sin comparación." transform="translate(97.593 6182.382)" fill="#073360" font-size="20.722" font-family="Roboto-Black, Roboto" font-weight="800"><tspan x="0" y="22">Se adquieren con </tspan><tspan x="0" y="46.866">frecuencia, de </tspan><tspan x="0" y="71.732">inmediato y sin </tspan><tspan x="0" y="96.598">comparación.</tspan></text>
    <text id="Conveniencia" transform="translate(194.384 6166.944)" fill="#fff" font-size="16.439" font-family="Roboto-Black, Roboto" font-weight="800"><tspan x="-50.263" y="0">Conveniencia</tspan></text>
    <path id="Trazado_190237" data-name="Trazado 190237" d="M305.879,6297.915H82.889V6177.678h222.99Zm-220.99-2h218.99V6179.678H84.889Z" fill="#3d84cb"/>
    <path id="Trazado_190238" data-name="Trazado 190238" d="M523.765,6145.385H387.5v32.479H566.3v-32.479Z" fill="#e18a7f"/>
    <text id="Se_adquieren_con_menor_frecuencia_y_mayor_comparación_calidad_precio." data-name="Se adquieren con menor frecuencia y mayor comparación calidad – precio." transform="translate(378.01 6186.235)" fill="#073360" font-size="20.722" font-family="Roboto-Black, Roboto" font-weight="800"><tspan x="0" y="22">Se adquieren con </tspan><tspan x="0" y="46.866">menor frecuencia y </tspan><tspan x="0" y="71.732">mayor comparación </tspan><tspan x="0" y="96.598">calidad – precio.</tspan></text>
    <text id="Compra" transform="translate(476.897 6166.944)" fill="#fff" font-size="16.439" font-family="Roboto-Black, Roboto" font-weight="800"><tspan x="-29.072" y="0">Compra</tspan></text>
    <path id="Trazado_190239" data-name="Trazado 190239" d="M588.392,6296.377H365.4V6177.714H588.392Zm-220.989-2H586.392V6179.714H367.4Z" fill="#e18a7f"/>
    <rect id="Rectángulo_24406" data-name="Rectángulo 24406" width="2" height="61.385" transform="translate(475.898 6084)" fill="#142035"/>
    <path id="Trazado_190240" data-name="Trazado 190240" d="M1148.247,6141.583h-2V6081.2h-364.5v-2h366.5Z" fill="#142035"/>
    <path id="Trazado_190241" data-name="Trazado 190241" d="M908.087,6141.583H771.819v32.479h178.8v-32.479Z" fill="#dabd36"/>
    <text id="Tienen_identificación_de_marca._Hay_esfuerzo_por_la_compra." data-name="Tienen identificación de marca. Hay esfuerzo por la compra." transform="translate(758.917 6178.579)" fill="#073360" font-size="20.722" font-family="Roboto-Black, Roboto" font-weight="800"><tspan x="0" y="22">Tienen identificación </tspan><tspan x="0" y="46.866">de marca. Hay </tspan><tspan x="0" y="71.732">esfuerzo por la </tspan><tspan x="0" y="96.598">compra.</tspan></text>
    <text id="Especialidad" transform="translate(861.22 6163.142)" fill="#fff" font-size="16.439" font-family="Roboto-Black, Roboto" font-weight="800"><tspan x="-46.932" y="0">Especialidad</tspan></text>
    <path id="Trazado_190242" data-name="Trazado 190242" d="M972.715,6294.112H749.725V6173.875h222.99Zm-220.99-2h218.99V6175.875H751.725Z" fill="#dabd36"/>
    <path id="Trazado_190243" data-name="Trazado 190243" d="M1190.6,6141.583H1054.333v32.479h178.8v-32.479Z" fill="#53bbec"/>
    <text id="Se_conocen_pero_no_es_usual_comprarlos." data-name="Se conocen, pero no es usual comprarlos." transform="translate(1044.845 6182.434)" fill="#073360" font-size="20.722" font-family="Roboto-Black, Roboto" font-weight="800"><tspan x="0" y="22">Se conocen, pero no </tspan><tspan x="0" y="46.866">es usual comprarlos.</tspan></text>
    <text id="No_buscados" data-name="No buscados" transform="translate(1143.733 6163.142)" fill="#fff" font-size="16.439" font-family="Roboto-Black, Roboto" font-weight="800"><tspan x="-47.987" y="0">No buscados</tspan></text>
    <path id="Trazado_190244" data-name="Trazado 190244" d="M1255.228,6292.575H1032.239V6173.911h222.989Zm-220.989-2h218.989V6175.911H1034.239Z" fill="#53bbec"/>
    <rect id="Rectángulo_24407" data-name="Rectángulo 24407" width="2" height="61.386" transform="translate(864.61 6080.197)" fill="#142035"/>
  </g>
</svg>
